CommonSerif-Bold.ufo
<glyph name="numbersign" format="2">
  <advance width="514"/>
  <unicode hex="0023"/>
  <outline>
    <contour>
      <point x="181" y="196.576" type="line"/>
      <point x="181" y="244.576" type="line"/>
      <point x="54" y="244.576" type="line" smooth="yes"/>
      <point x="45" y="244.576"/>
      <point x="29" y="234.576"/>
      <point x="29" y="213.576" type="curve" smooth="yes"/>
      <point x="29" y="205.576"/>
      <point x="32" y="196.576"/>
      <point x="39" y="196.576" type="curve" smooth="yes"/>
    </contour>
    <contour>
      <point x="207" y="369.532" type="line"/>
      <point x="207" y="417.532" type="line"/>
      <point x="80" y="417.532" type="line" smooth="yes"/>
      <point x="71" y="417.532"/>
      <point x="55" y="407.532"/>
      <point x="55" y="386.532" type="curve" smooth="yes"/>
      <point x="55" y="378.532"/>
      <point x="58" y="369.532"/>
      <point x="65" y="369.532" type="curve" smooth="yes"/>
    </contour>
    <contour>
      <point x="100" y="14" type="curve"/>
      <point x="118.15" y="9"/>
      <point x="136.85" y="9"/>
      <point x="155" y="14" type="curve"/>
      <point x="186.02" y="207.05"/>
      <point x="217.98" y="405.95"/>
      <point x="249" y="599" type="curve"/>
      <point x="230.52" y="604"/>
      <point x="211.48" y="604"/>
      <point x="193" y="599" type="curve"/>
      <point x="162.31" y="405.95"/>
      <point x="130.69" y="207.05"/>
    </contour>
    <contour>
      <point x="252" y="14" type="curve"/>
      <point x="269.49" y="9"/>
      <point x="287.51" y="9"/>
      <point x="305" y="14" type="curve"/>
      <point x="335.03" y="207.05"/>
      <point x="365.97" y="405.95"/>
      <point x="396" y="599" type="curve"/>
      <point x="378.84" y="604"/>
      <point x="361.16" y="604"/>
      <point x="344" y="599" type="curve"/>
      <point x="313.64" y="405.95"/>
      <point x="282.36" y="207.05"/>
    </contour>
    <contour>
      <point x="161.149" y="197.275" type="line"/>
      <point x="317.381" y="197.275" type="line"/>
      <point x="317.381" y="245.181" type="line"/>
      <point x="161.149" y="245.181" type="line"/>
    </contour>
    <contour>
      <point x="187.112" y="369.532" type="line"/>
      <point x="340.759" y="369.532" type="line"/>
      <point x="340.759" y="418" type="line"/>
      <point x="187.112" y="418" type="line"/>
    </contour>
    <contour>
      <point x="297.42" y="196.817" type="line"/>
      <point x="432.42" y="196.817" type="line" smooth="yes"/>
      <point x="443.42" y="196.817"/>
      <point x="457.42" y="208.817"/>
      <point x="457.42" y="225.817" type="curve" smooth="yes"/>
      <point x="457.42" y="234.817"/>
      <point x="454.42" y="244.817"/>
      <point x="447.42" y="244.817" type="curve" smooth="yes"/>
      <point x="297.42" y="244.817" type="line"/>
    </contour>
    <contour>
      <point x="323.867" y="369.55" type="line"/>
      <point x="458.867" y="369.55" type="line" smooth="yes"/>
      <point x="469.867" y="369.55"/>
      <point x="483.867" y="381.55"/>
      <point x="483.867" y="398.55" type="curve" smooth="yes"/>
      <point x="483.867" y="407.55"/>
      <point x="480.867" y="417.55"/>
      <point x="473.867" y="417.55" type="curve" smooth="yes"/>
      <point x="323.867" y="417.55" type="line"/>
    </contour>
  </outline>
</glyph>
<glyph name="parenright" format="2">
  <advance width="315"/>
  <unicode hex="0029"/>
  <outline>
    <contour>
      <point x="279" y="251" type="curve" smooth="yes"/>
      <point x="279" y="296"/>
      <point x="274" y="521"/>
      <point x="47" y="717" type="curve"/>
      <point x="41.575" y="711.213"/>
      <point x="21.545" y="689.848"/>
      <point x="17" y="685" type="curve"/>
      <point x="49" y="649"/>
      <point x="164" y="515"/>
      <point x="164" y="251" type="curve" smooth="yes"/>
      <point x="164" y="-13"/>
      <point x="47" y="-147"/>
      <point x="17" y="-182" type="curve"/>
      <point x="21.951" y="-188.012"/>
      <point x="39.762" y="-209.64"/>
      <point x="45" y="-216" type="curve"/>
      <point x="176" y="-103"/>
      <point x="279" y="69"/>
    </contour>
  </outline>
</glyph>
<glyph name="comma" format="2">
  <advance width="244"/>
  <unicode hex="002C"/>
  <outline>
    <contour>
      <point x="117.264" y="127" type="curve" smooth="yes"/>
      <point x="76.993" y="127"/>
      <point x="49" y="99.007"/>
      <point x="49" y="62.623" type="curve" smooth="yes"/>
      <point x="49" y="38.056"/>
      <point x="65.763" y="14.746"/>
      <point x="89" y="7" type="curve" smooth="yes"/>
      <point x="98" y="4" type="line" smooth="yes"/>
      <point x="110.333" y="-0.111"/>
      <point x="125" y="-9"/>
      <point x="125" y="-32.909" type="curve" smooth="yes"/>
      <point x="125" y="-73.885"/>
      <point x="82.969" y="-121.608"/>
      <point x="29" y="-136" type="curve"/>
      <point x="29" y="-151.691"/>
      <point x="31.225" y="-158.077"/>
      <point x="36" y="-167" type="curve"/>
      <point x="120.654" y="-153.272"/>
      <point x="199" y="-64.704"/>
      <point x="199" y="17.268" type="curve" smooth="yes"/>
      <point x="199" y="88.169"/>
      <point x="170.076" y="127"/>
    </contour>
  </outline>
</glyph>
<glyph name="one" format="2">
  <advance width="514"/>
  <unicode hex="0031"/>
  <outline>
    <contour>
      <point x="134" y="-2" type="curve"/>
      <point x="216" y="-1"/>
      <point x="263" y="0"/>
      <point x="303" y="0" type="curve" smooth="yes"/>
      <point x="343" y="0"/>
      <point x="388" y="-1"/>
      <point x="470" y="-2" type="curve"/>
      <point x="480" y="4"/>
      <point x="480" y="26"/>
      <point x="470" y="32" type="curve"/>
      <point x="415" y="35"/>
      <point x="367" y="39"/>
      <point x="367" y="122" type="curve" smooth="yes"/>
      <point x="367" y="483" type="line" smooth="yes"/>
      <point x="367" y="536"/>
      <point x="374.2" y="587.3"/>
      <point x="375" y="593" type="curve"/>
      <point x="375" y="606"/>
      <point x="367" y="610"/>
      <point x="358" y="610" type="curve"/>
      <point x="315.366" y="587.756"/>
      <point x="245.639" y="560.873"/>
      <point x="92" y="507" type="curve"/>
      <point x="93" y="490"/>
      <point x="100" y="474"/>
      <point x="114" y="464" type="curve"/>
      <point x="156.573" y="479.449"/>
      <point x="194.601" y="489.302"/>
      <point x="210" y="489" type="curve" smooth="yes"/>
      <point x="229.621" y="488.616"/>
      <point x="237" y="477.424"/>
      <point x="237" y="448.05" type="curve" smooth="yes"/>
      <point x="237" y="122" type="line" smooth="yes"/>
      <point x="237" y="39"/>
      <point x="189" y="35"/>
      <point x="134" y="32" type="curve"/>
      <point x="124" y="26"/>
      <point x="124" y="4"/>
    </contour>
  </outline>
</glyph>
<glyph name="two" format="2">
  <advance width="514"/>
  <unicode hex="0032"/>
  <outline>
    <contour>
      <point x="39" y="32" type="curve" smooth="yes"/>
      <point x="39" y="20.919"/>
      <point x="41.141" y="10.062"/>
      <point x="44" y="0" type="curve"/>
      <point x="76" y="0"/>
      <point x="107" y="0"/>
      <point x="140" y="0" type="curve" smooth="yes"/>
      <point x="331.125" y="0" type="line" smooth="yes"/>
      <point x="363.625" y="0"/>
      <point x="396.125" y="0"/>
      <point x="428.625" y="0" type="curve"/>
      <point x="434.059" y="45"/>
      <point x="446.247" y="114"/>
      <point x="460" y="164" type="curve"/>
      <point x="446.906" y="170"/>
      <point x="437.766" y="174"/>
      <point x="414.406" y="174" type="curve"/>
      <point x="394.261" y="112.406"/>
      <point x="355.209" y="79"/>
      <point x="303.349" y="79" type="curve" smooth="yes"/>
      <point x="188.722" y="79" type="line"/>
      <point x="191.684" y="111"/>
      <point x="201.691" y="137.852"/>
      <point x="234.139" y="168" type="curve" smooth="yes"/>
      <point x="354.484" y="279" type="line" smooth="yes"/>
      <point x="426.527" y="344.072"/>
      <point x="453" y="375"/>
      <point x="453" y="449.29" type="curve" smooth="yes"/>
      <point x="453" y="553.905"/>
      <point x="363.625" y="610"/>
      <point x="260.797" y="610" type="curve" smooth="yes"/>
      <point x="119" y="610"/>
      <point x="50" y="516.686"/>
      <point x="50" y="454.32" type="curve" smooth="yes"/>
      <point x="50" y="422.607"/>
      <point x="79.359" y="400"/>
      <point x="109" y="400" type="curve" smooth="yes"/>
      <point x="138" y="400"/>
      <point x="167" y="422.13"/>
      <point x="167" y="453.314" type="curve" smooth="yes"/>
      <point x="167" y="458.343"/>
      <point x="165" y="465.385"/>
      <point x="162" y="474.438" type="curve"/>
      <point x="159" y="481.479"/>
      <point x="156" y="489.527"/>
      <point x="156" y="500.592" type="curve" smooth="yes"/>
      <point x="156" y="536.451"/>
      <point x="195.3" y="570"/>
      <point x="238.089" y="570" type="curve" smooth="yes"/>
      <point x="296.172" y="570"/>
      <point x="323" y="530.908"/>
      <point x="323" y="446.272" type="curve" smooth="yes"/>
      <point x="323" y="369.545"/>
      <point x="299.21" y="316.116"/>
      <point x="239.795" y="259.404" type="curve" smooth="yes"/>
      <point x="182.797" y="205" type="line" smooth="yes"/>
      <point x="59.082" y="86.914"/>
      <point x="39" y="59"/>
    </contour>
  </outline>
</glyph>
<glyph name="three" format="2">
  <advance width="514"/>
  <unicode hex="0033"/>
  <outline>
    <contour>
      <point x="236.472" y="570" type="curve" smooth="yes"/>
      <point x="287.629" y="570"/>
      <point x="311" y="548.074"/>
      <point x="311" y="500.08" type="curve" smooth="yes"/>
      <point x="311" y="423.222"/>
      <point x="251.622" y="360.821"/>
      <point x="158" y="339.291" type="curve"/>
      <point x="165" y="298.992" type="line"/>
      <point x="186.247" y="305.108"/>
      <point x="198.19" y="307.052"/>
      <point x="214.523" y="307.052" type="curve" smooth="yes"/>
      <point x="294.023" y="307.052"/>
      <point x="337" y="260.36"/>
      <point x="337" y="173.989" type="curve" smooth="yes"/>
      <point x="337" y="88.753"/>
      <point x="294.974" y="30"/>
      <point x="234.005" y="30" type="curve" smooth="yes"/>
      <point x="204.759" y="30"/>
      <point x="180.91" y="43.586"/>
      <point x="160.192" y="72.049" type="curve" smooth="yes"/>
      <point x="141.82" y="97.289"/>
      <point x="121.882" y="109.589"/>
      <point x="99.343" y="109.589" type="curve" smooth="yes"/>
      <point x="70.804" y="109.589"/>
      <point x="46" y="89.344"/>
      <point x="46" y="66.05" type="curve" smooth="yes"/>
      <point x="46" y="26.394"/>
      <point x="123.541" y="-10"/>
      <point x="208.03" y="-10" type="curve" smooth="yes"/>
      <point x="348.152" y="-10"/>
      <point x="467" y="94.582"/>
      <point x="467" y="217.884" type="curve" smooth="yes"/>
      <point x="467" y="299.606"/>
      <point x="414.24" y="357.828"/>
      <point x="335.074" y="363.47" type="curve"/>
      <point x="334.954" y="365.12" type="line"/>
      <point x="390.453" y="394.784"/>
      <point x="429" y="451.691"/>
      <point x="429" y="503.959" type="curve" smooth="yes"/>
      <point x="429" y="570.644"/>
      <point x="366.84" y="610"/>
      <point x="261.515" y="610" type="curve" smooth="yes"/>
      <point x="157.819" y="610"/>
      <point x="61" y="552.75"/>
      <point x="61" y="491.435" type="curve" smooth="yes"/>
      <point x="61" y="463.875"/>
      <point x="75.603" y="450.112"/>
      <point x="104.846" y="450.112" type="curve" smooth="yes"/>
      <point x="140.948" y="450.112"/>
      <point x="160.729" y="470.119"/>
      <point x="160.729" y="506.635" type="curve" smooth="yes"/>
      <point x="160.729" y="548.415"/>
      <point x="186.53" y="570"/>
    </contour>
  </outline>
</glyph>
<glyph name="four" format="2">
  <advance width="514"/>
  <unicode hex="0034"/>
  <outline>
    <contour>
      <point x="53.336" y="162" type="curve" smooth="yes"/>
      <point x="261" y="162" type="line"/>
      <point x="261" y="122" type="line" smooth="yes"/>
      <point x="261" y="50.155"/>
      <point x="238.214" y="36.299"/>
      <point x="168" y="32" type="curve"/>
      <point x="158" y="26"/>
      <point x="158" y="4"/>
      <point x="168" y="-2" type="curve"/>
      <point x="250" y="-1"/>
      <point x="284" y="0"/>
      <point x="324" y="0" type="curve" smooth="yes"/>
      <point x="337" y="0" type="line" smooth="yes"/>
      <point x="372" y="0"/>
      <point x="405" y="-1"/>
      <point x="478" y="-2" type="curve"/>
      <point x="488" y="4"/>
      <point x="488" y="26"/>
      <point x="478" y="32" type="curve"/>
      <point x="406.529" y="35.324"/>
      <point x="385" y="52.402"/>
      <point x="385" y="122" type="curve" smooth="yes"/>
      <point x="385" y="162" type="line"/>
      <point x="469" y="162" type="line" smooth="yes"/>
      <point x="483" y="162"/>
      <point x="498" y="181"/>
      <point x="498" y="193" type="curve" smooth="yes"/>
      <point x="498" y="203"/>
      <point x="494" y="209"/>
      <point x="483" y="209" type="curve" smooth="yes"/>
      <point x="385" y="209" type="line"/>
      <point x="385" y="523" type="line" smooth="yes"/>
      <point x="385" y="552"/>
      <point x="386" y="579"/>
      <point x="387" y="608" type="curve"/>
      <point x="385" y="610" type="line"/>
      <point x="304.731" y="610" type="line" smooth="yes"/>
      <point x="292.731" y="610"/>
      <point x="285.36" y="603.65"/>
      <point x="278.262" y="593.974" type="curve" smooth="yes"/>
      <point x="267.15" y="578.827" type="line" smooth="yes"/>
      <point x="190.315" y="474.096"/>
      <point x="106.535" y="347.369"/>
      <point x="30" y="223" type="curve" smooth="yes"/>
      <point x="22" y="210" type="line"/>
      <point x="22" y="180.763"/>
      <point x="38.816" y="162"/>
    </contour>
    <contour>
      <point x="77" y="209" type="line"/>
      <point x="130.771" y="305.969"/>
      <point x="208" y="429"/>
      <point x="261" y="501" type="curve"/>
      <point x="261" y="209" type="line"/>
    </contour>
  </outline>
</glyph>
<glyph name="five" format="2">
  <advance width="514"/>
  <unicode hex="0035"/>
  <outline>
    <contour>
      <point x="52" y="71" type="curve" smooth="yes"/>
      <point x="52" y="28.2099"/>
      <point x="131.722" y="-10"/>
      <point x="221" y="-10" type="curve" smooth="yes"/>
      <point x="369.823" y="-10"/>
      <point x="460.375" y="80.1669"/>
      <point x="460.375" y="227.798" type="curve" smooth="yes"/>
      <point x="460.375" y="328.764"/>
      <point x="384.902" y="394"/>
      <point x="269" y="394" type="curve" smooth="yes"/>
      <point x="232.995" y="394"/>
      <point x="182.008" y="388.383"/>
      <point x="151" y="381" type="curve"/>
      <point x="170" y="513" type="line"/>
      <point x="196.053" y="510.209"/>
      <point x="252.594" y="508"/>
      <point x="298" y="508" type="curve" smooth="yes"/>
      <point x="315" y="508" type="line" smooth="yes"/>
      <point x="350.417" y="508"/>
      <point x="367.978" y="508.916"/>
      <point x="430" y="514" type="curve"/>
      <point x="449" y="600" type="line"/>
      <point x="426" y="613" type="line"/>
      <point x="356.206" y="602.903"/>
      <point x="318.239" y="600"/>
      <point x="256" y="600" type="curve" smooth="yes"/>
      <point x="239" y="600" type="line" smooth="yes"/>
      <point x="200.633" y="600"/>
      <point x="167.481" y="602.934"/>
      <point x="126" y="610" type="curve"/>
      <point x="86" y="312" type="line"/>
      <point x="99" y="304" type="line"/>
      <point x="163" y="328"/>
      <point x="185" y="338"/>
      <point x="223" y="338" type="curve" smooth="yes"/>
      <point x="290.793" y="338"/>
      <point x="323" y="289.689"/>
      <point x="323" y="188" type="curve" smooth="yes"/>
      <point x="323" y="91.9444"/>
      <point x="289.136" y="34"/>
      <point x="233" y="34" type="curve" smooth="yes"/>
      <point x="217.393" y="34"/>
      <point x="202.787" y="45.9509"/>
      <point x="178" y="79" type="curve" smooth="yes"/>
      <point x="169" y="91" type="line" smooth="yes"/>
      <point x="156.205" y="108.06"/>
      <point x="131.907" y="118"/>
      <point x="103" y="118" type="curve" smooth="yes"/>
      <point x="73.0638" y="118"/>
      <point x="52" y="98.5882"/>
    </contour>
  </outline>
</glyph>
<glyph name="six" format="2">
  <advance width="514"/>
  <unicode hex="0036"/>
  <outline>
    <contour>
      <point x="44" y="246.483" type="curve" smooth="yes"/>
      <point x="44" y="33.979"/>
      <point x="162.937" y="-10"/>
      <point x="263" y="-10" type="curve" smooth="yes"/>
      <point x="397.572" y="-10"/>
      <point x="477" y="70.291"/>
      <point x="477" y="204.776" type="curve" smooth="yes"/>
      <point x="477" y="301.803"/>
      <point x="401.847" y="365"/>
      <point x="286" y="365" type="curve" smooth="yes"/>
      <point x="247.291" y="365"/>
      <point x="208.652" y="349.591"/>
      <point x="176" y="330" type="curve"/>
      <point x="192.554" y="478.99"/>
      <point x="285.84" y="560.36"/>
      <point x="450" y="569" type="curve"/>
      <point x="453" y="581"/>
      <point x="452" y="600"/>
      <point x="444" y="610" type="curve"/>
      <point x="187.99" y="590.658"/>
      <point x="44" y="459.801"/>
    </contour>
    <contour>
      <point x="168" y="211.727" type="curve" smooth="yes"/>
      <point x="168" y="237.53"/>
      <point x="169" y="263.364"/>
      <point x="171" y="289.182" type="curve"/>
      <point x="209" y="313.014"/>
      <point x="230" y="315"/>
      <point x="248" y="315" type="curve" smooth="yes"/>
      <point x="303.593" y="315"/>
      <point x="343" y="261.864"/>
      <point x="343" y="186.902" type="curve" smooth="yes"/>
      <point x="343" y="92.012"/>
      <point x="316.389" y="31"/>
      <point x="275" y="31" type="curve" smooth="yes"/>
      <point x="207.959" y="31"/>
      <point x="168" y="98.492"/>
    </contour>
  </outline>
</glyph>
<glyph name="seven" format="2">
  <advance width="514"/>
  <unicode hex="0037"/>
  <outline>
    <contour>
      <point x="121" y="0" type="curve"/>
      <point x="127" y="-12" type="line"/>
      <point x="229" y="-2" type="line"/>
      <point x="292.657" y="177.097"/>
      <point x="350" y="319"/>
      <point x="479" y="591" type="curve"/>
      <point x="473" y="600" type="line"/>
      <point x="445" y="600"/>
      <point x="417" y="600"/>
      <point x="389" y="600" type="curve" smooth="yes"/>
      <point x="138" y="600" type="line" smooth="yes"/>
      <point x="104" y="600"/>
      <point x="102" y="610"/>
      <point x="84" y="614" type="curve"/>
      <point x="81" y="614"/>
      <point x="80" y="614"/>
      <point x="80" y="611" type="curve" smooth="yes"/>
      <point x="80" y="563"/>
      <point x="68" y="466"/>
      <point x="60" y="414" type="curve"/>
      <point x="73" y="410"/>
      <point x="83" y="409"/>
      <point x="95" y="411" type="curve"/>
      <point x="117" y="491"/>
      <point x="151" y="498"/>
      <point x="184" y="498" type="curve" smooth="yes"/>
      <point x="379" y="498" type="line"/>
      <point x="313" y="362"/>
      <point x="199" y="144"/>
    </contour>
  </outline>
</glyph>
<glyph name="greater" format="2">
  <advance width="512"/>
  <unicode hex="003E"/>
  <outline>
    <contour>
      <point x="359" y="238" type="line"/>
      <point x="42" y="122" type="line"/>
      <point x="42" y="111.642"/>
      <point x="42" y="68.258"/>
      <point x="42" y="60" type="curve"/>
      <point x="471" y="215" type="line"/>
      <point x="471" y="223.402"/>
      <point x="471" y="251.359"/>
      <point x="471" y="259" type="curve"/>
      <point x="42" y="416" type="line"/>
      <point x="42" y="407.742"/>
      <point x="42" y="364.358"/>
      <point x="42" y="354" type="curve"/>
    </contour>
  </outline>
</glyph>
<glyph name="question" format="2">
  <advance width="430"/>
  <unicode hex="003F"/>
  <outline>
    <contour>
      <point x="160" y="216" type="line" smooth="yes"/>
      <point x="160" y="192.653"/>
      <point x="167.51" y="182"/>
      <point x="192" y="182" type="curve" smooth="yes"/>
      <point x="220.757" y="182"/>
      <point x="225" y="189.855"/>
      <point x="225" y="216" type="curve" smooth="yes"/>
      <point x="225" y="229" type="line" smooth="yes"/>
      <point x="225" y="285.886"/>
      <point x="243.486" y="315.357"/>
      <point x="288" y="348" type="curve" smooth="yes"/>
      <point x="338" y="385"/>
      <point x="401" y="431"/>
      <point x="401" y="505" type="curve" smooth="yes"/>
      <point x="401" y="597"/>
      <point x="330" y="658"/>
      <point x="216" y="658" type="curve" smooth="yes"/>
      <point x="145.504" y="658"/>
      <point x="26" y="622.008"/>
      <point x="26" y="533" type="curve" smooth="yes"/>
      <point x="26" y="501.079"/>
      <point x="51.389" y="475"/>
      <point x="83" y="475" type="curve" smooth="yes"/>
      <point x="113" y="475"/>
      <point x="136" y="491"/>
      <point x="136" y="516" type="curve" smooth="yes"/>
      <point x="136" y="530"/>
      <point x="134" y="538"/>
      <point x="132" y="545" type="curve"/>
      <point x="129" y="553"/>
      <point x="127" y="560"/>
      <point x="127" y="570" type="curve" smooth="yes"/>
      <point x="127" y="598"/>
      <point x="162" y="622"/>
      <point x="206" y="622" type="curve" smooth="yes"/>
      <point x="262" y="622"/>
      <point x="286" y="570"/>
      <point x="286" y="512" type="curve" smooth="yes"/>
      <point x="286" y="467"/>
      <point x="272.014" y="430.913"/>
      <point x="241" y="403" type="curve" smooth="yes"/>
      <point x="231" y="394" type="line" smooth="yes"/>
      <point x="184.548" y="352.193"/>
      <point x="160" y="295.837"/>
      <point x="160" y="231" type="curve" smooth="yes"/>
    </contour>
    <contour>
      <point x="121" y="58" type="curve" smooth="yes"/>
      <point x="121" y="20"/>
      <point x="153" y="-10"/>
      <point x="193" y="-10" type="curve" smooth="yes"/>
      <point x="233" y="-10"/>
      <point x="267" y="22"/>
      <point x="267" y="60" type="curve" smooth="yes"/>
      <point x="267" y="99"/>
      <point x="235" y="129"/>
      <point x="195" y="129" type="curve" smooth="yes"/>
      <point x="155" y="129"/>
      <point x="121" y="97"/>
    </contour>
  </outline>
</glyph>
<glyph name="B" format="2">
  <advance width="653"/>
  <unicode hex="0042"/>
  <anchor x="203" y="740" name="t.uni0302"/>
  <anchor x="201" y="-60" name="b.minus-60"/>
  <outline>
    <contour>
      <point x="27" y="-2" type="curve"/>
      <point x="76" y="-1"/>
      <point x="172" y="0"/>
      <point x="182" y="0" type="curve"/>
      <point x="182" y="645" type="line"/>
      <point x="172" y="645"/>
      <point x="77" y="646"/>
      <point x="27" y="647" type="curve"/>
      <point x="21" y="641"/>
      <point x="21" y="619"/>
      <point x="27" y="613" type="curve"/>
      <point x="97" y="610"/>
      <point x="114" y="605"/>
      <point x="114" y="522" type="curve" smooth="yes"/>
      <point x="114" y="123" type="line" smooth="yes"/>
      <point x="114" y="39"/>
      <point x="97" y="35"/>
      <point x="27" y="32" type="curve"/>
      <point x="21" y="26"/>
      <point x="21" y="4"/>
    </contour>
    <contour>
      <point x="182" y="645" type="curve"/>
      <point x="182" y="0" type="line"/>
      <point x="222" y="0"/>
      <point x="286" y="-2"/>
      <point x="346" y="-2" type="curve" smooth="yes"/>
      <point x="551" y="-2"/>
      <point x="617" y="84"/>
      <point x="617" y="186" type="curve" smooth="yes"/>
      <point x="617" y="274"/>
      <point x="573" y="331"/>
      <point x="467" y="359" type="curve"/>
      <point x="467" y="361" type="line"/>
      <point x="521" y="385"/>
      <point x="563" y="440"/>
      <point x="563" y="491" type="curve" smooth="yes"/>
      <point x="563" y="560"/>
      <point x="526" y="647"/>
      <point x="324" y="647" type="curve" smooth="yes"/>
      <point x="274" y="647"/>
      <point x="214" y="645"/>
    </contour>
    <contour>
      <point x="251" y="334" type="line"/>
      <point x="322" y="334" type="line" smooth="yes"/>
      <point x="425" y="334"/>
      <point x="470" y="273"/>
      <point x="470" y="187" type="curve" smooth="yes"/>
      <point x="470" y="127"/>
      <point x="449" y="40"/>
      <point x="317" y="40" type="curve" smooth="yes"/>
      <point x="257" y="40"/>
      <point x="251" y="55"/>
      <point x="251" y="84" type="curve" smooth="yes"/>
    </contour>
    <contour>
      <point x="251" y="562" type="line" smooth="yes"/>
      <point x="251" y="591"/>
      <point x="256" y="605"/>
      <point x="321" y="605" type="curve" smooth="yes"/>
      <point x="367" y="605"/>
      <point x="423" y="587"/>
      <point x="423" y="489" type="curve" smooth="yes"/>
      <point x="423" y="409"/>
      <point x="378" y="376"/>
      <point x="307" y="376" type="curve" smooth="yes"/>
      <point x="251" y="376" type="line"/>
    </contour>
  </outline>
</glyph>
<glyph name="C" format="2">
  <advance width="707"/>
  <unicode hex="0043"/>
  <anchor x="355" y="740" name="t.uni0302"/>
  <anchor x="353" y="-60" name="b.minus-60"/>
  <anchor x="357" y="0" name="b.cedilla"/>
  <outline>
    <contour>
      <point x="398" y="-10" type="curve" smooth="yes"/>
      <point x="495" y="-10"/>
      <point x="584" y="36"/>
      <point x="652" y="125" type="curve"/>
      <point x="647" y="134"/>
      <point x="630" y="146"/>
      <point x="619" y="146" type="curve"/>
      <point x="548" y="68"/>
      <point x="467" y="42"/>
      <point x="397" y="42" type="curve" smooth="yes"/>
      <point x="281" y="42"/>
      <point x="189" y="178"/>
      <point x="189" y="334" type="curve" smooth="yes"/>
      <point x="189" y="489"/>
      <point x="269" y="617"/>
      <point x="388" y="617" type="curve" smooth="yes"/>
      <point x="526" y="617"/>
      <point x="571" y="539"/>
      <point x="597" y="453" type="curve"/>
      <point x="609" y="449"/>
      <point x="629" y="452"/>
      <point x="640" y="458" type="curve"/>
      <point x="635" y="510"/>
      <point x="627" y="558"/>
      <point x="618" y="613" type="curve"/>
      <point x="567" y="618"/>
      <point x="522" y="658"/>
      <point x="399" y="658" type="curve" smooth="yes"/>
      <point x="203" y="658"/>
      <point x="38" y="535"/>
      <point x="38" y="315" type="curve" smooth="yes"/>
      <point x="38" y="91"/>
      <point x="193" y="-10"/>
    </contour>
  </outline>
</glyph>
<glyph name="D" format="2">
  <advance width="733"/>
  <unicode hex="0044"/>
  <anchor x="353" y="740" name="t.uni0302"/>
  <anchor x="351" y="-60" name="b.minus-60"/>
  <outline>
    <contour>
      <point x="27" y="-2" type="curve"/>
      <point x="76" y="-1"/>
      <point x="171.5" y="0"/>
      <point x="182" y="0" type="curve"/>
      <point x="182" y="645" type="line"/>
      <point x="172" y="645"/>
      <point x="77" y="646"/>
      <point x="27" y="647" type="curve"/>
      <point x="21" y="641"/>
      <point x="21" y="619"/>
      <point x="27" y="613" type="curve"/>
      <point x="97" y="610"/>
      <point x="114" y="605"/>
      <point x="114" y="522" type="curve" smooth="yes"/>
      <point x="114" y="122" type="line" smooth="yes"/>
      <point x="114" y="39"/>
      <point x="97" y="35"/>
      <point x="27" y="32" type="curve"/>
      <point x="21" y="26"/>
      <point x="21" y="4"/>
    </contour>
    <contour>
      <point x="27" y="-2" type="curve"/>
      <point x="76" y="-1"/>
      <point x="171.5" y="0"/>
      <point x="182" y="0" type="curve"/>
      <point x="182" y="645" type="line"/>
      <point x="172" y="645"/>
      <point x="77" y="646"/>
      <point x="27" y="647" type="curve"/>
      <point x="21" y="641"/>
      <point x="21" y="619"/>
      <point x="27" y="613" type="curve"/>
      <point x="97" y="610"/>
      <point x="114" y="605"/>
      <point x="114" y="522" type="curve" smooth="yes"/>
      <point x="114" y="122" type="line" smooth="yes"/>
      <point x="114" y="39"/>
      <point x="97" y="35"/>
      <point x="27" y="32" type="curve"/>
      <point x="21" y="26"/>
      <point x="21" y="4"/>
    </contour>
    <contour>
      <point x="182" y="0" type="line"/>
      <point x="222" y="0"/>
      <point x="306" y="-2"/>
      <point x="346" y="-2" type="curve" smooth="yes"/>
      <point x="552" y="-2"/>
      <point x="685" y="95"/>
      <point x="685" y="309" type="curve" smooth="yes"/>
      <point x="685" y="494"/>
      <point x="565" y="646"/>
      <point x="319" y="646" type="curve" smooth="yes"/>
      <point x="266" y="646"/>
      <point x="222" y="645"/>
      <point x="182" y="645" type="curve"/>
    </contour>
    <contour>
      <point x="251" y="119" type="curve" smooth="yes"/>
      <point x="251" y="529" type="line" smooth="yes"/>
      <point x="251" y="584"/>
      <point x="277" y="604"/>
      <point x="313" y="604" type="curve" smooth="yes"/>
      <point x="510" y="604"/>
      <point x="532" y="435"/>
      <point x="532" y="284" type="curve" smooth="yes"/>
      <point x="532" y="102"/>
      <point x="423" y="40"/>
      <point x="347" y="40" type="curve" smooth="yes"/>
      <point x="277" y="40"/>
      <point x="251" y="52"/>
    </contour>
  </outline>
</glyph>
<glyph name="F" format="2">
  <advance width="557"/>
  <unicode hex="0046"/>
  <anchor x="366" y="740" name="t.uni0302"/>
  <anchor x="364" y="-60" name="b.minus-60"/>
  <outline>
    <contour>
      <point x="27" y="-2" type="curve"/>
      <point x="76" y="-1"/>
      <point x="172" y="0"/>
      <point x="182" y="0" type="curve"/>
      <point x="182" y="645" type="line"/>
      <point x="172" y="645"/>
      <point x="77" y="646"/>
      <point x="27" y="647" type="curve"/>
      <point x="21" y="641"/>
      <point x="21" y="619"/>
      <point x="27" y="613" type="curve"/>
      <point x="97" y="610"/>
      <point x="114" y="605"/>
      <point x="114" y="522" type="curve" smooth="yes"/>
      <point x="114" y="123" type="line" smooth="yes"/>
      <point x="114" y="39"/>
      <point x="97" y="35"/>
      <point x="27" y="32" type="curve"/>
      <point x="21" y="26"/>
      <point x="21" y="4"/>
    </contour>
    <contour>
      <point x="182" y="0" type="line"/>
      <point x="222" y="0"/>
      <point x="306" y="-1"/>
      <point x="346" y="-2" type="curve"/>
      <point x="356" y="4"/>
      <point x="356" y="26"/>
      <point x="346" y="32" type="curve"/>
      <point x="291" y="35"/>
      <point x="253" y="39"/>
      <point x="253" y="122" type="curve" smooth="yes"/>
      <point x="253" y="554" type="line" smooth="yes"/>
      <point x="253" y="578"/>
      <point x="270" y="603"/>
      <point x="294" y="603" type="curve" smooth="yes"/>
      <point x="384" y="603" type="line" smooth="yes"/>
      <point x="459" y="603"/>
      <point x="485" y="560"/>
      <point x="507" y="491" type="curve"/>
      <point x="519" y="489"/>
      <point x="532" y="491"/>
      <point x="542" y="496" type="curve"/>
      <point x="539" y="540"/>
      <point x="531" y="638"/>
      <point x="530" y="646" type="curve"/>
      <point x="530" y="648"/>
      <point x="529" y="649"/>
      <point x="526" y="649" type="curve"/>
      <point x="509" y="646"/>
      <point x="501" y="645"/>
      <point x="477" y="645" type="curve" smooth="yes"/>
      <point x="182" y="645" type="line"/>
    </contour>
    <contour>
      <point x="238" y="299" type="line"/>
      <point x="334" y="299" type="line" smooth="yes"/>
      <point x="403" y="299"/>
      <point x="422" y="280"/>
      <point x="425" y="235" type="curve"/>
      <point x="431" y="229"/>
      <point x="462" y="229"/>
      <point x="468" y="235" type="curve"/>
      <point x="466" y="270"/>
      <point x="466" y="300"/>
      <point x="466" y="323" type="curve" smooth="yes"/>
      <point x="466" y="346"/>
      <point x="467" y="380"/>
      <point x="468" y="409" type="curve"/>
      <point x="462" y="415"/>
      <point x="431" y="415"/>
      <point x="425" y="409" type="curve"/>
      <point x="422" y="354"/>
      <point x="401" y="345"/>
      <point x="334" y="345" type="curve" smooth="yes"/>
      <point x="238" y="345" type="line"/>
    </contour>
  </outline>
</glyph>
<glyph name="G" format="2">
  <advance width="737"/>
  <unicode hex="0047"/>
  <anchor x="359" y="740" name="t.uni0302"/>
  <anchor x="357" y="-60" name="b.minus-60"/>
  <outline>
    <contour>
      <point x="400" y="658" type="curve" smooth="yes"/>
      <point x="192" y="658"/>
      <point x="38" y="519"/>
      <point x="38" y="307" type="curve" smooth="yes"/>
      <point x="38" y="94"/>
      <point x="192" y="-10"/>
      <point x="390" y="-10" type="curve" smooth="yes"/>
      <point x="502" y="-10"/>
      <point x="610" y="24"/>
      <point x="674" y="78" type="curve"/>
      <point x="664" y="87"/>
      <point x="659" y="95"/>
      <point x="659" y="106" type="curve" smooth="yes"/>
      <point x="659" y="223" type="line" smooth="yes"/>
      <point x="659" y="258"/>
      <point x="674" y="268"/>
      <point x="702" y="271" type="curve"/>
      <point x="708" y="277"/>
      <point x="708" y="302"/>
      <point x="702" y="308" type="curve"/>
      <point x="674" y="307"/>
      <point x="627" y="306"/>
      <point x="589" y="306" type="curve" smooth="yes"/>
      <point x="552" y="306"/>
      <point x="486" y="307"/>
      <point x="441" y="308" type="curve"/>
      <point x="435" y="302"/>
      <point x="435" y="277"/>
      <point x="441" y="271" type="curve"/>
      <point x="493" y="267"/>
      <point x="519" y="263"/>
      <point x="519" y="223" type="curve" smooth="yes"/>
      <point x="519" y="74" type="line"/>
      <point x="487" y="42"/>
      <point x="463" y="32"/>
      <point x="412" y="32" type="curve" smooth="yes"/>
      <point x="243" y="32"/>
      <point x="189" y="195"/>
      <point x="189" y="327" type="curve" smooth="yes"/>
      <point x="189" y="458"/>
      <point x="224" y="616"/>
      <point x="386" y="616" type="curve" smooth="yes"/>
      <point x="516" y="616"/>
      <point x="582" y="539"/>
      <point x="607" y="453" type="curve"/>
      <point x="623" y="451"/>
      <point x="639" y="453"/>
      <point x="651" y="459" type="curve"/>
      <point x="642" y="501"/>
      <point x="637" y="551"/>
      <point x="630" y="623" type="curve"/>
      <point x="578" y="623"/>
      <point x="525" y="658"/>
    </contour>
  </outline>
</glyph>
<glyph name="I" format="2">
  <advance width="368"/>
  <unicode hex="0049"/>
  <anchor x="184" y="740" name="t.uni0302"/>
  <anchor x="147" y="-110" name="m.uni0316_2"/>
  <outline>
    <contour>
      <point x="31" y="-2" type="curve"/>
      <point x="71" y="-1"/>
      <point x="145" y="0"/>
      <point x="185" y="0" type="curve" smooth="yes"/>
      <point x="225" y="0"/>
      <point x="297" y="-1"/>
      <point x="337" y="-2" type="curve"/>
      <point x="347" y="4"/>
      <point x="347" y="26"/>
      <point x="337" y="32" type="curve"/>
      <point x="282" y="35.0051"/>
      <point x="254" y="39.0119"/>
      <point x="254" y="122.152" type="curve"/>
      <point x="114" y="122.152" type="line"/>
      <point x="114" y="39.0119"/>
      <point x="86" y="35.0051"/>
      <point x="31" y="32" type="curve"/>
      <point x="21" y="26"/>
      <point x="21" y="4"/>
    </contour>
    <contour>
      <point x="114" y="122" type="line"/>
      <point x="254" y="122" type="line"/>
      <point x="254" y="523" type="line"/>
      <point x="114" y="523" type="line"/>
    </contour>
    <contour>
      <point x="254" y="523" type="line"/>
      <point x="254" y="573.15"/>
      <point x="282" y="610"/>
      <point x="337" y="613" type="curve"/>
      <point x="347" y="619"/>
      <point x="347" y="641"/>
      <point x="337" y="647" type="curve"/>
      <point x="297" y="646"/>
      <point x="225" y="645"/>
      <point x="185" y="645" type="curve" smooth="yes"/>
      <point x="145" y="645"/>
      <point x="71" y="646"/>
      <point x="31" y="647" type="curve"/>
      <point x="21" y="641"/>
      <point x="21" y="619"/>
      <point x="31" y="613" type="curve"/>
      <point x="86" y="610"/>
      <point x="114.324" y="573.15"/>
      <point x="114" y="523" type="curve"/>
    </contour>
  </outline>
</glyph>
<glyph name="J" format="2">
  <advance width="352"/>
  <unicode hex="004A"/>
  <anchor x="163" y="740" name="t.uni0302"/>
  <outline>
    <contour>
      <point x="260" y="522" type="line" smooth="yes"/>
      <point x="260" y="605"/>
      <point x="277" y="610"/>
      <point x="337" y="613" type="curve"/>
      <point x="343" y="619"/>
      <point x="343" y="641"/>
      <point x="337" y="647" type="curve"/>
      <point x="288" y="646"/>
      <point x="247" y="645"/>
      <point x="189" y="645" type="curve" smooth="yes"/>
      <point x="124" y="645"/>
      <point x="73" y="646"/>
      <point x="23" y="647" type="curve"/>
      <point x="17" y="641"/>
      <point x="17" y="619"/>
      <point x="23" y="613" type="curve"/>
      <point x="103" y="610"/>
      <point x="120" y="605"/>
      <point x="120" y="522" type="curve" smooth="yes"/>
      <point x="120" y="81" type="line" smooth="yes"/>
      <point x="120" y="-99"/>
      <point x="114" y="-128"/>
      <point x="71" y="-128" type="curve" smooth="yes"/>
      <point x="53" y="-128"/>
      <point x="35" y="-118"/>
      <point x="25" y="-105" type="curve" smooth="yes"/>
      <point x="12" y="-88"/>
      <point x="7" y="-60"/>
      <point x="-33" y="-60" type="curve" smooth="yes"/>
      <point x="-51" y="-60"/>
      <point x="-91" y="-87"/>
      <point x="-91" y="-116" type="curve" smooth="yes"/>
      <point x="-91" y="-163"/>
      <point x="-22" y="-187"/>
      <point x="7" y="-187" type="curve" smooth="yes"/>
      <point x="66" y="-187"/>
      <point x="117" y="-164"/>
      <point x="158" y="-129" type="curve" smooth="yes"/>
      <point x="202" y="-92"/>
      <point x="260" y="-40"/>
      <point x="260" y="103" type="curve" smooth="yes"/>
    </contour>
  </outline>
</glyph>
<glyph name="K" format="2">
  <advance width="741"/>
  <unicode hex="004B"/>
  <anchor x="359" y="740" name="t.uni0302"/>
  <anchor x="357" y="-60" name="b.minus-60"/>
  <outline>
    <contour>
      <point x="27" y="-2" type="curve"/>
      <point x="76" y="-1"/>
      <point x="177" y="0"/>
      <point x="187" y="0" type="curve"/>
      <point x="187" y="645" type="line"/>
      <point x="177" y="645"/>
      <point x="77" y="646"/>
      <point x="27" y="647" type="curve"/>
      <point x="21" y="641"/>
      <point x="21" y="619"/>
      <point x="27" y="613" type="curve"/>
      <point x="97" y="610"/>
      <point x="114" y="605"/>
      <point x="114" y="522" type="curve" smooth="yes"/>
      <point x="114" y="123" type="line" smooth="yes"/>
      <point x="114" y="39"/>
      <point x="97" y="35"/>
      <point x="27" y="32" type="curve"/>
      <point x="21" y="26"/>
      <point x="21" y="4"/>
    </contour>
    <contour>
      <point x="182" y="0" type="line"/>
      <point x="222" y="0"/>
      <point x="294" y="-1"/>
      <point x="334" y="-2" type="curve"/>
      <point x="344" y="4"/>
      <point x="344" y="26"/>
      <point x="334" y="32" type="curve"/>
      <point x="279" y="35"/>
      <point x="251" y="39"/>
      <point x="251" y="122" type="curve" smooth="yes"/>
      <point x="251" y="523" type="line" smooth="yes"/>
      <point x="251" y="606"/>
      <point x="279" y="610"/>
      <point x="334" y="613" type="curve"/>
      <point x="344" y="619"/>
      <point x="344" y="641"/>
      <point x="334" y="647" type="curve"/>
      <point x="294" y="646"/>
      <point x="222" y="645"/>
      <point x="182" y="645" type="curve"/>
    </contour>
    <contour>
      <point x="237" y="321" type="line"/>
      <point x="264" y="321"/>
      <point x="289.962" y="304.971"/>
      <point x="316" y="271" type="curve" smooth="yes"/>
      <point x="467" y="74" type="line" smooth="yes"/>
      <point x="486.955" y="47.966"/>
      <point x="501" y="20"/>
      <point x="503" y="4" type="curve"/>
      <point x="503" y="1"/>
      <point x="504" y="-2"/>
      <point x="508" y="-2" type="curve"/>
      <point x="528" y="-1"/>
      <point x="581" y="0"/>
      <point x="611" y="0" type="curve" smooth="yes"/>
      <point x="650" y="0"/>
      <point x="690" y="-1"/>
      <point x="729" y="-2" type="curve"/>
      <point x="735" y="4"/>
      <point x="735" y="26"/>
      <point x="729" y="32" type="curve"/>
      <point x="699" y="36"/>
      <point x="676.633" y="43.686"/>
      <point x="651" y="74" type="curve" smooth="yes"/>
      <point x="432" y="333" type="line" smooth="yes"/>
      <point x="415.052" y="353.044"/>
      <point x="402" y="370"/>
      <point x="402" y="378" type="curve" smooth="yes"/>
      <point x="402" y="385"/>
      <point x="402.895" y="397.117"/>
      <point x="414" y="407" type="curve" smooth="yes"/>
      <point x="523" y="504" type="line" smooth="yes"/>
      <point x="581.75" y="556.282"/>
      <point x="638" y="605"/>
      <point x="697" y="613" type="curve"/>
      <point x="703" y="619"/>
      <point x="703" y="641"/>
      <point x="697" y="647" type="curve"/>
      <point x="672" y="646"/>
      <point x="637" y="645"/>
      <point x="602" y="645" type="curve" smooth="yes"/>
      <point x="562" y="645"/>
      <point x="517" y="646"/>
      <point x="479" y="647" type="curve"/>
      <point x="473" y="641"/>
      <point x="473" y="619"/>
      <point x="479" y="613" type="curve"/>
      <point x="538" y="607"/>
      <point x="537.409" y="572.419"/>
      <point x="484" y="525" type="curve" smooth="yes"/>
      <point x="377" y="430" type="line" smooth="yes"/>
      <point x="306.576" y="367.474"/>
      <point x="264" y="339"/>
      <point x="237" y="339" type="curve"/>
    </contour>
  </outline>
</glyph>
<glyph name="L" format="2">
  <advance width="576"/>
  <unicode hex="004C"/>
  <anchor x="353" y="740" name="t.uni0302"/>
  <anchor x="351" y="-60" name="b.minus-60"/>
  <outline>
    <contour>
      <point x="27" y="-2" type="curve"/>
      <point x="76" y="-1"/>
      <point x="171.5" y="0"/>
      <point x="182" y="0" type="curve"/>
      <point x="182" y="645" type="line"/>
      <point x="172" y="645"/>
      <point x="77" y="646"/>
      <point x="27" y="647" type="curve"/>
      <point x="21" y="641"/>
      <point x="21" y="619"/>
      <point x="27" y="613" type="curve"/>
      <point x="97" y="610"/>
      <point x="114" y="605"/>
      <point x="114" y="522" type="curve" smooth="yes"/>
      <point x="114" y="122" type="line" smooth="yes"/>
      <point x="114" y="39"/>
      <point x="97" y="35"/>
      <point x="27" y="32" type="curve"/>
      <point x="21" y="26"/>
      <point x="21" y="4"/>
    </contour>
    <contour>
      <point x="182" y="0" type="line"/>
      <point x="405" y="0" type="line" smooth="yes"/>
      <point x="434" y="0"/>
      <point x="516" y="-2"/>
      <point x="525" y="-2" type="curve"/>
      <point x="535" y="48"/>
      <point x="545" y="113"/>
      <point x="551" y="165" type="curve"/>
      <point x="541" y="170"/>
      <point x="520" y="172"/>
      <point x="508" y="170" type="curve"/>
      <point x="488" y="98"/>
      <point x="451" y="42"/>
      <point x="346" y="42" type="curve" smooth="yes"/>
      <point x="286" y="42" type="line" smooth="yes"/>
      <point x="265" y="42"/>
      <point x="251" y="61"/>
      <point x="251" y="121" type="curve" smooth="yes"/>
      <point x="251" y="523" type="line" smooth="yes"/>
      <point x="251" y="606"/>
      <point x="279" y="610"/>
      <point x="334" y="613" type="curve"/>
      <point x="344" y="619"/>
      <point x="344" y="641"/>
      <point x="334" y="647" type="curve"/>
      <point x="252" y="646"/>
      <point x="222" y="645"/>
      <point x="182" y="645" type="curve"/>
    </contour>
  </outline>
  <guideline angle="90" x="149" y="0"/>
</glyph>
<glyph name="O" format="2">
  <advance width="730"/>
  <unicode hex="004F"/>
  <anchor x="344" y="740" name="t.uni0302"/>
  <anchor x="402" y="10" name="b.ogonek"/>
  <anchor x="352" y="-60" name="b.minus-60"/>
  <outline>
    <contour>
      <point x="694" y="322.684" type="curve" smooth="yes"/>
      <point x="694" y="528"/>
      <point x="546" y="658"/>
      <point x="365.082" y="658" type="curve" smooth="yes"/>
      <point x="165" y="658"/>
      <point x="37" y="499"/>
      <point x="37" y="314.896" type="curve" smooth="yes"/>
      <point x="37" y="111"/>
      <point x="194" y="-10"/>
      <point x="372.41" y="-10" type="curve" smooth="yes"/>
      <point x="565" y="-10"/>
      <point x="694" y="131"/>
    </contour>
    <contour>
      <point x="354.246" y="618" type="curve" smooth="yes"/>
      <point x="458" y="618"/>
      <point x="543" y="512.64"/>
      <point x="543" y="308.945" type="curve" smooth="yes"/>
      <point x="543" y="142.377"/>
      <point x="485" y="32"/>
      <point x="379.259" y="32" type="curve" smooth="yes"/>
      <point x="274" y="32"/>
      <point x="188" y="141.373"/>
      <point x="188" y="330.017" type="curve" smooth="yes"/>
      <point x="188" y="534.716"/>
      <point x="262" y="618"/>
    </contour>
  </outline>
  <guideline angle="90" x="344" y="0"/>
</glyph>
<glyph name="R" format="2">
  <advance width="718"/>
  <unicode hex="0052"/>
  <anchor x="356" y="740" name="t.uni0302"/>
  <anchor x="354" y="-60" name="b.minus-60"/>
  <outline>
    <contour>
      <point x="27" y="-2" type="curve"/>
      <point x="76" y="-1"/>
      <point x="171.5" y="0"/>
      <point x="182" y="0" type="curve"/>
      <point x="182" y="645" type="line"/>
      <point x="172" y="645"/>
      <point x="77" y="646"/>
      <point x="27" y="647" type="curve"/>
      <point x="21" y="641"/>
      <point x="21" y="619"/>
      <point x="27" y="613" type="curve" name=".hr01"/>
      <point x="97" y="610"/>
      <point x="114" y="605"/>
      <point x="114" y="522" type="curve" smooth="yes"/>
      <point x="114" y="122.725" type="line" smooth="yes"/>
      <point x="114" y="39"/>
      <point x="97" y="35"/>
      <point x="27" y="32" type="curve"/>
      <point x="21" y="26"/>
      <point x="21" y="4"/>
    </contour>
    <contour>
      <point x="182" y="0" type="line" name=".hr02"/>
      <point x="222" y="0"/>
      <point x="299" y="-1"/>
      <point x="339" y="-2" type="curve"/>
      <point x="349" y="4"/>
      <point x="349" y="26"/>
      <point x="339" y="32" type="curve"/>
      <point x="284" y="35" name=".hr03"/>
      <point x="256" y="39"/>
      <point x="256" y="122" type="curve" smooth="yes"/>
      <point x="256" y="283" type="line"/>
      <point x="326.087" y="283"/>
      <point x="342.975" y="275.344"/>
      <point x="358" y="253" type="curve" smooth="yes"/>
      <point x="475" y="79" type="line" smooth="yes"/>
      <point x="505.491" y="33.6538"/>
      <point x="547" y="-10"/>
      <point x="607" y="-10" type="curve" smooth="yes"/>
      <point x="647" y="-10"/>
      <point x="699" y="-7"/>
      <point x="709" y="-2" type="curve"/>
      <point x="713" y="5" name=".hr04"/>
      <point x="712" y="24"/>
      <point x="708" y="32" type="curve"/>
      <point x="663" y="32" name=".hr05"/>
      <point x="640" y="56"/>
      <point x="612" y="98" type="curve" smooth="yes"/>
      <point x="476" y="308" type="line"/>
      <point x="530" y="330"/>
      <point x="608" y="382"/>
      <point x="608" y="484" type="curve" smooth="yes"/>
      <point x="608" y="625"/>
      <point x="477" y="654"/>
      <point x="364" y="654" type="curve" smooth="yes"/>
      <point x="342" y="654"/>
      <point x="261" y="647"/>
      <point x="182" y="645" type="curve" name=".hr06"/>
    </contour>
    <contour>
      <point x="256" y="325" type="line"/>
      <point x="256" y="524" type="line" smooth="yes"/>
      <point x="256" y="592"/>
      <point x="279" y="613"/>
      <point x="332" y="613" type="curve" smooth="yes" name=".hr07"/>
      <point x="390" y="613"/>
      <point x="457" y="589"/>
      <point x="457" y="467" type="curve" smooth="yes"/>
      <point x="457" y="344"/>
      <point x="383" y="325"/>
      <point x="299" y="325" type="curve" smooth="yes"/>
    </contour>
  </outline>
  <guideline angle="0" x="0" y="816"/>
  <guideline angle="90" x="273" y="0"/>
</glyph>
<glyph name="S" format="2">
  <advance width="504"/>
  <unicode hex="0053"/>
  <anchor x="245" y="740" name="t.uni0302"/>
  <anchor x="238" y="-60" name="b.minus-60"/>
  <anchor x="230" y="0" name="b.cedilla"/>
  <outline>
    <contour>
      <point x="46" y="10" type="curve"/>
      <point x="100.005" y="10"/>
      <point x="159.526" y="-10.062"/>
      <point x="225.87" y="-10.062" type="curve" smooth="yes"/>
      <point x="378.305" y="-10.062"/>
      <point x="463" y="58.193"/>
      <point x="463" y="184" type="curve" smooth="yes"/>
      <point x="463" y="281.445"/>
      <point x="408.782" y="345.287"/>
      <point x="281.812" y="396.075" type="curve" smooth="yes"/>
      <point x="203.144" y="427.542"/>
      <point x="166" y="470.874"/>
      <point x="166" y="527" type="curve" smooth="yes"/>
      <point x="166" y="582"/>
      <point x="199.056" y="616"/>
      <point x="251" y="616" type="curve" smooth="yes"/>
      <point x="314.731" y="616"/>
      <point x="354.984" y="573.06"/>
      <point x="382" y="474" type="curve"/>
      <point x="399.241" y="469.074"/>
      <point x="422.741" y="471.424"/>
      <point x="432" y="479" type="curve"/>
      <point x="421.696" y="523.649"/>
      <point x="418.606" y="566.356"/>
      <point x="421" y="631" type="curve"/>
      <point x="366" y="639"/>
      <point x="345" y="658"/>
      <point x="252" y="658" type="curve" smooth="yes"/>
      <point x="129.034" y="658"/>
      <point x="41" y="585.555"/>
      <point x="41" y="485" type="curve" smooth="yes"/>
      <point x="41" y="389.527"/>
      <point x="73.661" y="325.766"/>
      <point x="202" y="269" type="curve" smooth="yes"/>
      <point x="300.163" y="225.581"/>
      <point x="337" y="183.56"/>
      <point x="337" y="115" type="curve" smooth="yes"/>
      <point x="337" y="63.511"/>
      <point x="291.205" y="32"/>
      <point x="233" y="32" type="curve" smooth="yes"/>
      <point x="163.519" y="32"/>
      <point x="96.411" y="89.678"/>
      <point x="77" y="178" type="curve"/>
      <point x="61.661" y="181.926"/>
      <point x="38.544" y="180.539"/>
      <point x="27" y="175" type="curve"/>
      <point x="37.814" y="114.956"/>
      <point x="45.012" y="52.446"/>
    </contour>
  </outline>
</glyph>
<glyph name="V" format="2">
  <advance width="702"/>
  <unicode hex="0056"/>
  <anchor x="355" y="740" name="t.uni0302"/>
  <anchor x="353" y="-60" name="b.minus-60"/>
  <outline>
    <contour>
      <point x="315" y="11" type="line" smooth="yes"/>
      <point x="322" y="-6"/>
      <point x="334" y="-12"/>
      <point x="348" y="-12" type="curve" smooth="yes"/>
      <point x="362" y="-12"/>
      <point x="375" y="-7"/>
      <point x="382" y="11" type="curve" smooth="yes"/>
      <point x="595" y="543" type="line" smooth="yes"/>
      <point x="619" y="603"/>
      <point x="651" y="610"/>
      <point x="695" y="613" type="curve"/>
      <point x="701" y="619"/>
      <point x="701" y="641"/>
      <point x="695" y="647" type="curve"/>
      <point x="665" y="646"/>
      <point x="633" y="645"/>
      <point x="601" y="645" type="curve" smooth="yes"/>
      <point x="560" y="645"/>
      <point x="505" y="646"/>
      <point x="468" y="647" type="curve"/>
      <point x="462" y="641"/>
      <point x="462" y="619"/>
      <point x="468" y="613" type="curve"/>
      <point x="506" y="610"/>
      <point x="552" y="604"/>
      <point x="537" y="566" type="curve" smooth="yes"/>
      <point x="384" y="174" type="line"/>
      <point x="381" y="174" type="line"/>
      <point x="243" y="573" type="line" smooth="yes"/>
      <point x="232" y="606"/>
      <point x="269" y="610"/>
      <point x="317" y="613" type="curve"/>
      <point x="323" y="619"/>
      <point x="323" y="641"/>
      <point x="317" y="647" type="curve"/>
      <point x="280" y="646"/>
      <point x="180" y="645"/>
      <point x="141" y="645" type="curve" smooth="yes"/>
      <point x="100" y="645"/>
      <point x="44" y="646"/>
      <point x="7" y="647" type="curve"/>
      <point x="1" y="641"/>
      <point x="1" y="619"/>
      <point x="7" y="613" type="curve"/>
      <point x="46" y="609"/>
      <point x="79" y="604"/>
      <point x="97" y="559" type="curve" smooth="yes"/>
    </contour>
  </outline>
</glyph>
<glyph name="underscore" format="2">
  <advance width="486"/>
  <unicode hex="005F"/>
  <outline>
    <contour>
      <point x="153" y="-151" type="line"/>
      <point x="153" y="-103" type="line"/>
      <point x="26" y="-103" type="line" smooth="yes"/>
      <point x="17" y="-103"/>
      <point x="1" y="-113"/>
      <point x="1" y="-134" type="curve" smooth="yes"/>
      <point x="1" y="-142"/>
      <point x="4" y="-151"/>
      <point x="11" y="-151" type="curve" smooth="yes"/>
    </contour>
    <contour>
      <point x="342" y="-103" type="line"/>
      <point x="135" y="-103" type="line"/>
      <point x="135" y="-151" type="line"/>
      <point x="342" y="-151" type="line"/>
    </contour>
    <contour>
      <point x="325" y="-151" type="line"/>
      <point x="460" y="-151" type="line" smooth="yes"/>
      <point x="471" y="-151"/>
      <point x="485" y="-139"/>
      <point x="485" y="-122" type="curve" smooth="yes"/>
      <point x="485" y="-113"/>
      <point x="482" y="-103"/>
      <point x="475" y="-103" type="curve" smooth="yes"/>
      <point x="325" y="-103" type="line"/>
    </contour>
  </outline>
</glyph>
<glyph name="d" format="2">
  <advance width="561"/>
  <unicode hex="0064"/>
  <anchor x="293" y="740" name="t.uni0302"/>
  <anchor x="277" y="-60" name="b.minus-60"/>
  <anchor x="549" y="652" name="apostrophe"/>
  <outline>
    <contour>
      <point x="359" y="7" type="curve"/>
      <point x="361" y="-5"/>
      <point x="368" y="-10"/>
      <point x="382" y="-10" type="curve"/>
      <point x="419" y="0"/>
      <point x="479" y="14"/>
      <point x="548" y="23" type="curve"/>
      <point x="550" y="29"/>
      <point x="548" y="49"/>
      <point x="546" y="55" type="curve"/>
      <point x="492" y="60"/>
      <point x="481" y="76"/>
      <point x="481" y="133" type="curve" smooth="yes"/>
      <point x="481" y="583" type="line" smooth="yes"/>
      <point x="481" y="648"/>
      <point x="483.7" y="681.3"/>
      <point x="484" y="685" type="curve"/>
      <point x="484" y="694"/>
      <point x="477" y="698"/>
      <point x="468" y="698" type="curve"/>
      <point x="431" y="686"/>
      <point x="351" y="675"/>
      <point x="280" y="672" type="curve"/>
      <point x="277" y="660"/>
      <point x="278" y="647"/>
      <point x="283" y="638" type="curve"/>
      <point x="346" y="633"/>
      <point x="351" y="632"/>
      <point x="351" y="563" type="curve" smooth="yes"/>
      <point x="351" y="120" type="line" smooth="yes"/>
      <point x="351" y="83"/>
      <point x="354" y="44"/>
    </contour>
    <contour>
      <point x="363" y="429" type="line"/>
      <point x="343" y="437"/>
      <point x="314" y="444"/>
      <point x="279" y="444" type="curve" smooth="yes"/>
      <point x="150" y="444"/>
      <point x="37" y="331"/>
      <point x="37" y="198" type="curve" smooth="yes"/>
      <point x="37" y="85"/>
      <point x="107" y="-10"/>
      <point x="224" y="-10" type="curve" smooth="yes"/>
      <point x="259" y="-10"/>
      <point x="311" y="16"/>
      <point x="361" y="59" type="curve"/>
      <point x="359" y="103" type="line"/>
      <point x="329" y="73"/>
      <point x="295" y="56"/>
      <point x="266" y="56" type="curve" smooth="yes"/>
      <point x="216" y="56"/>
      <point x="177" y="112"/>
      <point x="177" y="229" type="curve" smooth="yes"/>
      <point x="177" y="294"/>
      <point x="187" y="402"/>
      <point x="276" y="402" type="curve" smooth="yes"/>
      <point x="306" y="402"/>
      <point x="337" y="398"/>
      <point x="363" y="346" type="curve"/>
    </contour>
  </outline>
</glyph>
<glyph name="e" format="2">
	<unicode hex="0065"/>
	<advance width="489"/>
	<outline>
		<contour>
			<point x="431" y="129" type="curve"/>
			<point x="390" y="87"/>
			<point x="336" y="76"/>
			<point x="298" y="76" type="curve" smooth="yes"/>
			<point x="214.933" y="76"/>
			<point x="173" y="129.339"/>
			<point x="173" y="235" type="curve"/>
			<point x="413" y="229" type="line" smooth="yes"/>
			<point x="436.992" y="228.4"/>
			<point x="442" y="246"/>
			<point x="442" y="260" type="curve" smooth="yes"/>
			<point x="442" y="345"/>
			<point x="409" y="444"/>
			<point x="262" y="444" type="curve" smooth="yes"/>
			<point x="157" y="444"/>
			<point x="37" y="351"/>
			<point x="37" y="198" type="curve" smooth="yes"/>
			<point x="37" y="60"/>
			<point x="128" y="-10"/>
			<point x="259" y="-10" type="curve" smooth="yes"/>
			<point x="328" y="-10"/>
			<point x="396" y="25"/>
			<point x="446" y="98" type="curve"/>
			<point x="446" y="111"/>
			<point x="441" y="129"/>
		</contour>
		<contour>
			<point x="175" y="271" type="line"/>
			<point x="187.188" y="377.779"/>
			<point x="209.612" y="402"/>
			<point x="249" y="402" type="curve" smooth="yes"/>
			<point x="278" y="402"/>
			<point x="315" y="378"/>
			<point x="315" y="298" type="curve" smooth="yes"/>
			<point x="315" y="291"/>
			<point x="310.987" y="277.527"/>
			<point x="300" y="277" type="curve" smooth="yes"/>
		</contour>
	</outline>
	<anchor name="t.uni0302" x="248" y="500"/>
	<anchor name="t.uni0315_1" x="425" y="396"/>
	<anchor name="m.uni0316_2" x="239" y="-110"/>
	<anchor name="b.uni0321_4" x="389" y="41"/>
</glyph>
<glyph name="f" format="2">
	<unicode hex="0066"/>
	<advance width="391"/>
	<outline>
		<contour>
			<point x="30" y="-2" type="curve"/>
			<point x="72" y="-1"/>
			<point x="114" y="0"/>
			<point x="167" y="0" type="curve"/>
			<point x="212.21" y="-0.66"/>
			<point x="258.79" y="-1"/>
			<point x="304" y="-2" type="curve"/>
			<point x="310" y="4.25"/>
			<point x="310" y="25.625"/>
			<point x="304" y="32" type="curve"/>
			<point x="243" y="35"/>
			<point x="232" y="39"/>
			<point x="232" y="122" type="curve"/>
			<point x="102" y="122" type="line"/>
			<point x="102" y="39"/>
			<point x="91" y="35"/>
			<point x="30" y="32" type="curve"/>
			<point x="24" y="25.625"/>
			<point x="24" y="4.25"/>
		</contour>
		<contour>
			<point x="102" y="122" type="line"/>
			<point x="232" y="122" type="line"/>
			<point x="232" y="384" type="line"/>
			<point x="318" y="384" type="line" smooth="yes"/>
			<point x="336" y="384"/>
			<point x="353" y="389"/>
			<point x="353" y="401" type="curve" smooth="yes"/>
			<point x="353" y="424" type="line" smooth="yes"/>
			<point x="353" y="430"/>
			<point x="352" y="434"/>
			<point x="333" y="434" type="curve" smooth="yes"/>
			<point x="232" y="434" type="line"/>
			<point x="232" y="485" type="line" smooth="yes"/>
			<point x="232" y="634"/>
			<point x="273" y="656"/>
			<point x="295" y="656" type="curve" smooth="yes"/>
			<point x="312" y="656"/>
			<point x="316.132" y="641.038"/>
			<point x="323" y="617" type="curve" smooth="yes"/>
			<point x="332.132" y="585.037"/>
			<point x="358" y="560"/>
			<point x="394" y="560" type="curve" smooth="yes"/>
			<point x="427" y="560"/>
			<point x="451" y="581"/>
			<point x="451" y="624" type="curve" smooth="yes"/>
			<point x="451" y="651"/>
			<point x="420" y="698"/>
			<point x="314" y="698" type="curve" smooth="yes"/>
			<point x="179" y="698"/>
			<point x="102" y="579"/>
			<point x="102" y="454" type="curve" smooth="yes"/>
			<point x="102" y="434" type="line"/>
			<point x="100" y="434" type="line" smooth="yes"/>
			<point x="66" y="434"/>
			<point x="25" y="429"/>
			<point x="25" y="421" type="curve" smooth="yes"/>
			<point x="25" y="394" type="line" smooth="yes"/>
			<point x="25" y="387"/>
			<point x="29" y="384"/>
			<point x="52" y="384" type="curve" smooth="yes"/>
			<point x="102" y="384" type="line"/>
		</contour>
	</outline>
	<anchor name="m.uni0316_2" x="132" y="-110"/>
	<anchor name="m.uni031A_3" x="410" y="750"/>
	<guideline x="142" y="0" angle="90"/>
</glyph>
<glyph name="k" format="2">
  <advance width="613"/>
  <unicode hex="006B"/>
  <anchor x="306" y="784" name="m.uni0302"/>
  <anchor x="290" y="-214" name="m.uni0316_2"/>
  <anchor x="536" y="696" name="m.uni031A_3"/>
  <outline>
    <contour>
      <point x="26" y="-2" type="curve"/>
      <point x="68" y="-1"/>
      <point x="110" y="0"/>
      <point x="163" y="0" type="curve" smooth="yes"/>
      <point x="209" y="0"/>
      <point x="237" y="-1"/>
      <point x="280" y="-2" type="curve"/>
      <point x="286" y="4"/>
      <point x="286" y="26"/>
      <point x="280" y="32" type="curve"/>
      <point x="238" y="36"/>
      <point x="228" y="39"/>
      <point x="228" y="122" type="curve"/>
      <point x="98" y="122" type="line"/>
      <point x="98" y="39"/>
      <point x="87" y="37"/>
      <point x="26" y="32" type="curve"/>
      <point x="20" y="26"/>
      <point x="20" y="4"/>
    </contour>
    <contour>
      <point x="98" y="122" type="line"/>
      <point x="228" y="122" type="line"/>
      <point x="228" y="583" type="line" smooth="yes"/>
      <point x="228" y="648"/>
      <point x="231" y="681"/>
      <point x="231" y="685" type="curve" smooth="yes"/>
      <point x="231" y="694"/>
      <point x="224" y="698"/>
      <point x="215" y="698" type="curve"/>
      <point x="178" y="686"/>
      <point x="98" y="675"/>
      <point x="27" y="672" type="curve"/>
      <point x="24" y="660"/>
      <point x="25" y="649"/>
      <point x="30" y="640" type="curve"/>
      <point x="93" y="635"/>
      <point x="98" y="634"/>
      <point x="98" y="565" type="curve" smooth="yes"/>
    </contour>
    <contour>
      <point x="212" y="209" type="line"/>
      <point x="268" y="209"/>
      <point x="291" y="200"/>
      <point x="303" y="180" type="curve" smooth="yes"/>
      <point x="365" y="78" type="line" smooth="yes"/>
      <point x="376" y="60"/>
      <point x="381" y="37"/>
      <point x="381" y="2" type="curve" smooth="yes"/>
      <point x="381" y="0"/>
      <point x="383" y="-2"/>
      <point x="386" y="-2" type="curve" smooth="yes"/>
      <point x="391" y="-2"/>
      <point x="428" y="0"/>
      <point x="463" y="0" type="curve" smooth="yes"/>
      <point x="504" y="0"/>
      <point x="560" y="-1"/>
      <point x="597" y="-2" type="curve"/>
      <point x="603" y="4"/>
      <point x="603" y="26"/>
      <point x="597" y="32" type="curve"/>
      <point x="558" y="36"/>
      <point x="536" y="33"/>
      <point x="506" y="78" type="curve" smooth="yes"/>
      <point x="390" y="249" type="line"/>
      <point x="387" y="253"/>
      <point x="385" y="258"/>
      <point x="385" y="262" type="curve" smooth="yes"/>
      <point x="385" y="264"/>
      <point x="386" y="268"/>
      <point x="387" y="269" type="curve"/>
      <point x="437" y="324" type="line" smooth="yes"/>
      <point x="490" y="382"/>
      <point x="511" y="397"/>
      <point x="572" y="402" type="curve"/>
      <point x="578" y="408"/>
      <point x="578" y="430"/>
      <point x="572" y="436" type="curve"/>
      <point x="550" y="435"/>
      <point x="487" y="434"/>
      <point x="461" y="434" type="curve" smooth="yes"/>
      <point x="424" y="434"/>
      <point x="377" y="435"/>
      <point x="340" y="436" type="curve"/>
      <point x="334" y="430"/>
      <point x="334" y="408"/>
      <point x="340" y="402" type="curve"/>
      <point x="376" y="399"/>
      <point x="395" y="394"/>
      <point x="395" y="379" type="curve" smooth="yes"/>
      <point x="395" y="355"/>
      <point x="340" y="293"/>
      <point x="317" y="277" type="curve" smooth="yes"/>
      <point x="298" y="264"/>
      <point x="253" y="250"/>
      <point x="212" y="250" type="curve"/>
    </contour>
  </outline>
</glyph>
<glyph name="l" format="2">
  <advance width="325"/>
  <unicode hex="006C"/>
  <anchor x="125" y="885" name="m.uni0302"/>
  <anchor x="135" y="-110" name="m.uni0316_2"/>
  <anchor x="249" y="733" name="m.uni031A_3"/>
  <outline>
    <contour>
      <point x="30" y="-2" type="curve"/>
      <point x="72" y="-1"/>
      <point x="114" y="0"/>
      <point x="167" y="0" type="curve"/>
      <point x="212.21" y="-0.66"/>
      <point x="258.79" y="-1"/>
      <point x="304" y="-2" type="curve"/>
      <point x="310" y="4.25"/>
      <point x="310" y="25.625"/>
      <point x="304" y="32" type="curve"/>
      <point x="243" y="35"/>
      <point x="232" y="39"/>
      <point x="232" y="122" type="curve"/>
      <point x="102" y="122" type="line"/>
      <point x="102" y="39"/>
      <point x="91" y="35"/>
      <point x="30" y="32" type="curve"/>
      <point x="24" y="25.625"/>
      <point x="24" y="4.25"/>
    </contour>
    <contour>
      <point x="102" y="122" type="line"/>
      <point x="232" y="122" type="line"/>
      <point x="232" y="576" type="line"/>
      <point x="102" y="576" type="line"/>
    </contour>
    <contour>
      <point x="102" y="576" type="curve"/>
      <point x="232" y="576" type="line"/>
      <point x="232" y="626"/>
      <point x="233" y="655"/>
      <point x="236" y="681" type="curve"/>
      <point x="236" y="692"/>
      <point x="227" y="698"/>
      <point x="213" y="698" type="curve"/>
      <point x="183" y="686"/>
      <point x="98" y="673"/>
      <point x="35" y="670" type="curve"/>
      <point x="33" y="664"/>
      <point x="35" y="642"/>
      <point x="37" y="636" type="curve"/>
      <point x="89.4149" y="631.235"/>
      <point x="102" y="620"/>
    </contour>
  </outline>
</glyph>
<glyph name="m" format="2">
  <advance width="905"/>
  <unicode hex="006D"/>
  <anchor x="392" y="645" name="m.uni0302"/>
  <anchor x="455" y="-110" name="m.uni0316_2"/>
  <outline>
    <contour>
      <point x="26" y="-2" type="curve"/>
      <point x="68" y="-1"/>
      <point x="110" y="0"/>
      <point x="163" y="0" type="curve" smooth="yes"/>
      <point x="209" y="0"/>
      <point x="237" y="-1"/>
      <point x="280" y="-2" type="curve"/>
      <point x="286" y="4"/>
      <point x="286" y="26"/>
      <point x="280" y="32" type="curve"/>
      <point x="238" y="36"/>
      <point x="228" y="39"/>
      <point x="228" y="122" type="curve"/>
      <point x="98" y="122" type="line"/>
      <point x="98" y="39"/>
      <point x="87" y="37"/>
      <point x="26" y="32" type="curve"/>
      <point x="20" y="26"/>
      <point x="20" y="4"/>
    </contour>
    <contour>
      <point x="337" y="-2" type="curve"/>
      <point x="379" y="-1"/>
      <point x="401" y="0"/>
      <point x="454" y="0" type="curve"/>
      <point x="499.21" y="-0.66"/>
      <point x="525.79" y="-1"/>
      <point x="571" y="-2" type="curve"/>
      <point x="577" y="4.25"/>
      <point x="577" y="25.625"/>
      <point x="571" y="32" type="curve"/>
      <point x="530" y="35"/>
      <point x="519" y="39"/>
      <point x="519" y="122" type="curve"/>
      <point x="389" y="122" type="line"/>
      <point x="389" y="39"/>
      <point x="378" y="35"/>
      <point x="337" y="32" type="curve"/>
      <point x="331" y="25.625"/>
      <point x="331" y="4.25"/>
    </contour>
    <contour>
      <point x="623" y="-2" type="curve"/>
      <point x="665" y="-1"/>
      <point x="697" y="0"/>
      <point x="745" y="0" type="curve" smooth="yes"/>
      <point x="800" y="0"/>
      <point x="844" y="-1"/>
      <point x="887" y="-2" type="curve"/>
      <point x="893" y="4"/>
      <point x="893" y="26"/>
      <point x="887" y="32" type="curve"/>
      <point x="826" y="35"/>
      <point x="810" y="39"/>
      <point x="810" y="122" type="curve"/>
      <point x="680" y="122" type="line"/>
      <point x="680" y="39"/>
      <point x="664" y="35"/>
      <point x="623" y="32" type="curve"/>
      <point x="617" y="26"/>
      <point x="617" y="4"/>
    </contour>
    <contour>
      <point x="680" y="122" type="line"/>
      <point x="810" y="122" type="line"/>
      <point x="810" y="282" type="line" smooth="yes"/>
      <point x="810" y="392"/>
      <point x="770" y="442"/>
      <point x="684" y="442" type="curve" smooth="yes"/>
      <point x="644" y="442"/>
      <point x="550" y="396"/>
      <point x="492" y="363" type="curve"/>
      <point x="499" y="328" type="line"/>
      <point x="540" y="352"/>
      <point x="594" y="368"/>
      <point x="612" y="368" type="curve" smooth="yes"/>
      <point x="652" y="368"/>
      <point x="680" y="350"/>
      <point x="680" y="293" type="curve" smooth="yes"/>
    </contour>
    <contour>
      <point x="389" y="122" type="line"/>
      <point x="519" y="122" type="line"/>
      <point x="519" y="282" type="line" smooth="yes"/>
      <point x="519" y="367"/>
      <point x="492" y="442"/>
      <point x="391" y="442" type="curve" smooth="yes"/>
      <point x="352" y="442"/>
      <point x="271" y="397"/>
      <point x="212" y="364" type="curve"/>
      <point x="210" y="322" type="line"/>
      <point x="256" y="355"/>
      <point x="299" y="368"/>
      <point x="319" y="368" type="curve" smooth="yes"/>
      <point x="359" y="368"/>
      <point x="389" y="350"/>
      <point x="389" y="293" type="curve" smooth="yes"/>
    </contour>
    <contour>
      <point x="98" y="122" type="line"/>
      <point x="228" y="122" type="line"/>
      <point x="228" y="319" type="line" smooth="yes"/>
      <point x="228" y="355"/>
      <point x="224" y="405"/>
      <point x="221" y="421" type="curve" smooth="yes"/>
      <point x="218" y="437"/>
      <point x="211" y="442"/>
      <point x="197" y="442" type="curve"/>
      <point x="160" y="432"/>
      <point x="100" y="418"/>
      <point x="31" y="409" type="curve"/>
      <point x="29" y="403"/>
      <point x="31" y="383"/>
      <point x="33" y="377" type="curve"/>
      <point x="88" y="372"/>
      <point x="98" y="364"/>
      <point x="98" y="307" type="curve" smooth="yes"/>
    </contour>
  </outline>
</glyph>
<glyph name="o" format="2">
	<unicode hex="006F"/>
	<advance width="551"/>
	<outline>
		<contour>
			<point x="37" y="207" type="curve" smooth="yes"/>
			<point x="37" y="72.8135"/>
			<point x="121.646" y="-10"/>
			<point x="258.801" y="-10" type="curve" smooth="yes"/>
			<point x="407.849" y="-10"/>
			<point x="514" y="82.834"/>
			<point x="514" y="213.183" type="curve" smooth="yes"/>
			<point x="514" y="357.212"/>
			<point x="429.445" y="444"/>
			<point x="289.122" y="444" type="curve" smooth="yes"/>
			<point x="139.322" y="444"/>
			<point x="37" y="347.815"/>
		</contour>
		<contour>
			<point x="268.073" y="402" type="curve" smooth="yes"/>
			<point x="336.868" y="402"/>
			<point x="374" y="317.518"/>
			<point x="374" y="184" type="curve" smooth="yes"/>
			<point x="374" y="91.0361"/>
			<point x="336.367" y="32"/>
			<point x="285.604" y="32" type="curve" smooth="yes"/>
			<point x="223.193" y="32"/>
			<point x="177" y="121.149"/>
			<point x="177" y="229" type="curve" smooth="yes"/>
			<point x="177" y="344.825"/>
			<point x="211.478" y="402"/>
		</contour>
	</outline>
	<anchor name="t.uni0302" x="260" y="500"/>
	<anchor name="t.uni0315_1" x="420" y="396"/>
	<anchor name="m.uni0316_2" x="243" y="-110"/>
	<anchor name="b.uni0321_4" x="372" y="44"/>
</glyph>
<glyph name="p" format="2">
  <advance width="589"/>
  <unicode hex="0070"/>
  <anchor x="260" y="500" name="t.uni0302"/>
  <anchor x="352" y="-60" name="b.minus-60"/>
  <outline>
    <contour>
      <point x="102" y="-110" type="line"/>
      <point x="232" y="-110" type="line"/>
      <point x="232" y="321" type="line" smooth="yes"/>
      <point x="232" y="356"/>
      <point x="228" y="392"/>
      <point x="224" y="427" type="curve"/>
      <point x="222" y="439"/>
      <point x="215" y="444"/>
      <point x="201" y="444" type="curve"/>
      <point x="164" y="434"/>
      <point x="104" y="420"/>
      <point x="35" y="411" type="curve"/>
      <point x="33" y="405"/>
      <point x="35" y="385"/>
      <point x="37" y="379" type="curve"/>
      <point x="92" y="374"/>
      <point x="102" y="366"/>
      <point x="102" y="309" type="curve" smooth="yes"/>
    </contour>
    <contour>
      <point x="217" y="15" type="line"/>
      <point x="245" y="-1"/>
      <point x="270" y="-10"/>
      <point x="299" y="-10" type="curve" smooth="yes"/>
      <point x="451" y="-10"/>
      <point x="550" y="90"/>
      <point x="550" y="237" type="curve" smooth="yes"/>
      <point x="550" y="358"/>
      <point x="475" y="444"/>
      <point x="353" y="444" type="curve" smooth="yes"/>
      <point x="324" y="444"/>
      <point x="270" y="409"/>
      <point x="235" y="377" type="curve"/>
      <point x="219" y="377" type="line"/>
      <point x="219" y="325" type="line"/>
      <point x="249" y="360"/>
      <point x="295" y="377"/>
      <point x="321" y="377" type="curve" smooth="yes"/>
      <point x="362" y="377"/>
      <point x="410" y="327"/>
      <point x="410" y="210" type="curve" smooth="yes"/>
      <point x="410" y="126"/>
      <point x="380" y="32"/>
      <point x="293" y="32" type="curve" smooth="yes"/>
      <point x="280" y="32"/>
      <point x="246" y="41"/>
      <point x="217" y="85" type="curve"/>
    </contour>
    <contour>
      <point x="30" y="-234" type="curve"/>
      <point x="72" y="-233"/>
      <point x="114" y="-232"/>
      <point x="167" y="-232" type="curve"/>
      <point x="212.21" y="-232.66"/>
      <point x="258.79" y="-233"/>
      <point x="304" y="-234" type="curve"/>
      <point x="310" y="-227.75"/>
      <point x="310" y="-206.375"/>
      <point x="304" y="-200" type="curve"/>
      <point x="243" y="-197"/>
      <point x="232" y="-193"/>
      <point x="232" y="-110" type="curve"/>
      <point x="102" y="-110" type="line"/>
      <point x="102" y="-193"/>
      <point x="91" y="-197"/>
      <point x="30" y="-200" type="curve"/>
      <point x="24" y="-206.375"/>
      <point x="24" y="-227.75"/>
    </contour>
  </outline>
</glyph>
<glyph name="q" format="2">
  <advance width="573"/>
  <unicode hex="0071"/>
  <anchor x="260" y="500" name="t.uni0302"/>
  <anchor x="352" y="-60" name="b.minus-60"/>
  <outline>
    <contour>
      <point x="36" y="208" type="curve" smooth="yes"/>
      <point x="36" y="80"/>
      <point x="112" y="-10"/>
      <point x="241" y="-10" type="curve" smooth="yes"/>
      <point x="268" y="-10"/>
      <point x="331" y="17"/>
      <point x="348" y="28" type="curve"/>
      <point x="362.869" y="28" type="line"/>
      <point x="362.869" y="81.212" type="line"/>
      <point x="349.605" y="60.711"/>
      <point x="302.555" y="46"/>
      <point x="288" y="46" type="curve" smooth="yes"/>
      <point x="238" y="46"/>
      <point x="176" y="82"/>
      <point x="176" y="229" type="curve" smooth="yes"/>
      <point x="176" y="329"/>
      <point x="220" y="402"/>
      <point x="285" y="402" type="curve" smooth="yes"/>
      <point x="309" y="402"/>
      <point x="331" y="393"/>
      <point x="353" y="366" type="curve"/>
      <point x="353" y="-120" type="line"/>
      <point x="483" y="-120" type="line"/>
      <point x="483" y="321" type="line" smooth="yes"/>
      <point x="483" y="371"/>
      <point x="485.552" y="413.276"/>
      <point x="487" y="427" type="curve"/>
      <point x="487" y="438"/>
      <point x="478" y="444"/>
      <point x="464" y="444" type="curve" smooth="yes"/>
      <point x="451" y="444"/>
      <point x="414" y="427"/>
      <point x="392" y="407" type="curve"/>
      <point x="370" y="424"/>
      <point x="336" y="444"/>
      <point x="288" y="444" type="curve" smooth="yes"/>
      <point x="155" y="444"/>
      <point x="36" y="341"/>
    </contour>
    <contour>
      <point x="281" y="-234" type="curve"/>
      <point x="323" y="-233"/>
      <point x="370" y="-232"/>
      <point x="423" y="-232" type="curve"/>
      <point x="423" y="-110" type="line"/>
      <point x="353" y="-110" type="line"/>
      <point x="353" y="-193"/>
      <point x="342" y="-197"/>
      <point x="281" y="-200" type="curve"/>
      <point x="275" y="-206"/>
      <point x="275" y="-228"/>
    </contour>
    <contour>
      <point x="413" y="-232" type="line"/>
      <point x="458" y="-233"/>
      <point x="510" y="-233"/>
      <point x="555" y="-234" type="curve"/>
      <point x="561" y="-228"/>
      <point x="561" y="-206"/>
      <point x="555" y="-200" type="curve"/>
      <point x="494" y="-197"/>
      <point x="483" y="-193"/>
      <point x="483" y="-110" type="curve"/>
      <point x="413" y="-110" type="line"/>
    </contour>
  </outline>
</glyph>
<glyph name="r" format="2">
  <advance width="427"/>
  <unicode hex="0072"/>
  <anchor x="259" y="500" name="t.uni0302"/>
  <anchor x="162" y="-60" name="b.minus-60"/>
  <outline>
    <contour>
      <point x="97" y="120" type="line"/>
      <point x="97" y="39"/>
      <point x="86" y="37"/>
      <point x="25" y="32" type="curve"/>
      <point x="19" y="26"/>
      <point x="19" y="4"/>
      <point x="25" y="-2" type="curve"/>
      <point x="67" y="-1"/>
      <point x="109" y="0"/>
      <point x="163" y="0" type="curve" smooth="yes"/>
      <point x="216" y="0"/>
      <point x="256" y="-1"/>
      <point x="299" y="-2" type="curve"/>
      <point x="305" y="4"/>
      <point x="305" y="26"/>
      <point x="299" y="32" type="curve"/>
      <point x="238" y="36"/>
      <point x="227" y="39"/>
      <point x="227" y="120" type="curve"/>
    </contour>
    <contour>
      <point x="227" y="120" type="line"/>
      <point x="227" y="268" type="line" smooth="yes"/>
      <point x="227" y="298"/>
      <point x="245" y="351"/>
      <point x="283" y="351" type="curve" smooth="yes"/>
      <point x="292" y="351"/>
      <point x="303" y="342"/>
      <point x="311" y="332" type="curve"/>
      <point x="318" y="324"/>
      <point x="335" y="316"/>
      <point x="358" y="316" type="curve" smooth="yes"/>
      <point x="387" y="316"/>
      <point x="415" y="346"/>
      <point x="415" y="388" type="curve" smooth="yes"/>
      <point x="415" y="414"/>
      <point x="385" y="444"/>
      <point x="349" y="444" type="curve" smooth="yes"/>
      <point x="314" y="444"/>
      <point x="276" y="414"/>
      <point x="230" y="348" type="curve"/>
      <point x="229.015" y="348"/>
      <point x="227.393" y="348"/>
      <point x="227" y="348" type="curve"/>
      <point x="225" y="378"/>
      <point x="220" y="427"/>
      <point x="220" y="427" type="curve"/>
      <point x="219" y="436"/>
      <point x="211" y="444"/>
      <point x="197" y="444" type="curve"/>
      <point x="149" y="432"/>
      <point x="96" y="418"/>
      <point x="30" y="411" type="curve"/>
      <point x="28" y="405"/>
      <point x="30" y="386"/>
      <point x="32" y="380" type="curve"/>
      <point x="87" y="375"/>
      <point x="97" y="366"/>
      <point x="97" y="309" type="curve" smooth="yes"/>
      <point x="97" y="120" type="line"/>
    </contour>
  </outline>
</glyph>
<glyph name="s" format="2">
  <advance width="427"/>
  <unicode hex="0073"/>
  <anchor x="206" y="500" name="t.uni0302"/>
  <anchor x="196" y="-110" name="m.uni0316_2"/>
  <anchor x="366" y="580" name="m.uni031A_3"/>
  <anchor x="290" y="13" name="b.uni0321_4"/>
  <outline>
    <contour>
      <point x="48" y="146" type="curve"/>
      <point x="52" y="97"/>
      <point x="52" y="36"/>
      <point x="60" y="-2" type="curve"/>
      <point x="65" y="0"/>
      <point x="72" y="1"/>
      <point x="81" y="1" type="curve" smooth="yes"/>
      <point x="95" y="1"/>
      <point x="113" y="-1"/>
      <point x="132" y="-4" type="curve" smooth="yes"/>
      <point x="154" y="-7"/>
      <point x="178" y="-10"/>
      <point x="199" y="-10" type="curve" smooth="yes"/>
      <point x="281" y="-10"/>
      <point x="377" y="32"/>
      <point x="377" y="126" type="curve" smooth="yes"/>
      <point x="377" y="189"/>
      <point x="330" y="228"/>
      <point x="280" y="257" type="curve" smooth="yes"/>
      <point x="238" y="281"/>
      <point x="176" y="295" name=".hr01"/>
      <point x="176" y="355" type="curve" smooth="yes"/>
      <point x="176" y="383"/>
      <point x="195" y="402"/>
      <point x="223" y="402" type="curve" smooth="yes"/>
      <point x="259" y="402"/>
      <point x="293" y="370"/>
      <point x="318" y="309" type="curve"/>
      <point x="331" y="306"/>
      <point x="339" y="307"/>
      <point x="347" y="314" type="curve"/>
      <point x="354" y="349"/>
      <point x="357" y="385"/>
      <point x="360" y="416" type="curve"/>
      <point x="319" y="423"/>
      <point x="288" y="444"/>
      <point x="218" y="444" type="curve" smooth="yes"/>
      <point x="122" y="444"/>
      <point x="63" y="395"/>
      <point x="63" y="314" type="curve" smooth="yes"/>
      <point x="63" y="256"/>
      <point x="112" y="217"/>
      <point x="156" y="187" type="curve" smooth="yes"/>
      <point x="197" y="159"/>
      <point x="261" y="141"/>
      <point x="261" y="81" type="curve" smooth="yes"/>
      <point x="261" y="46"/>
      <point x="229" y="29"/>
      <point x="202" y="29" type="curve" smooth="yes"/>
      <point x="157" y="29"/>
      <point x="109" y="75"/>
      <point x="88" y="148" type="curve" name=".hr02"/>
      <point x="72" y="151"/>
      <point x="64" y="150"/>
    </contour>
  </outline>
</glyph>
<glyph name="z" format="2">
  <advance width="452"/>
  <unicode hex="007A"/>
  <anchor x="260" y="500" name="t.uni0302"/>
  <anchor x="191" y="-60" name="b.minus-60"/>
  <outline>
    <contour>
      <point x="61" y="446" type="curve"/>
      <point x="59" y="446"/>
      <point x="55" y="442"/>
      <point x="55" y="440" type="curve"/>
      <point x="54" y="395"/>
      <point x="48" y="350"/>
      <point x="40" y="301" type="curve"/>
      <point x="49" y="297"/>
      <point x="71" y="295"/>
      <point x="83" y="298" type="curve"/>
      <point x="103" y="371"/>
      <point x="134" y="393"/>
      <point x="164" y="394" type="curve" smooth="yes"/>
      <point x="266" y="397" type="line"/>
      <point x="268" y="395" type="line"/>
      <point x="26" y="32" type="line" smooth="yes"/>
      <point x="18" y="20"/>
      <point x="17" y="17"/>
      <point x="17" y="12" type="curve" smooth="yes"/>
      <point x="17" y="5"/>
      <point x="25" y="0.111"/>
      <point x="40" y="0" type="curve" smooth="yes"/>
      <point x="174.689" y="-1" type="line"/>
      <point x="175" y="42" type="line"/>
      <point x="416" y="405" type="line" smooth="yes"/>
      <point x="424" y="417"/>
      <point x="427" y="428"/>
      <point x="427" y="431" type="curve" smooth="yes"/>
      <point x="427" y="435"/>
      <point x="422" y="438"/>
      <point x="415" y="438" type="curve" smooth="yes"/>
      <point x="410" y="438"/>
      <point x="342" y="436"/>
      <point x="313" y="436" type="curve" smooth="yes"/>
      <point x="120" y="436" type="line" smooth="yes"/>
      <point x="88" y="436"/>
      <point x="79" y="443"/>
    </contour>
    <contour>
      <point x="175" y="39" type="line"/>
      <point x="175" y="-1" type="line"/>
      <point x="392" y="-3" type="line"/>
      <point x="404" y="31"/>
      <point x="417" y="83"/>
      <point x="424" y="133" type="curve"/>
      <point x="418" y="137"/>
      <point x="396" y="139"/>
      <point x="384" y="139" type="curve"/>
      <point x="370" y="110" type="line" smooth="yes"/>
      <point x="345" y="57"/>
      <point x="324" y="39"/>
      <point x="272" y="39" type="curve" smooth="yes"/>
    </contour>
  </outline>
</glyph>
<glyph name="bar" format="2">
  <advance width="180"/>
  <unicode hex="007C"/>
  <outline>
    <contour>
      <point x="120" y="-240" type="curve"/>
      <point x="120" y="720" type="line"/>
      <point x="106.2" y="726"/>
      <point x="73.8" y="726"/>
      <point x="60" y="720" type="curve"/>
      <point x="60" y="-240" type="line"/>
      <point x="73.8" y="-246"/>
      <point x="106.2" y="-246"/>
    </contour>
  </outline>
  <guideline angle="0" x="0" y="720"/>
  <guideline angle="0" x="0" y="-240"/>
</glyph>
<glyph name="braceright" format="2">
  <advance width="307"/>
  <unicode hex="007D"/>
  <outline>
    <contour>
      <point x="99" y="-56" type="line" smooth="yes"/>
      <point x="103.964" y="-159.002"/>
      <point x="57" y="-176"/>
      <point x="19" y="-187" type="curve"/>
      <point x="13" y="-193"/>
      <point x="13" y="-205"/>
      <point x="19" y="-211" type="curve"/>
      <point x="109" y="-211"/>
      <point x="204.685" y="-171.011"/>
      <point x="201" y="-58" type="curve" smooth="yes"/>
      <point x="195" y="126" type="line"/>
      <point x="195" y="176"/>
      <point x="219" y="226"/>
      <point x="293" y="233" type="curve"/>
      <point x="302" y="242"/>
      <point x="301" y="257"/>
      <point x="293" y="265" type="curve"/>
      <point x="220" y="274"/>
      <point x="192.847" y="314.005"/>
      <point x="195" y="375" type="curve" smooth="yes"/>
      <point x="201" y="545" type="line" smooth="yes"/>
      <point x="205.589" y="675.015"/>
      <point x="120" y="708"/>
      <point x="19" y="708" type="curve"/>
      <point x="13" y="702"/>
      <point x="13" y="690"/>
      <point x="19" y="684" type="curve"/>
      <point x="63" y="684"/>
      <point x="103.512" y="634.028"/>
      <point x="99" y="550" type="curve" smooth="yes"/>
      <point x="91" y="401" type="line" smooth="yes"/>
      <point x="86.598" y="319.021"/>
      <point x="128" y="279"/>
      <point x="196" y="251" type="curve"/>
      <point x="196" y="247" type="line"/>
      <point x="129" y="228"/>
      <point x="86.711" y="198.987"/>
      <point x="91" y="110" type="curve" smooth="yes"/>
    </contour>
  </outline>
</glyph>
<glyph name="asciitilde" format="2">
  <advance width="477"/>
  <unicode hex="007E"/>
  <outline>
    <contour>
      <point x="159" y="268" type="curve" smooth="yes"/>
      <point x="227.38" y="268"/>
      <point x="263.712" y="207"/>
      <point x="334.071" y="207" type="curve" smooth="yes"/>
      <point x="398.238" y="207"/>
      <point x="431.863" y="235.721"/>
      <point x="457" y="312" type="curve"/>
      <point x="451.705" y="327.886"/>
      <point x="446.666" y="338.778"/>
      <point x="431" y="344" type="curve"/>
      <point x="408.137" y="295.912"/>
      <point x="370.071" y="280"/>
      <point x="342.071" y="280" type="curve" smooth="yes"/>
      <point x="288.965" y="280"/>
      <point x="248.885" y="341"/>
      <point x="167" y="341" type="curve" smooth="yes"/>
      <point x="112.208" y="341"/>
      <point x="49.343" y="298.458"/>
      <point x="20.908" y="223.774" type="curve"/>
      <point x="25.166" y="215.316"/>
      <point x="41.364" y="204"/>
      <point x="53" y="204" type="curve"/>
      <point x="72.074" y="244.531"/>
      <point x="111.188" y="268"/>
    </contour>
  </outline>
</glyph>
<glyph name="copyright" format="2">
  <advance width="641"/>
  <unicode hex="00A9"/>
  <outline>
    <contour>
      <point x="321" y="17" type="curve" smooth="yes"/>
      <point x="486.063" y="17"/>
      <point x="609" y="140.89"/>
      <point x="609" y="306.502" type="curve" smooth="yes"/>
      <point x="609" y="471.099"/>
      <point x="486.099" y="594"/>
      <point x="321" y="594" type="curve" smooth="yes"/>
      <point x="155.901" y="594"/>
      <point x="32" y="471.052"/>
      <point x="32" y="306.502" type="curve" smooth="yes"/>
      <point x="32" y="140.869"/>
      <point x="155.869" y="17"/>
    </contour>
    <contour>
      <point x="321" y="544" type="curve" smooth="yes"/>
      <point x="455.96" y="544"/>
      <point x="557" y="442.007"/>
      <point x="557" y="306.502" type="curve" smooth="yes"/>
      <point x="557" y="169.993"/>
      <point x="455.914" y="67"/>
      <point x="321" y="67" type="curve" smooth="yes"/>
      <point x="186.019" y="67"/>
      <point x="84" y="169.972"/>
      <point x="84" y="306.502" type="curve" smooth="yes"/>
      <point x="84" y="442.028"/>
      <point x="185.972" y="544"/>
    </contour>
    <contour>
      <point x="444.6" y="209.4" type="curve"/>
      <point x="440.2" y="216"/>
      <point x="435.8" y="222.6"/>
      <point x="425.9" y="225.9" type="curve"/>
      <point x="414.9" y="209.4"/>
      <point x="394" y="187.4"/>
      <point x="343.4" y="187.4" type="curve" smooth="yes"/>
      <point x="294.195" y="187.4"/>
      <point x="263.1" y="232.747"/>
      <point x="263.1" y="305.1" type="curve" smooth="yes"/>
      <point x="263.1" y="378.146"/>
      <point x="291.759" y="428.3"/>
      <point x="333.5" y="428.3" type="curve" smooth="yes"/>
      <point x="380.8" y="428.3"/>
      <point x="394" y="411.8"/>
      <point x="419.3" y="362.3" type="curve"/>
      <point x="427" y="362.3"/>
      <point x="434.7" y="362.3"/>
      <point x="439.1" y="365.6" type="curve"/>
      <point x="435.929" y="393.028"/>
      <point x="435.704" y="419.005"/>
      <point x="439.828" y="445.075" type="curve"/>
      <point x="438.373" y="446.725" type="line"/>
      <point x="417.877" y="447.475"/>
      <point x="391.8" y="464.6"/>
      <point x="322.5" y="464.6" type="curve" smooth="yes"/>
      <point x="230.68" y="464.6"/>
      <point x="167.4" y="399.973"/>
      <point x="167.4" y="306.2" type="curve" smooth="yes"/>
      <point x="167.4" y="210.505"/>
      <point x="234.052" y="143.4"/>
      <point x="329.1" y="143.4" type="curve" smooth="yes"/>
      <point x="383" y="143.4"/>
      <point x="424.8" y="176.4"/>
    </contour>
  </outline>
</glyph>
<glyph name="ordfeminine" format="2">
  <advance width="297"/>
  <unicode hex="00AA"/>
  <outline>
    <contour>
      <point x="171" y="519" type="curve"/>
      <point x="129.461" y="509" type="line" smooth="yes"/>
      <point x="86.9807" y="498.913"/>
      <point x="15" y="470.052"/>
      <point x="15" y="418" type="curve" smooth="yes"/>
      <point x="15" y="367.161"/>
      <point x="44.4573" y="348"/>
      <point x="92.75" y="348" type="curve" smooth="yes"/>
      <point x="112.237" y="348"/>
      <point x="147.697" y="357"/>
      <point x="171.974" y="381" type="curve"/>
      <point x="174.895" y="357"/>
      <point x="189.5" y="348"/>
      <point x="215.79" y="348" type="curve" smooth="yes"/>
      <point x="235.263" y="348"/>
      <point x="271.232" y="363.291"/>
      <point x="285" y="376" type="curve"/>
      <point x="284.755" y="382.916"/>
      <point x="279.804" y="389.572"/>
      <point x="275" y="392" type="curve"/>
      <point x="272" y="390"/>
      <point x="263" y="386" name=".hr01"/>
      <point x="259" y="386" type="curve" smooth="yes"/>
      <point x="250" y="386"/>
      <point x="245" y="389.988"/>
      <point x="245" y="433" type="curve" smooth="yes"/>
      <point x="245" y="526" type="line" smooth="yes"/>
      <point x="245" y="610.928"/>
      <point x="214.453" y="645"/>
      <point x="138.579" y="645" type="curve" smooth="yes"/>
      <point x="86" y="645"/>
      <point x="20" y="609"/>
      <point x="20" y="569" type="curve" smooth="yes"/>
      <point x="20" y="548.963"/>
      <point x="35.2445" y="537"/>
      <point x="54" y="537" type="curve" smooth="yes"/>
      <point x="68.268" y="537"/>
      <point x="94" y="543.562"/>
      <point x="94" y="560.745" type="curve" smooth="yes"/>
      <point x="94" y="576.332"/>
      <point x="88" y="589.463"/>
      <point x="88" y="598.482" type="curve" smooth="yes"/>
      <point x="88" y="608.984"/>
      <point x="96.0666" y="615"/>
      <point x="120.14" y="615" type="curve" smooth="yes"/>
      <point x="143.443" y="615"/>
      <point x="171" y="595.998"/>
    </contour>
    <contour>
      <point x="171" y="408" type="line"/>
      <point x="152.763" y="391"/>
      <point x="141.618" y="385"/>
      <point x="123.382" y="385" type="curve" smooth="yes" name=".hr02"/>
      <point x="97.0395" y="385"/>
      <point x="89" y="400"/>
      <point x="89" y="421" type="curve" smooth="yes"/>
      <point x="89" y="440"/>
      <point x="105.145" y="471"/>
      <point x="171" y="492" type="curve"/>
    </contour>
  </outline>
</glyph>
<glyph name="guillemotleft" format="2">
  <advance width="555"/>
  <unicode hex="00AB"/>
  <outline>
    <contour>
      <point x="74" y="207" type="line"/>
      <point x="143" y="146"/>
      <point x="187" y="107"/>
      <point x="258" y="23" type="curve"/>
      <point x="268" y="26"/>
      <point x="282" y="35"/>
      <point x="287" y="45" type="curve"/>
      <point x="248" y="121"/>
      <point x="214" y="176"/>
      <point x="183" y="215" type="curve"/>
      <point x="214" y="254"/>
      <point x="248" y="310"/>
      <point x="287" y="385" type="curve"/>
      <point x="282" y="395"/>
      <point x="268" y="404"/>
      <point x="258" y="407" type="curve"/>
      <point x="187" y="323"/>
      <point x="143" y="284"/>
      <point x="74" y="223" type="curve"/>
    </contour>
    <contour>
      <point x="262" y="207" type="line"/>
      <point x="331" y="146"/>
      <point x="375" y="107"/>
      <point x="446" y="23" type="curve"/>
      <point x="456" y="26"/>
      <point x="470" y="35"/>
      <point x="475" y="45" type="curve"/>
      <point x="436" y="121"/>
      <point x="402" y="176"/>
      <point x="371" y="215" type="curve"/>
      <point x="402" y="254"/>
      <point x="436" y="310"/>
      <point x="475" y="385" type="curve"/>
      <point x="470" y="395"/>
      <point x="456" y="404"/>
      <point x="446" y="407" type="curve"/>
      <point x="375" y="323"/>
      <point x="331" y="284"/>
      <point x="262" y="223" type="curve"/>
    </contour>
  </outline>
</glyph>
<glyph name="logicalnot" format="2">
  <advance width="560"/>
  <unicode hex="00AC"/>
  <outline>
    <contour>
      <point x="169" y="353" type="line"/>
      <point x="169" y="401" type="line"/>
      <point x="42" y="401" type="line" smooth="yes"/>
      <point x="33" y="401"/>
      <point x="17" y="391"/>
      <point x="17" y="370" type="curve" smooth="yes"/>
      <point x="17" y="362"/>
      <point x="20" y="353"/>
      <point x="27" y="353" type="curve" smooth="yes"/>
    </contour>
    <contour>
      <point x="463" y="133" type="line"/>
      <point x="487.42" y="127"/>
      <point x="512.58" y="127"/>
      <point x="537" y="133" type="curve"/>
      <point x="537" y="401" type="line"/>
      <point x="144" y="401" type="line"/>
      <point x="144" y="353" type="line"/>
      <point x="463" y="353" type="line"/>
    </contour>
  </outline>
</glyph>
<glyph name="uni00B2" format="2">
  <advance width="317"/>
  <unicode hex="00B2"/>
  <outline>
    <contour>
      <point x="26" y="735" type="curve" smooth="yes"/>
      <point x="26" y="705.426"/>
      <point x="36.6163" y="692"/>
      <point x="60" y="692" type="curve" smooth="yes"/>
      <point x="86.214" y="692"/>
      <point x="104" y="708.169"/>
      <point x="104" y="732" type="curve" smooth="yes"/>
      <point x="104" y="741.07"/>
      <point x="102.602" y="760.307"/>
      <point x="105" y="770" type="curve"/>
      <point x="112.438" y="782.927"/>
      <point x="123.148" y="788"/>
      <point x="143" y="788" type="curve" smooth="yes"/>
      <point x="173.959" y="788"/>
      <point x="188.28" y="769.074"/>
      <point x="188.28" y="728.158" type="curve" smooth="yes"/>
      <point x="188.28" y="693.994"/>
      <point x="171.466" y="656.15"/>
      <point x="146" y="633" type="curve" smooth="yes"/>
      <point x="124" y="613" type="line" smooth="yes"/>
      <point x="53.7742" y="549.158"/>
      <point x="24.1337" y="509.784"/>
      <point x="24.235" y="480.473" type="curve" smooth="yes"/>
      <point x="24.2554" y="474.579"/>
      <point x="25.5083" y="469.097"/>
      <point x="28" y="464" type="curve"/>
      <point x="264" y="464" type="line"/>
      <point x="270.274" y="495.948"/>
      <point x="281.5" y="539.689"/>
      <point x="293" y="577" type="curve"/>
      <point x="288.488" y="580.61"/>
      <point x="277.333" y="583"/>
      <point x="265" y="583" type="curve"/>
      <point x="251.356" y="545.789"/>
      <point x="224.968" y="521"/>
      <point x="199" y="521" type="curve" smooth="yes"/>
      <point x="117" y="521" type="line"/>
      <point x="119.88" y="537.168"/>
      <point x="141.011" y="563.581"/>
      <point x="173" y="591" type="curve" smooth="yes"/>
      <point x="187" y="603" type="line" smooth="yes"/>
      <point x="256.037" y="662.174"/>
      <point x="277.496" y="691.696"/>
      <point x="277.496" y="727.496" type="curve" smooth="yes"/>
      <point x="277.496" y="786.854"/>
      <point x="236.029" y="818"/>
      <point x="157" y="818" type="curve" smooth="yes"/>
      <point x="95.4036" y="818"/>
      <point x="26" y="774.027"/>
    </contour>
  </outline>
  <guideline angle="0" x="0" y="460"/>
  <guideline angle="0" x="0" y="464"/>
</glyph>
<glyph name="uni00B3" format="2">
  <advance width="333"/>
  <unicode hex="00B3"/>
  <outline>
    <contour>
      <point x="197" y="639" type="curve" smooth="yes"/>
      <point x="197" y="596"/>
      <point x="149" y="562"/>
      <point x="105" y="556" type="curve"/>
      <point x="105" y="546"/>
      <point x="105" y="536"/>
      <point x="105" y="526" type="curve"/>
      <point x="118" y="529"/>
      <point x="130" y="530"/>
      <point x="139" y="530" type="curve" smooth="yes"/>
      <point x="180" y="530"/>
      <point x="214" y="518" name=".hr01"/>
      <point x="214" y="474" type="curve" smooth="yes"/>
      <point x="214" y="429.97"/>
      <point x="181.791" y="388"/>
      <point x="148" y="388" type="curve" smooth="yes"/>
      <point x="125.655" y="388"/>
      <point x="116.764" y="390.291"/>
      <point x="106.512" y="405.725" type="curve"/>
      <point x="100.496" y="431.424"/>
      <point x="85.273" y="444"/>
      <point x="61" y="444" type="curve" smooth="yes"/>
      <point x="40.7593" y="444"/>
      <point x="24" y="429.114"/>
      <point x="24" y="408" type="curve" smooth="yes"/>
      <point x="24" y="363.553"/>
      <point x="108.656" y="358"/>
      <point x="138" y="358" type="curve" smooth="yes"/>
      <point x="228" y="358"/>
      <point x="309" y="406"/>
      <point x="309" y="482" type="curve" smooth="yes"/>
      <point x="309" y="536"/>
      <point x="273" y="556"/>
      <point x="236" y="567" type="curve"/>
      <point x="234" y="568"/>
      <point x="235" y="570"/>
      <point x="236" y="571" type="curve"/>
      <point x="265" y="590"/>
      <point x="283" y="619" name=".hr02"/>
      <point x="283" y="644" type="curve" smooth="yes"/>
      <point x="283" y="686"/>
      <point x="237" y="718"/>
      <point x="172" y="718" type="curve" smooth="yes"/>
      <point x="69" y="718"/>
      <point x="35" y="656"/>
      <point x="35" y="637" type="curve" smooth="yes"/>
      <point x="35" y="633"/>
      <point x="36" y="609"/>
      <point x="68" y="609" type="curve" smooth="yes"/>
      <point x="97" y="609"/>
      <point x="108" y="635"/>
      <point x="108" y="649" type="curve"/>
      <point x="110" y="672"/>
      <point x="133" y="688"/>
      <point x="155" y="688" type="curve" smooth="yes"/>
      <point x="177" y="688"/>
      <point x="197" y="668"/>
    </contour>
  </outline>
</glyph>
<glyph name="mu" format="2">
  <advance width="559"/>
  <unicode hex="00B5"/>
  <outline>
    <contour>
      <point x="343" y="49" type="line"/>
      <point x="350" y="8"/>
      <point x="377" y="-10"/>
      <point x="421" y="-10" type="curve" smooth="yes"/>
      <point x="473.386" y="-10"/>
      <point x="518.09" y="9.354"/>
      <point x="556" y="46" type="curve"/>
      <point x="556" y="58"/>
      <point x="550" y="64"/>
      <point x="538" y="74" type="curve"/>
      <point x="522.809" y="63.366"/>
      <point x="514.04" y="60"/>
      <point x="496" y="60" type="curve" smooth="yes"/>
      <point x="474" y="60"/>
      <point x="464" y="78"/>
      <point x="464" y="127" type="curve" smooth="yes"/>
      <point x="464" y="448" type="line"/>
      <point x="421.231" y="447"/>
      <point x="378.64" y="436.042"/>
      <point x="334" y="434" type="curve"/>
      <point x="334" y="98" type="line"/>
      <point x="312" y="68"/>
      <point x="261" y="53"/>
      <point x="220" y="53" type="curve" smooth="yes"/>
      <point x="185" y="53"/>
      <point x="177" y="97"/>
      <point x="177" y="160" type="curve" smooth="yes"/>
      <point x="177" y="343" type="line" smooth="yes"/>
      <point x="177" y="375"/>
      <point x="174.708" y="434"/>
      <point x="174" y="447" type="curve"/>
      <point x="125.448" y="447"/>
      <point x="86.269" y="435.996"/>
      <point x="36" y="434" type="curve"/>
      <point x="38.588" y="420.319"/>
      <point x="47" y="348"/>
      <point x="47" y="323" type="curve" smooth="yes"/>
      <point x="47" y="155.38" type="line" smooth="yes"/>
      <point x="47" y="130.38"/>
      <point x="54.565" y="75.172"/>
      <point x="61" y="46" type="curve" smooth="yes"/>
      <point x="64" y="32.4"/>
      <point x="64" y="10"/>
      <point x="64" y="-4" type="curve" smooth="yes"/>
      <point x="64" y="-40"/>
      <point x="58" y="-66"/>
      <point x="54" y="-92" type="curve" smooth="yes"/>
      <point x="50" y="-118"/>
      <point x="47" y="-142"/>
      <point x="47" y="-163" type="curve" smooth="yes"/>
      <point x="47" y="-204.827"/>
      <point x="75.748" y="-232"/>
      <point x="120" y="-232" type="curve" smooth="yes"/>
      <point x="157.109" y="-232"/>
      <point x="183" y="-205.698"/>
      <point x="183" y="-168" type="curve" smooth="yes"/>
      <point x="183" y="-151"/>
      <point x="178.543" y="-118"/>
      <point x="171" y="-96" type="curve" smooth="yes"/>
      <point x="163.336" y="-73.647"/>
      <point x="158.408" y="-21.656"/>
      <point x="158.408" y="4.208" type="curve"/>
      <point x="174.434" y="-4.902"/>
      <point x="196.535" y="-10"/>
      <point x="212" y="-10" type="curve" smooth="yes"/>
      <point x="267" y="-10"/>
      <point x="309.257" y="15.791"/>
      <point x="339" y="49" type="curve"/>
    </contour>
  </outline>
</glyph>
<glyph name="uni00B9" format="2">
  <advance width="300"/>
  <unicode hex="00B9"/>
  <outline>
    <contour>
      <point x="95" y="640" type="curve" smooth="yes"/>
      <point x="107" y="640"/>
      <point x="109" y="631"/>
      <point x="109" y="599" type="curve" smooth="yes"/>
      <point x="109" y="449" type="line" smooth="yes"/>
      <point x="109" y="398"/>
      <point x="78" y="395"/>
      <point x="38" y="393" type="curve"/>
      <point x="33" y="385"/>
      <point x="34" y="369"/>
      <point x="38" y="363" type="curve"/>
      <point x="68" y="364"/>
      <point x="118" y="364"/>
      <point x="153" y="364" type="curve" smooth="yes"/>
      <point x="192" y="364"/>
      <point x="222" y="364"/>
      <point x="252" y="363" type="curve"/>
      <point x="256" y="370"/>
      <point x="256" y="385"/>
      <point x="252" y="393" type="curve"/>
      <point x="218" y="395"/>
      <point x="197" y="398"/>
      <point x="197" y="449" type="curve" smooth="yes"/>
      <point x="197" y="597.566" type="line" smooth="yes"/>
      <point x="197" y="633.392"/>
      <point x="197" y="668.626"/>
      <point x="201.002" y="711.919" type="curve"/>
      <point x="198.263" y="716.391"/>
      <point x="189.716" y="717.656"/>
      <point x="181.627" y="717.68" type="curve" smooth="yes"/>
      <point x="173.539" y="717.704"/>
      <point x="167.196" y="716.991"/>
      <point x="165" y="716" type="curve"/>
      <point x="138.919" y="701.963"/>
      <point x="77.5916" y="671.282"/>
      <point x="28" y="658" type="curve"/>
      <point x="28" y="646"/>
      <point x="30" y="631"/>
      <point x="38" y="625" type="curve"/>
      <point x="63" y="634"/>
      <point x="82" y="640"/>
    </contour>
  </outline>
  <guideline angle="0" x="0" y="647"/>
  <guideline angle="0" x="0" y="657"/>
  <guideline angle="90" x="163" y="0"/>
  <guideline angle="0" x="0" y="717"/>
</glyph>
<glyph name="guillemotright" format="2">
	<unicode hex="00BB"/>
	<advance width="555"/>
	<outline>
		<contour>
			<point x="293" y="223" type="line"/>
			<point x="225" y="284"/>
			<point x="180" y="323"/>
			<point x="109" y="407" type="curve"/>
			<point x="100" y="404"/>
			<point x="85" y="395"/>
			<point x="80" y="385" type="curve"/>
			<point x="120" y="310"/>
			<point x="153" y="254"/>
			<point x="184" y="215" type="curve"/>
			<point x="153" y="176"/>
			<point x="120" y="121"/>
			<point x="80" y="45" type="curve"/>
			<point x="85" y="35"/>
			<point x="100" y="26"/>
			<point x="109" y="23" type="curve"/>
			<point x="180" y="107"/>
			<point x="225" y="146"/>
			<point x="293" y="207" type="curve"/>
		</contour>
		<contour>
			<point x="481" y="223" type="line"/>
			<point x="413" y="284"/>
			<point x="368" y="323"/>
			<point x="297" y="407" type="curve"/>
			<point x="288" y="404"/>
			<point x="273" y="395"/>
			<point x="268" y="385" type="curve"/>
			<point x="308" y="310"/>
			<point x="341" y="254"/>
			<point x="372" y="215" type="curve"/>
			<point x="341" y="176"/>
			<point x="308" y="121"/>
			<point x="268" y="45" type="curve"/>
			<point x="273" y="35"/>
			<point x="288" y="26"/>
			<point x="297" y="23" type="curve"/>
			<point x="368" y="107"/>
			<point x="413" y="146"/>
			<point x="481" y="207" type="curve"/>
		</contour>
	</outline>
</glyph>
<glyph name="onequarter" format="2">
  <advance width="600"/>
  <unicode hex="00BC"/>
  <outline>
    <component base="uni2074" xOffset="253.626" yOffset="-363.903"/>
    <contour>
      <point x="95" y="579.536" type="curve" smooth="yes"/>
      <point x="107" y="579.536"/>
      <point x="109" y="570.536"/>
      <point x="109" y="538.536" type="curve" smooth="yes"/>
      <point x="109" y="388.536" type="line" smooth="yes"/>
      <point x="109" y="337.536"/>
      <point x="78" y="334.536"/>
      <point x="38" y="332.536" type="curve"/>
      <point x="33" y="324.536"/>
      <point x="34" y="308.536"/>
      <point x="38" y="302.536" type="curve"/>
      <point x="68" y="303.536"/>
      <point x="118" y="303.536"/>
      <point x="153" y="303.536" type="curve" smooth="yes"/>
      <point x="192" y="303.536"/>
      <point x="222" y="303.536"/>
      <point x="252" y="302.536" type="curve"/>
      <point x="256" y="309.536"/>
      <point x="256" y="324.536"/>
      <point x="252" y="332.536" type="curve"/>
      <point x="218" y="334.536"/>
      <point x="197" y="337.536"/>
      <point x="197" y="388.536" type="curve" smooth="yes"/>
      <point x="197" y="537.103" type="line" smooth="yes"/>
      <point x="197" y="572.928"/>
      <point x="197" y="608.162"/>
      <point x="201.002" y="651.455" type="curve"/>
      <point x="198.263" y="655.928"/>
      <point x="189.716" y="657.192"/>
      <point x="181.627" y="657.216" type="curve" smooth="yes"/>
      <point x="173.539" y="657.241"/>
      <point x="167.196" y="656.528"/>
      <point x="165" y="655.536" type="curve"/>
      <point x="138.919" y="641.499"/>
      <point x="77.5916" y="610.818"/>
      <point x="28" y="597.536" type="curve"/>
      <point x="28" y="585.536"/>
      <point x="30" y="570.536"/>
      <point x="38" y="564.536" type="curve"/>
      <point x="63" y="573.536"/>
      <point x="82" y="579.536"/>
    </contour>
    <contour>
      <point x="544.157" y="657" type="line"/>
      <point x="77.7664" y="-10" type="line"/>
      <point x="118.766" y="-10" type="line"/>
      <point x="586.157" y="657" type="line"/>
    </contour>
  </outline>
</glyph>
<glyph name="onehalf" format="2">
  <advance width="675"/>
  <unicode hex="00BD"/>
  <outline>
    <contour>
      <point x="95" y="579" type="curve" smooth="yes"/>
      <point x="106" y="579"/>
      <point x="109" y="572"/>
      <point x="109" y="538" type="curve" smooth="yes"/>
      <point x="109" y="388" type="line" smooth="yes"/>
      <point x="109" y="348"/>
      <point x="93" y="335"/>
      <point x="38" y="332" type="curve"/>
      <point x="34" y="325"/>
      <point x="34" y="309"/>
      <point x="38" y="302" type="curve"/>
      <point x="59" y="303"/>
      <point x="93" y="303"/>
      <point x="153" y="303" type="curve" smooth="yes"/>
      <point x="207" y="303"/>
      <point x="229" y="303"/>
      <point x="252" y="302" type="curve"/>
      <point x="256" y="309"/>
      <point x="256" y="324"/>
      <point x="252" y="332" type="curve"/>
      <point x="208" y="335"/>
      <point x="197" y="346"/>
      <point x="197" y="388" type="curve" smooth="yes"/>
      <point x="197" y="537" type="line" smooth="yes"/>
      <point x="197" y="590"/>
      <point x="197.998" y="618.081"/>
      <point x="201" y="651" type="curve"/>
      <point x="199" y="655"/>
      <point x="192.376" y="657.181"/>
      <point x="182" y="657" type="curve" smooth="yes"/>
      <point x="174.001" y="656.861"/>
      <point x="167" y="656"/>
      <point x="165" y="655" type="curve" smooth="yes"/>
      <point x="118" y="630"/>
      <point x="62" y="606"/>
      <point x="28" y="597" type="curve"/>
      <point x="28" y="581"/>
      <point x="32" y="569"/>
      <point x="38" y="564" type="curve"/>
      <point x="68" y="575"/>
      <point x="84" y="579"/>
    </contour>
    <contour>
      <point x="544.157" y="657" type="line"/>
      <point x="77.766" y="-10" type="line"/>
      <point x="118.766" y="-10" type="line"/>
      <point x="586.157" y="657" type="line"/>
    </contour>
    <contour>
      <point x="384" y="262" type="curve" smooth="yes"/>
      <point x="384" y="242"/>
      <point x="398" y="228"/>
      <point x="420" y="228" type="curve" smooth="yes"/>
      <point x="445" y="228"/>
      <point x="462" y="245"/>
      <point x="462" y="268" type="curve" smooth="yes"/>
      <point x="462" y="277"/>
      <point x="461" y="296"/>
      <point x="463" y="306" type="curve"/>
      <point x="470" y="319"/>
      <point x="480.519" y="324"/>
      <point x="498" y="324" type="curve" smooth="yes"/>
      <point x="531" y="324"/>
      <point x="545.866" y="304.961"/>
      <point x="546" y="269" type="curve" smooth="yes"/>
      <point x="546.146" y="230"/>
      <point x="529.136" y="191.851"/>
      <point x="504" y="169" type="curve" smooth="yes"/>
      <point x="482" y="149" type="line" smooth="yes"/>
      <point x="411.819" y="85.199"/>
      <point x="381.805" y="45.527"/>
      <point x="382" y="16" type="curve" smooth="yes"/>
      <point x="382.04" y="10"/>
      <point x="384" y="5"/>
      <point x="386" y="0" type="curve"/>
      <point x="622" y="0" type="line"/>
      <point x="628" y="32"/>
      <point x="639" y="76"/>
      <point x="651" y="113" type="curve"/>
      <point x="646" y="117"/>
      <point x="635" y="119"/>
      <point x="623" y="119" type="curve"/>
      <point x="609" y="82"/>
      <point x="583" y="57"/>
      <point x="557" y="57" type="curve" smooth="yes"/>
      <point x="475" y="57" type="line"/>
      <point x="478" y="73"/>
      <point x="499.211" y="99.752"/>
      <point x="531" y="127" type="curve" smooth="yes"/>
      <point x="545" y="139" type="line" smooth="yes"/>
      <point x="613.929" y="198.082"/>
      <point x="634.793" y="228.488"/>
      <point x="635" y="268" type="curve" smooth="yes"/>
      <point x="635.288" y="323"/>
      <point x="594" y="354"/>
      <point x="515" y="354" type="curve" smooth="yes"/>
      <point x="452" y="354"/>
      <point x="384" y="306"/>
    </contour>
  </outline>
</glyph>
<glyph name="Eth" format="2">
  <advance width="734"/>
  <unicode hex="00D0"/>
  <anchor x="341" y="850" name="m.uni0302"/>
  <outline>
    <contour>
      <point x="238.145" y="282.924" type="line"/>
      <point x="253.58" y="282.447"/>
      <point x="317.227" y="280.483"/>
      <point x="332.877" y="280" type="curve" smooth="yes"/>
      <point x="343.86" y="279.661"/>
      <point x="358" y="292.649"/>
      <point x="358" y="310.49" type="curve" smooth="yes"/>
      <point x="358" y="320.053"/>
      <point x="354.567" y="328.062"/>
      <point x="347.877" y="328" type="curve" smooth="yes"/>
      <point x="329.808" y="327.833"/>
      <point x="256.428" y="327.153"/>
      <point x="238.561" y="326.987" type="curve"/>
    </contour>
    <contour>
      <point x="27" y="281" type="curve" smooth="yes"/>
      <point x="44.06" y="281.314"/>
      <point x="112.3" y="282.571"/>
      <point x="129.36" y="282.885" type="curve"/>
      <point x="129.493" y="326.483" type="line"/>
      <point x="115.298" y="327.054"/>
      <point x="56.4454" y="329.419"/>
      <point x="42" y="330" type="curve" smooth="yes"/>
      <point x="33.0228" y="330.361"/>
      <point x="17" y="319.463"/>
      <point x="17" y="298.302" type="curve" smooth="yes"/>
      <point x="17" y="289.812"/>
      <point x="20.2471" y="280.876"/>
    </contour>
    <contour>
      <point x="27" y="-2" type="curve"/>
      <point x="76" y="-1"/>
      <point x="171.5" y="0"/>
      <point x="182" y="0" type="curve"/>
      <point x="182" y="645" type="line"/>
      <point x="172" y="645"/>
      <point x="77" y="646"/>
      <point x="27" y="647" type="curve"/>
      <point x="21" y="641"/>
      <point x="21" y="619"/>
      <point x="27" y="613" type="curve"/>
      <point x="97" y="610"/>
      <point x="114" y="605"/>
      <point x="114" y="522" type="curve" smooth="yes"/>
      <point x="114" y="122" type="line" smooth="yes"/>
      <point x="114" y="39"/>
      <point x="97" y="35"/>
      <point x="27" y="32" type="curve"/>
      <point x="21" y="26"/>
      <point x="21" y="4"/>
    </contour>
    <contour>
      <point x="27" y="-2" type="curve"/>
      <point x="76" y="-1"/>
      <point x="171.5" y="0"/>
      <point x="182" y="0" type="curve"/>
      <point x="182" y="645" type="line"/>
      <point x="172" y="645"/>
      <point x="77" y="646"/>
      <point x="27" y="647" type="curve"/>
      <point x="21" y="641"/>
      <point x="21" y="619"/>
      <point x="27" y="613" type="curve"/>
      <point x="97" y="610"/>
      <point x="114" y="605"/>
      <point x="114" y="522" type="curve" smooth="yes"/>
      <point x="114" y="122" type="line" smooth="yes"/>
      <point x="114" y="39"/>
      <point x="97" y="35"/>
      <point x="27" y="32" type="curve"/>
      <point x="21" y="26"/>
      <point x="21" y="4"/>
    </contour>
    <contour>
      <point x="182" y="0" type="line"/>
      <point x="222" y="0"/>
      <point x="306" y="-2"/>
      <point x="346" y="-2" type="curve" smooth="yes"/>
      <point x="552" y="-2"/>
      <point x="685" y="95"/>
      <point x="685" y="309" type="curve" smooth="yes"/>
      <point x="685" y="494"/>
      <point x="565" y="646"/>
      <point x="319" y="646" type="curve" smooth="yes"/>
      <point x="266" y="646"/>
      <point x="222" y="645"/>
      <point x="182" y="645" type="curve"/>
    </contour>
    <contour>
      <point x="251" y="119" type="curve" smooth="yes"/>
      <point x="251" y="529" type="line" smooth="yes"/>
      <point x="251" y="584"/>
      <point x="277" y="604"/>
      <point x="313" y="604" type="curve" smooth="yes"/>
      <point x="510" y="604"/>
      <point x="532" y="435"/>
      <point x="532" y="284" type="curve" smooth="yes"/>
      <point x="532" y="102"/>
      <point x="423" y="40"/>
      <point x="347" y="40" type="curve" smooth="yes"/>
      <point x="277" y="40"/>
      <point x="251" y="52"/>
    </contour>
  </outline>
</glyph>
<glyph name="Oslash" format="2">
  <advance width="730"/>
  <unicode hex="00D8"/>
  <anchor x="351" y="850" name="m.uni0302"/>
  <anchor x="350" y="-110" name="m.uni0316_2"/>
  <outline>
    <contour>
      <point x="694" y="322.684" type="curve" smooth="yes"/>
      <point x="694" y="528"/>
      <point x="546" y="658"/>
      <point x="365.082" y="658" type="curve" smooth="yes"/>
      <point x="165" y="658"/>
      <point x="37" y="499"/>
      <point x="37" y="314.896" type="curve" smooth="yes"/>
      <point x="37" y="111"/>
      <point x="194" y="-10"/>
      <point x="372.41" y="-10" type="curve" smooth="yes"/>
      <point x="565" y="-10"/>
      <point x="694" y="131"/>
    </contour>
    <contour>
      <point x="354.246" y="618" type="curve" smooth="yes"/>
      <point x="458" y="618"/>
      <point x="543" y="512.64"/>
      <point x="543" y="308.945" type="curve" smooth="yes"/>
      <point x="543" y="142.377"/>
      <point x="485" y="32"/>
      <point x="379.259" y="32" type="curve" smooth="yes"/>
      <point x="274" y="32"/>
      <point x="188" y="141.373"/>
      <point x="188" y="330.017" type="curve" smooth="yes"/>
      <point x="188" y="534.716"/>
      <point x="262" y="618"/>
    </contour>
    <contour>
      <point x="200.552" y="168.349" type="line"/>
      <point x="221.529" y="120.368" type="line"/>
      <point x="525.471" y="493.632" type="line"/>
      <point x="502.448" y="540.651" type="line"/>
    </contour>
    <contour>
      <point x="52" y="-14" type="line"/>
      <point x="57.411" y="-31.26"/>
      <point x="71.366" y="-45"/>
      <point x="88" y="-45" type="curve"/>
      <point x="175.4" y="63.689" type="line"/>
      <point x="139.459" y="93.642" type="line"/>
    </contour>
    <contour>
      <point x="544.587" y="591.321" type="line"/>
      <point x="581.587" y="562.321" type="line"/>
      <point x="645" y="641" type="line"/>
      <point x="641.071" y="658"/>
      <point x="624.415" y="670"/>
      <point x="608" y="670" type="curve"/>
    </contour>
  </outline>
</glyph>
<glyph name="oslash" format="2">
  <advance width="567"/>
  <unicode hex="00F8"/>
  <anchor x="260" y="500" name="t.uni0302"/>
  <outline>
    <contour>
      <point x="37" y="203.8" type="curve" smooth="yes"/>
      <point x="37" y="72.814"/>
      <point x="121.646" y="-10"/>
      <point x="260.662" y="-10" type="curve" smooth="yes"/>
      <point x="407.849" y="-10"/>
      <point x="514" y="82.834"/>
      <point x="514" y="213.183" type="curve" smooth="yes"/>
      <point x="514" y="357.212"/>
      <point x="429.445" y="444"/>
      <point x="288.111" y="444" type="curve" smooth="yes"/>
      <point x="139.322" y="444"/>
      <point x="37" y="347.815"/>
    </contour>
    <contour>
      <point x="177" y="229" type="curve" smooth="yes"/>
      <point x="177" y="344.825"/>
      <point x="211.478" y="402"/>
      <point x="268.073" y="402" type="curve" smooth="yes"/>
      <point x="336.868" y="402"/>
      <point x="374" y="317.518"/>
      <point x="374" y="184" type="curve" smooth="yes"/>
      <point x="374" y="91.036"/>
      <point x="336.367" y="32"/>
      <point x="285.604" y="32" type="curve" smooth="yes"/>
      <point x="223.193" y="32"/>
      <point x="177" y="121.149"/>
    </contour>
    <contour>
      <point x="58" y="-2" type="line"/>
      <point x="62.906" y="-15.409"/>
      <point x="80.287" y="-34"/>
      <point x="94" y="-34" type="curve"/>
      <point x="487" y="446" type="line"/>
      <point x="480.774" y="463.187"/>
      <point x="467.176" y="475"/>
      <point x="450" y="475" type="curve"/>
    </contour>
  </outline>
</glyph>
<glyph name="thorn" format="2">
  <advance width="588"/>
  <unicode hex="00FE"/>
  <anchor x="278" y="646" name="m.uni0302"/>
  <outline>
    <contour>
      <point x="232" y="-120" type="line"/>
      <point x="232" y="7" type="line"/>
      <point x="253" y="-4"/>
      <point x="275" y="-10"/>
      <point x="299" y="-10" type="curve" smooth="yes"/>
      <point x="447" y="-10"/>
      <point x="550" y="85"/>
      <point x="550" y="237" type="curve" smooth="yes"/>
      <point x="550" y="358"/>
      <point x="475" y="444"/>
      <point x="353" y="444" type="curve" smooth="yes"/>
      <point x="318" y="444"/>
      <point x="256" y="402"/>
      <point x="232" y="378" type="curve"/>
      <point x="232" y="586" type="line"/>
      <point x="102" y="586" type="line"/>
      <point x="102" y="-120" type="line"/>
    </contour>
    <contour>
      <point x="232" y="341" type="line"/>
      <point x="261" y="368"/>
      <point x="297" y="377"/>
      <point x="321" y="377" type="curve" smooth="yes"/>
      <point x="393" y="377"/>
      <point x="410" y="261"/>
      <point x="410" y="210" type="curve" smooth="yes"/>
      <point x="410" y="126"/>
      <point x="380" y="32"/>
      <point x="293" y="32" type="curve" smooth="yes"/>
      <point x="272" y="32"/>
      <point x="246" y="49"/>
      <point x="232" y="65" type="curve"/>
    </contour>
    <contour>
      <point x="101.937" y="576" type="curve"/>
      <point x="231.937" y="576" type="line"/>
      <point x="231.937" y="627.375"/>
      <point x="233.015" y="655.678"/>
      <point x="235.937" y="681" type="curve"/>
      <point x="235.937" y="691.674"/>
      <point x="227.378" y="698"/>
      <point x="212.937" y="698" type="curve"/>
      <point x="183.701" y="686.306"/>
      <point x="99.6267" y="673.08"/>
      <point x="34.9367" y="670" type="curve"/>
      <point x="33.2367" y="664.9"/>
      <point x="34.5077" y="643.286"/>
      <point x="36.9367" y="636" type="curve"/>
      <point x="89.5417" y="630.942"/>
      <point x="101.937" y="619.5"/>
    </contour>
    <contour>
      <point x="30" y="-234" type="curve"/>
      <point x="72" y="-233"/>
      <point x="119" y="-232"/>
      <point x="172" y="-232" type="curve"/>
      <point x="172" y="-110" type="line"/>
      <point x="102" y="-110" type="line"/>
      <point x="102" y="-193"/>
      <point x="91" y="-197"/>
      <point x="30" y="-200" type="curve"/>
      <point x="24" y="-206"/>
      <point x="24" y="-228"/>
    </contour>
    <contour>
      <point x="162" y="-232" type="line"/>
      <point x="207" y="-233"/>
      <point x="259" y="-233"/>
      <point x="304" y="-234" type="curve"/>
      <point x="310" y="-228"/>
      <point x="310" y="-206"/>
      <point x="304" y="-200" type="curve"/>
      <point x="243" y="-197"/>
      <point x="232" y="-193"/>
      <point x="232" y="-110" type="curve"/>
      <point x="162" y="-110" type="line"/>
    </contour>
  </outline>
</glyph>
<glyph name="dcroat" format="2">
  <advance width="561"/>
  <unicode hex="0111"/>
  <outline>
    <component base="d"/>
    <contour>
      <point x="251.969" y="520.113" type="curve" smooth="yes"/>
      <point x="394.329" y="520" type="line"/>
      <point x="394.461" y="568.535" type="line"/>
      <point x="266.969" y="568.052" type="line" smooth="yes"/>
      <point x="257.984" y="568.018"/>
      <point x="241.969" y="557.743"/>
      <point x="241.969" y="537.041" type="curve" smooth="yes"/>
      <point x="241.969" y="528.734"/>
      <point x="245.215" y="520.119"/>
    </contour>
    <contour>
      <point x="393.202" y="519.819" type="line"/>
      <point x="527.934" y="519.894" type="line" smooth="yes"/>
      <point x="538.922" y="519.9"/>
      <point x="553.057" y="531.29"/>
      <point x="553.057" y="548.745" type="curve" smooth="yes"/>
      <point x="553.057" y="558.1"/>
      <point x="549.625" y="567.832"/>
      <point x="542.934" y="567.832" type="curve" smooth="yes"/>
      <point x="392.618" y="567.819" type="line"/>
    </contour>
  </outline>
</glyph>
<glyph name="Hbar" format="2">
  <advance width="817"/>
  <unicode hex="0126"/>
  <outline>
    <component base="H"/>
    <contour>
      <point x="37" y="492.005" type="curve" smooth="yes"/>
      <point x="179.36" y="492.005" type="line"/>
      <point x="179.493" y="540.242" type="line"/>
      <point x="52" y="540.242" type="line" smooth="yes"/>
      <point x="43.0155" y="540.242"/>
      <point x="27" y="529.691"/>
      <point x="27" y="508.989" type="curve" smooth="yes"/>
      <point x="27" y="500.682"/>
      <point x="30.246" y="492.005"/>
    </contour>
    <contour>
      <point x="583.305" y="540.292" type="line"/>
      <point x="236.259" y="540.352" type="line"/>
      <point x="236.259" y="492.362" type="line"/>
      <point x="583.305" y="492.362" type="line"/>
    </contour>
    <contour>
      <point x="597.853" y="491.987" type="line"/>
      <point x="732.877" y="492.062" type="line" smooth="yes"/>
      <point x="743.865" y="492.068"/>
      <point x="758" y="503.458"/>
      <point x="758" y="520.913" type="curve" smooth="yes"/>
      <point x="758" y="530.268"/>
      <point x="754.567" y="540"/>
      <point x="747.877" y="540" type="curve"/>
      <point x="597.853" y="539.987" type="line"/>
    </contour>
  </outline>
  <guideline angle="0" x="0" y="540"/>
  <guideline angle="0" x="0" y="492"/>
</glyph>
<glyph name="hbar" format="2">
  <advance width="619"/>
  <unicode hex="0127"/>
  <outline>
    <contour>
      <point x="26" y="-2" type="curve"/>
      <point x="68" y="-1"/>
      <point x="110" y="0"/>
      <point x="163" y="0" type="curve" smooth="yes"/>
      <point x="209" y="0"/>
      <point x="237" y="-1"/>
      <point x="280" y="-2" type="curve"/>
      <point x="286" y="4"/>
      <point x="286" y="26"/>
      <point x="280" y="32" type="curve"/>
      <point x="238" y="36"/>
      <point x="228" y="39"/>
      <point x="228" y="122" type="curve"/>
      <point x="98" y="122" type="line"/>
      <point x="98" y="39"/>
      <point x="87" y="37"/>
      <point x="26" y="32" type="curve"/>
      <point x="20" y="26"/>
      <point x="20" y="4"/>
    </contour>
    <contour>
      <point x="339" y="-2" type="curve"/>
      <point x="381" y="-1"/>
      <point x="413" y="0"/>
      <point x="461" y="0" type="curve" smooth="yes"/>
      <point x="516" y="0"/>
      <point x="560" y="-1"/>
      <point x="603" y="-2" type="curve"/>
      <point x="609" y="4"/>
      <point x="609" y="26"/>
      <point x="603" y="32" type="curve"/>
      <point x="542" y="35"/>
      <point x="526" y="39"/>
      <point x="526" y="122" type="curve"/>
      <point x="396" y="122" type="line"/>
      <point x="396" y="39"/>
      <point x="380" y="35"/>
      <point x="339" y="32" type="curve"/>
      <point x="333" y="26"/>
      <point x="333" y="4"/>
    </contour>
    <contour>
      <point x="27" y="522.005" type="curve" smooth="yes"/>
      <point x="169.36" y="522.005" type="line"/>
      <point x="169.493" y="570.242" type="line"/>
      <point x="42" y="570.242" type="line" smooth="yes"/>
      <point x="33.016" y="570.242"/>
      <point x="17" y="559.691"/>
      <point x="17" y="538.989" type="curve" smooth="yes"/>
      <point x="17" y="530.682"/>
      <point x="20.246" y="522.005"/>
    </contour>
    <contour>
      <point x="228" y="122" type="line"/>
      <point x="228" y="576" type="line"/>
      <point x="98" y="576" type="line"/>
      <point x="98" y="122" type="line"/>
    </contour>
    <contour>
      <point x="526" y="122" type="line"/>
      <point x="526" y="284" type="line" smooth="yes"/>
      <point x="526" y="390.729"/>
      <point x="481.719" y="444"/>
      <point x="393" y="444" type="curve" smooth="yes"/>
      <point x="361.371" y="444"/>
      <point x="289.233" y="410.676"/>
      <point x="209" y="359" type="curve"/>
      <point x="209" y="320" type="line"/>
      <point x="255.784" y="351.189"/>
      <point x="297.92" y="370"/>
      <point x="321" y="370" type="curve" smooth="yes"/>
      <point x="369.5" y="370"/>
      <point x="396" y="343.5"/>
      <point x="396" y="295" type="curve" smooth="yes"/>
      <point x="396" y="122" type="line"/>
    </contour>
    <contour>
      <point x="98.063" y="576" type="curve"/>
      <point x="228.063" y="576" type="line"/>
      <point x="228.063" y="626"/>
      <point x="229.063" y="655"/>
      <point x="232.063" y="681" type="curve"/>
      <point x="232.063" y="692"/>
      <point x="223.063" y="698"/>
      <point x="209.063" y="698" type="curve"/>
      <point x="179.063" y="686"/>
      <point x="94.063" y="673"/>
      <point x="31.063" y="670" type="curve"/>
      <point x="29.063" y="664"/>
      <point x="31.063" y="642"/>
      <point x="33.063" y="636" type="curve"/>
      <point x="85.478" y="631.235"/>
      <point x="98.063" y="620"/>
    </contour>
    <contour>
      <point x="217.853" y="521.987" type="line"/>
      <point x="352.877" y="522.062" type="line" smooth="yes"/>
      <point x="363.865" y="522.068"/>
      <point x="378" y="533.458"/>
      <point x="378" y="550.913" type="curve" smooth="yes"/>
      <point x="378" y="560.268"/>
      <point x="374.567" y="570"/>
      <point x="367.877" y="570" type="curve"/>
      <point x="217.853" y="569.987" type="line"/>
    </contour>
  </outline>
</glyph>
<glyph name="iogonek" format="2">
  <advance width="322"/>
  <unicode hex="012F"/>
  <anchor x="132" y="825" name="m.uni0302"/>
  <outline>
    <component base="ogonek" xOffset="11" yOffset="-10"/>
    <contour>
      <point x="30" y="-2" type="curve"/>
      <point x="72" y="-1"/>
      <point x="114" y="0"/>
      <point x="167" y="0" type="curve"/>
      <point x="212.21" y="-0.66"/>
      <point x="258.79" y="-1"/>
      <point x="304" y="-2" type="curve"/>
      <point x="310" y="4.25"/>
      <point x="310" y="25.625"/>
      <point x="304" y="32" type="curve"/>
      <point x="243" y="35"/>
      <point x="232" y="39"/>
      <point x="232" y="122" type="curve"/>
      <point x="102" y="122" type="line"/>
      <point x="102" y="39"/>
      <point x="91" y="35"/>
      <point x="30" y="32" type="curve"/>
      <point x="24" y="25.625"/>
      <point x="24" y="4.25"/>
    </contour>
    <contour>
      <point x="102" y="322" type="curve"/>
      <point x="232" y="322" type="line"/>
      <point x="232" y="372"/>
      <point x="233" y="401"/>
      <point x="236" y="427" type="curve"/>
      <point x="236" y="438"/>
      <point x="227" y="444"/>
      <point x="213" y="444" type="curve"/>
      <point x="183" y="432"/>
      <point x="98" y="419"/>
      <point x="35" y="416" type="curve"/>
      <point x="33" y="410"/>
      <point x="35" y="388"/>
      <point x="37" y="382" type="curve"/>
      <point x="89.4149" y="377.235"/>
      <point x="102" y="366"/>
    </contour>
    <contour>
      <point x="102" y="122" type="line"/>
      <point x="232" y="122" type="line"/>
      <point x="232" y="322" type="line"/>
      <point x="102" y="322" type="line"/>
    </contour>
    <contour>
      <point x="97" y="594" type="curve" smooth="yes"/>
      <point x="97" y="563.158"/>
      <point x="119.737" y="530"/>
      <point x="164" y="530" type="curve" smooth="yes"/>
      <point x="209.282" y="530"/>
      <point x="232" y="563.131"/>
      <point x="232" y="594" type="curve" smooth="yes"/>
      <point x="232" y="625.869"/>
      <point x="209.32" y="658"/>
      <point x="164" y="658" type="curve" smooth="yes"/>
      <point x="119.7" y="658"/>
      <point x="97" y="625.842"/>
    </contour>
  </outline>
</glyph>
<glyph name="dotlessi" format="2">
  <advance width="312"/>
  <unicode hex="0131"/>
  <anchor x="136" y="500" name="t.uni0302"/>
  <anchor x="134" y="-108" name="m.uni0316_2"/>
  <outline>
    <contour>
      <point x="25" y="-2" type="curve"/>
      <point x="67" y="-1"/>
      <point x="114" y="0"/>
      <point x="167" y="0" type="curve"/>
      <point x="167" y="122" type="line"/>
      <point x="97" y="122" type="line"/>
      <point x="97" y="39"/>
      <point x="86" y="35"/>
      <point x="25" y="32" type="curve"/>
      <point x="19" y="26"/>
      <point x="19" y="4"/>
    </contour>
    <contour>
      <point x="97" y="322" type="curve"/>
      <point x="227" y="322" type="line"/>
      <point x="227" y="373.375"/>
      <point x="228.078" y="401.678"/>
      <point x="231" y="427" type="curve"/>
      <point x="231" y="437.674"/>
      <point x="222.441" y="444"/>
      <point x="208" y="444" type="curve"/>
      <point x="178.764" y="432.306"/>
      <point x="94.69" y="419.08"/>
      <point x="30" y="416" type="curve"/>
      <point x="28.3" y="410.9"/>
      <point x="29.571" y="389.286"/>
      <point x="32" y="382" type="curve"/>
      <point x="84.605" y="376.942"/>
      <point x="97" y="365.5"/>
    </contour>
    <contour>
      <point x="97" y="110" type="line"/>
      <point x="227" y="110" type="line"/>
      <point x="227" y="330" type="line"/>
      <point x="97" y="330" type="line"/>
    </contour>
    <contour>
      <point x="157" y="0" type="line"/>
      <point x="202" y="-1"/>
      <point x="254" y="-1"/>
      <point x="299" y="-2" type="curve"/>
      <point x="305" y="4"/>
      <point x="305" y="26"/>
      <point x="299" y="32" type="curve"/>
      <point x="238" y="35"/>
      <point x="227" y="39"/>
      <point x="227" y="122" type="curve"/>
      <point x="157" y="122" type="line"/>
    </contour>
  </outline>
</glyph>
<glyph name="uni0136" format="2">
	<unicode hex="0136"/>
	<advance width="736"/>
	<outline>
		<component base="K"/>
		<contour>
			<point x="371" y="-51" type="curve" smooth="yes"/>
			<point x="348" y="-51"/>
			<point x="320" y="-72"/>
			<point x="320" y="-89" type="curve" smooth="yes"/>
			<point x="320" y="-114"/>
			<point x="331" y="-129"/>
			<point x="353" y="-134" type="curve" smooth="yes"/>
			<point x="361" y="-136"/>
			<point x="382" y="-137"/>
			<point x="382" y="-157" type="curve" smooth="yes"/>
			<point x="382" y="-175"/>
			<point x="357" y="-199"/>
			<point x="317" y="-210" type="curve"/>
			<point x="313" y="-222"/>
			<point x="313" y="-232"/>
			<point x="323" y="-238" type="curve"/>
			<point x="391" y="-226"/>
			<point x="443" y="-186"/>
			<point x="443" y="-129" type="curve" smooth="yes"/>
			<point x="443" y="-66"/>
			<point x="403" y="-51"/>
		</contour>
	</outline>
</glyph>
<glyph name="uni013B" format="2">
  <advance width="577"/>
  <unicode hex="013B"/>
  <outline>
    <component base="L"/>
    <contour>
      <point x="263" y="-51" type="curve" smooth="yes"/>
      <point x="240" y="-51"/>
      <point x="212" y="-72"/>
      <point x="212" y="-89" type="curve" smooth="yes"/>
      <point x="212" y="-114"/>
      <point x="223" y="-129"/>
      <point x="245" y="-134" type="curve" smooth="yes"/>
      <point x="253" y="-136"/>
      <point x="274" y="-137"/>
      <point x="274" y="-157" type="curve" smooth="yes"/>
      <point x="274" y="-175"/>
      <point x="249" y="-199"/>
      <point x="209" y="-210" type="curve"/>
      <point x="205" y="-222"/>
      <point x="205" y="-232"/>
      <point x="215" y="-238" type="curve"/>
      <point x="283" y="-226"/>
      <point x="335" y="-186"/>
      <point x="335" y="-129" type="curve" smooth="yes"/>
      <point x="335" y="-66"/>
      <point x="295" y="-51"/>
    </contour>
  </outline>
</glyph>
<glyph name="Lcaron" format="2">
  <advance width="577"/>
  <unicode hex="013D"/>
  <outline>
    <contour>
      <point x="27" y="-2" type="curve"/>
      <point x="76" y="-1"/>
      <point x="171.5" y="0"/>
      <point x="182" y="0" type="curve"/>
      <point x="182" y="645" type="line"/>
      <point x="172" y="645"/>
      <point x="77" y="646"/>
      <point x="27" y="647" type="curve"/>
      <point x="21" y="641"/>
      <point x="21" y="619"/>
      <point x="27" y="613" type="curve"/>
      <point x="97" y="610"/>
      <point x="114" y="605"/>
      <point x="114" y="522" type="curve" smooth="yes"/>
      <point x="114" y="122" type="line" smooth="yes"/>
      <point x="114" y="39"/>
      <point x="97" y="35"/>
      <point x="27" y="32" type="curve"/>
      <point x="21" y="26"/>
      <point x="21" y="4"/>
    </contour>
    <contour>
      <point x="182" y="0" type="line"/>
      <point x="405" y="0" type="line" smooth="yes"/>
      <point x="434" y="0"/>
      <point x="516" y="-2"/>
      <point x="525" y="-2" type="curve"/>
      <point x="535" y="48"/>
      <point x="545" y="113"/>
      <point x="551" y="165" type="curve"/>
      <point x="541" y="170"/>
      <point x="520" y="172"/>
      <point x="508" y="170" type="curve"/>
      <point x="488" y="98"/>
      <point x="451" y="42"/>
      <point x="346" y="42" type="curve" smooth="yes"/>
      <point x="286" y="42" type="line" smooth="yes"/>
      <point x="265" y="42"/>
      <point x="251" y="61"/>
      <point x="251" y="121" type="curve" smooth="yes"/>
      <point x="251" y="523" type="line" smooth="yes"/>
      <point x="251" y="606"/>
      <point x="279" y="610"/>
      <point x="334" y="613" type="curve"/>
      <point x="344" y="619"/>
      <point x="344" y="641"/>
      <point x="334" y="647" type="curve"/>
      <point x="252" y="646"/>
      <point x="222" y="645"/>
      <point x="182" y="645" type="curve"/>
    </contour>
    <contour>
      <point x="430" y="698" type="curve" smooth="yes"/>
      <point x="394" y="698" name=".hr01"/>
      <point x="383" y="680"/>
      <point x="383" y="664" type="curve" smooth="yes"/>
      <point x="383" y="648"/>
      <point x="388" y="623"/>
      <point x="429" y="623" type="curve" smooth="yes"/>
      <point x="436" y="623"/>
      <point x="440" y="615"/>
      <point x="440" y="605" type="curve" smooth="yes"/>
      <point x="440" y="582"/>
      <point x="422" y="545"/>
      <point x="380" y="536" type="curve"/>
      <point x="384" y="519" type="line"/>
      <point x="475" y="524" name=".hr02"/>
      <point x="490" y="599"/>
      <point x="490" y="625" type="curve" smooth="yes"/>
      <point x="490" y="661"/>
      <point x="468" y="698"/>
    </contour>
  </outline>
</glyph>
<glyph name="Ldot" format="2">
	<unicode hex="013F"/>
	<advance width="577"/>
	<outline>
		<component base="L"/>
		<contour>
			<point x="371" y="385" type="curve" smooth="yes"/>
			<point x="371" y="352"/>
			<point x="395" y="319"/>
			<point x="435" y="319" type="curve" smooth="yes"/>
			<point x="480" y="319"/>
			<point x="506" y="355"/>
			<point x="506" y="381" type="curve" smooth="yes"/>
			<point x="506" y="411"/>
			<point x="483" y="447"/>
			<point x="441" y="447" type="curve" smooth="yes"/>
			<point x="394" y="447"/>
			<point x="371" y="415"/>
		</contour>
	</outline>
</glyph>
<glyph name="Lslash" format="2">
  <advance width="577"/>
  <unicode hex="0141"/>
  <outline>
    <component base="L"/>
    <contour>
      <point x="240.165" y="349.79" type="line"/>
      <point x="344" y="410" type="line"/>
      <point x="344" y="423.757"/>
      <point x="335.285" y="445.4"/>
      <point x="318.814" y="453.221" type="curve"/>
      <point x="240.406" y="401.07" type="line"/>
    </contour>
    <contour>
      <point x="43" y="227" type="curve"/>
      <point x="127.9" y="281.498" type="line"/>
      <point x="128.226" y="332.032" type="line"/>
      <point x="17.343" y="270.762" type="line"/>
      <point x="17.343" y="250.146"/>
      <point x="29.298" y="234.387"/>
    </contour>
  </outline>
</glyph>
<glyph name="lslash" format="2">
  <advance width="325"/>
  <unicode hex="0142"/>
  <outline>
    <component base="l" xOffset="11"/>
    <contour>
      <point x="33" y="250" type="curve"/>
      <point x="113.594" y="303.24" type="line"/>
      <point x="113.974" y="353.825" type="line"/>
      <point x="15" y="298" type="line"/>
      <point x="14.94" y="282.16"/>
      <point x="21.06" y="265.84"/>
    </contour>
    <contour>
      <point x="216.523" y="368.104" type="line"/>
      <point x="314" y="424" type="line"/>
      <point x="314.06" y="439.84"/>
      <point x="307.94" y="456.16"/>
      <point x="296" y="472" type="curve"/>
      <point x="217.064" y="418.676" type="line"/>
    </contour>
  </outline>
</glyph>
<glyph name="Eng" format="2">
  <advance width="753"/>
  <unicode hex="014A"/>
  <anchor x="346" y="804" name="m.uni0302"/>
  <anchor x="353" y="-109" name="m.uni0316_2"/>
  <outline>
    <contour>
      <point x="703" y="103" type="curve" smooth="yes"/>
      <point x="703" y="329" type="line" smooth="yes"/>
      <point x="703" y="549.389"/>
      <point x="628.392" y="658"/>
      <point x="477" y="658" type="curve" smooth="yes"/>
      <point x="380.221" y="658"/>
      <point x="295.608" y="605.383"/>
      <point x="246" y="514" type="curve"/>
      <point x="246" y="532" type="line" smooth="yes"/>
      <point x="246" y="567.75"/>
      <point x="247.8" y="615"/>
      <point x="250" y="637" type="curve"/>
      <point x="250" y="643.962"/>
      <point x="246.05" y="647"/>
      <point x="237" y="647" type="curve"/>
      <point x="228.726" y="646.081"/>
      <point x="202.25" y="645"/>
      <point x="188" y="645" type="curve" smooth="yes"/>
      <point x="172" y="645" type="line" smooth="yes"/>
      <point x="132.25" y="645"/>
      <point x="75.786" y="645.738"/>
      <point x="19" y="647" type="curve"/>
      <point x="12.395" y="640.395"/>
      <point x="12.395" y="619.605"/>
      <point x="19" y="613" type="curve"/>
      <point x="95.832" y="609.707"/>
      <point x="106" y="598.644"/>
      <point x="106" y="518.334" type="curve" smooth="yes"/>
      <point x="106" y="126.827" type="line" smooth="yes"/>
      <point x="106" y="46.533"/>
      <point x="95.85" y="35.47"/>
      <point x="19" y="32" type="curve"/>
      <point x="11.745" y="23.945"/>
      <point x="12.005" y="8.539"/>
      <point x="19" y="-2" type="curve"/>
      <point x="69.82" y="-0.73"/>
      <point x="121.25" y="0"/>
      <point x="160" y="0" type="curve" smooth="yes"/>
      <point x="189" y="0" type="line" smooth="yes"/>
      <point x="239" y="0"/>
      <point x="283" y="-1"/>
      <point x="333" y="-2" type="curve"/>
      <point x="338.706" y="7.14"/>
      <point x="337.717" y="25.921"/>
      <point x="333" y="32" type="curve"/>
      <point x="256.15" y="35.476"/>
      <point x="246" y="46.557"/>
      <point x="246" y="126.982" type="curve" smooth="yes"/>
      <point x="246" y="427.364" type="line"/>
      <point x="260.819" y="514.259"/>
      <point x="348.095" y="592"/>
      <point x="431" y="592" type="curve" smooth="yes"/>
      <point x="512.115" y="592"/>
      <point x="563" y="494.47"/>
      <point x="563" y="339" type="curve" smooth="yes"/>
      <point x="563" y="81" type="line" smooth="yes"/>
      <point x="563" y="-100.705"/>
      <point x="556.601" y="-128"/>
      <point x="514" y="-128" type="curve" smooth="yes"/>
      <point x="497.573" y="-128"/>
      <point x="478.649" y="-118.926"/>
      <point x="468" y="-105" type="curve" smooth="yes"/>
      <point x="455" y="-88"/>
      <point x="450" y="-60"/>
      <point x="410" y="-60" type="curve" smooth="yes"/>
      <point x="375.136" y="-60"/>
      <point x="352" y="-82.338"/>
      <point x="352" y="-116" type="curve" smooth="yes"/>
      <point x="352" y="-150.005"/>
      <point x="403.063" y="-187"/>
      <point x="450" y="-187" type="curve" smooth="yes"/>
      <point x="496.944" y="-187"/>
      <point x="540.025" y="-173.559"/>
      <point x="575" y="-148" type="curve" smooth="yes"/>
      <point x="601" y="-129" type="line" smooth="yes"/>
      <point x="670.2" y="-78.431"/>
      <point x="703" y="-3.827"/>
    </contour>
  </outline>
</glyph>
<glyph name="eng" format="2">
  <advance width="564"/>
  <unicode hex="014B"/>
  <anchor x="264" y="646" name="m.uni0302"/>
  <anchor x="265" y="-111" name="m.uni0316_2"/>
  <outline>
    <contour>
      <point x="26" y="-2" type="curve"/>
      <point x="68" y="-1"/>
      <point x="110" y="0"/>
      <point x="163" y="0" type="curve" smooth="yes"/>
      <point x="209" y="0"/>
      <point x="237" y="-1"/>
      <point x="280" y="-2" type="curve"/>
      <point x="286" y="4"/>
      <point x="286" y="26"/>
      <point x="280" y="32" type="curve"/>
      <point x="238" y="36"/>
      <point x="228" y="39"/>
      <point x="228" y="122" type="curve"/>
      <point x="98" y="122" type="line"/>
      <point x="98" y="39"/>
      <point x="87" y="37"/>
      <point x="26" y="32" type="curve"/>
      <point x="20" y="26"/>
      <point x="20" y="4"/>
    </contour>
    <contour>
      <point x="257" y="-105" type="curve" smooth="yes"/>
      <point x="228.096" y="-105"/>
      <point x="207" y="-130.315"/>
      <point x="207" y="-165" type="curve" smooth="yes"/>
      <point x="207" y="-201.796"/>
      <point x="245.442" y="-232"/>
      <point x="293" y="-232" type="curve" smooth="yes"/>
      <point x="495" y="-232"/>
      <point x="526" y="-46"/>
      <point x="526" y="122" type="curve"/>
      <point x="396" y="122" type="line"/>
      <point x="396" y="65"/>
      <point x="403" y="-26"/>
      <point x="403" y="-92" type="curve" smooth="yes"/>
      <point x="403" y="-125"/>
      <point x="386" y="-164"/>
      <point x="356" y="-164" type="curve" smooth="yes"/>
      <point x="324.459" y="-164"/>
      <point x="310.389" y="-105"/>
    </contour>
    <contour>
      <point x="98" y="316" type="curve"/>
      <point x="228" y="336" type="line"/>
      <point x="228" y="365"/>
      <point x="225.136" y="399.382"/>
      <point x="220" y="427" type="curve" smooth="yes"/>
      <point x="217.868" y="438.463"/>
      <point x="211.475" y="444"/>
      <point x="197" y="444" type="curve"/>
      <point x="145.503" y="430.082"/>
      <point x="84.843" y="418.023"/>
      <point x="31" y="411" type="curve"/>
      <point x="29.316" y="405.947"/>
      <point x="30.538" y="386.385"/>
      <point x="33" y="379" type="curve"/>
      <point x="89.404" y="373.872"/>
      <point x="98" y="357"/>
    </contour>
    <contour>
      <point x="98" y="122" type="line"/>
      <point x="228" y="122" type="line"/>
      <point x="228" y="336" type="line"/>
      <point x="98" y="316" type="line"/>
    </contour>
    <contour>
      <point x="396" y="122" type="line"/>
      <point x="526" y="122" type="line"/>
      <point x="526" y="284" type="line" smooth="yes"/>
      <point x="526" y="390.729"/>
      <point x="481.719" y="444"/>
      <point x="393" y="444" type="curve" smooth="yes"/>
      <point x="360.938" y="444"/>
      <point x="301.998" y="414.195"/>
      <point x="217" y="355" type="curve"/>
      <point x="228" y="323" type="line"/>
      <point x="270.089" y="351.41"/>
      <point x="308.851" y="370"/>
      <point x="326" y="370" type="curve" smooth="yes"/>
      <point x="372.6" y="370"/>
      <point x="396" y="344.929"/>
      <point x="396" y="295" type="curve" smooth="yes"/>
    </contour>
  </outline>
</glyph>
<glyph name="tcaron" format="2">
  <advance width="358"/>
  <unicode hex="0165"/>
  <outline>
    <contour>
      <point x="63" y="434" type="line" smooth="yes"/>
      <point x="49" y="434"/>
      <point x="34" y="430"/>
      <point x="21" y="419" type="curve"/>
      <point x="21" y="390" type="line" smooth="yes"/>
      <point x="21" y="385"/>
      <point x="22" y="384"/>
      <point x="26" y="384" type="curve" smooth="yes"/>
      <point x="91" y="384" type="line"/>
      <point x="91" y="105" type="line" smooth="yes"/>
      <point x="91" y="32"/>
      <point x="127" y="-10"/>
      <point x="201" y="-10" type="curve" smooth="yes"/>
      <point x="256" y="-10"/>
      <point x="321" y="18"/>
      <point x="341" y="46" type="curve"/>
      <point x="341" y="58"/>
      <point x="335.089" y="67.952"/>
      <point x="323" y="74" type="curve"/>
      <point x="310" y="64"/>
      <point x="285" y="60"/>
      <point x="266" y="60" type="curve" smooth="yes"/>
      <point x="244" y="60"/>
      <point x="221" y="77"/>
      <point x="221" y="127" type="curve" smooth="yes"/>
      <point x="221" y="384" type="line"/>
      <point x="322" y="384" type="line" smooth="yes"/>
      <point x="332" y="384"/>
      <point x="346" y="388"/>
      <point x="346" y="397" type="curve" smooth="yes"/>
      <point x="346" y="428" type="line" smooth="yes"/>
      <point x="346" y="432"/>
      <point x="343" y="434"/>
      <point x="338" y="434" type="curve" smooth="yes"/>
      <point x="221" y="434" type="line"/>
      <point x="222" y="468" type="line" smooth="yes"/>
      <point x="223.971" y="535"/>
      <point x="226" y="564"/>
      <point x="229" y="581" type="curve"/>
      <point x="229" y="587"/>
      <point x="226" y="590"/>
      <point x="221" y="590" type="curve" smooth="yes"/>
      <point x="209" y="590"/>
      <point x="108" y="558"/>
      <point x="102" y="550" type="curve" smooth="yes"/>
      <point x="95" y="541"/>
      <point x="91" y="514"/>
      <point x="91" y="434" type="curve"/>
    </contour>
    <contour>
      <point x="302" y="698" type="curve" smooth="yes"/>
      <point x="266" y="698"/>
      <point x="255" y="680"/>
      <point x="255" y="664" type="curve" smooth="yes"/>
      <point x="255" y="648"/>
      <point x="260" y="623"/>
      <point x="301" y="623" type="curve" smooth="yes"/>
      <point x="308" y="623"/>
      <point x="312" y="615"/>
      <point x="312" y="605" type="curve" smooth="yes"/>
      <point x="312" y="582"/>
      <point x="294" y="545"/>
      <point x="252" y="536" type="curve"/>
      <point x="256" y="519" type="line"/>
      <point x="347" y="524"/>
      <point x="362" y="599"/>
      <point x="362" y="625" type="curve" smooth="yes"/>
      <point x="362" y="661"/>
      <point x="340" y="698"/>
    </contour>
  </outline>
</glyph>
<glyph name="Tbar" format="2">
  <advance width="652"/>
  <unicode hex="0166"/>
  <outline>
    <contour>
      <point x="405" y="123" type="curve" smooth="yes"/>
      <point x="405" y="503" type="line" smooth="yes"/>
      <point x="405" y="567"/>
      <point x="415" y="604"/>
      <point x="451" y="604" type="curve" smooth="yes"/>
      <point x="462" y="604" type="line" smooth="yes"/>
      <point x="466" y="604"/>
      <point x="469" y="604"/>
      <point x="473" y="604" type="curve" smooth="yes"/>
      <point x="548" y="604"/>
      <point x="590" y="579"/>
      <point x="607" y="502" type="curve"/>
      <point x="618" y="502"/>
      <point x="637" y="503"/>
      <point x="646" y="507" type="curve"/>
      <point x="639" y="553"/>
      <point x="634" y="605"/>
      <point x="633" y="650" type="curve"/>
      <point x="633" y="651"/>
      <point x="631" y="653"/>
      <point x="630" y="653" type="curve"/>
      <point x="596" y="650"/>
      <point x="485" y="645"/>
      <point x="406" y="645" type="curve" smooth="yes"/>
      <point x="401" y="645"/>
      <point x="396" y="645"/>
      <point x="390" y="645" type="curve" smooth="yes"/>
      <point x="281" y="645" type="line" smooth="yes"/>
      <point x="275" y="645"/>
      <point x="270" y="645"/>
      <point x="265" y="645" type="curve" smooth="yes"/>
      <point x="188" y="645"/>
      <point x="70" y="650"/>
      <point x="32" y="653" type="curve"/>
      <point x="30" y="653"/>
      <point x="28" y="651"/>
      <point x="28" y="650" type="curve"/>
      <point x="24" y="605"/>
      <point x="14" y="552"/>
      <point x="3" y="504" type="curve"/>
      <point x="13" y="500"/>
      <point x="30" y="499"/>
      <point x="42" y="499" type="curve"/>
      <point x="62" y="579"/>
      <point x="103" y="604"/>
      <point x="169" y="604" type="curve" smooth="yes"/>
      <point x="173" y="604"/>
      <point x="177" y="604"/>
      <point x="181" y="604" type="curve" smooth="yes"/>
      <point x="218" y="604" type="line"/>
      <point x="218" y="604" type="line"/>
      <point x="255" y="604"/>
      <point x="265" y="567"/>
      <point x="265" y="506" type="curve" smooth="yes"/>
      <point x="265" y="123" type="line" smooth="yes"/>
      <point x="265" y="40"/>
      <point x="248" y="35"/>
      <point x="168" y="32" type="curve"/>
      <point x="162" y="26"/>
      <point x="162" y="4"/>
      <point x="168" y="-2" type="curve"/>
      <point x="217" y="-1"/>
      <point x="269" y="0"/>
      <point x="333" y="0" type="curve" smooth="yes"/>
      <point x="399" y="0"/>
      <point x="452" y="-1"/>
      <point x="502" y="-2" type="curve"/>
      <point x="508" y="4"/>
      <point x="508" y="26"/>
      <point x="502" y="32" type="curve"/>
      <point x="422" y="35"/>
      <point x="405" y="40"/>
    </contour>
    <contour>
      <point x="172" y="316.005" type="curve" smooth="yes"/>
      <point x="314.36" y="316.005" type="line"/>
      <point x="314.493" y="364.242" type="line"/>
      <point x="187" y="364.242" type="line" smooth="yes"/>
      <point x="178.016" y="364.242"/>
      <point x="162" y="353.691"/>
      <point x="162" y="332.989" type="curve" smooth="yes"/>
      <point x="162" y="324.682"/>
      <point x="165.246" y="316.005"/>
    </contour>
    <contour>
      <point x="342.853" y="315.987" type="line"/>
      <point x="477.877" y="316.062" type="line" smooth="yes"/>
      <point x="488.865" y="316.068"/>
      <point x="503" y="327.458"/>
      <point x="503" y="344.913" type="curve" smooth="yes"/>
      <point x="503" y="354.268"/>
      <point x="499.567" y="364"/>
      <point x="492.877" y="364" type="curve"/>
      <point x="342.853" y="363.987" type="line"/>
    </contour>
  </outline>
</glyph>
<glyph name="tbar" format="2">
  <advance width="358"/>
  <unicode hex="0167"/>
  <outline>
    <contour>
      <point x="63" y="434" type="line" smooth="yes"/>
      <point x="49" y="434"/>
      <point x="34" y="430"/>
      <point x="21" y="419" type="curve"/>
      <point x="21" y="390" type="line" smooth="yes"/>
      <point x="21" y="385"/>
      <point x="22" y="384"/>
      <point x="26" y="384" type="curve" smooth="yes"/>
      <point x="91" y="384" type="line"/>
      <point x="91" y="105" type="line" smooth="yes"/>
      <point x="91" y="32"/>
      <point x="127" y="-10"/>
      <point x="201" y="-10" type="curve" smooth="yes"/>
      <point x="256" y="-10"/>
      <point x="317" y="18"/>
      <point x="337" y="46" type="curve"/>
      <point x="337" y="58"/>
      <point x="331" y="64"/>
      <point x="319" y="74" type="curve"/>
      <point x="306" y="64"/>
      <point x="281" y="60"/>
      <point x="262" y="60" type="curve" smooth="yes"/>
      <point x="240" y="60"/>
      <point x="217" y="77"/>
      <point x="217" y="127" type="curve" smooth="yes"/>
      <point x="217" y="384" type="line"/>
      <point x="318" y="384" type="line" smooth="yes"/>
      <point x="328" y="384"/>
      <point x="342" y="388"/>
      <point x="342" y="397" type="curve" smooth="yes"/>
      <point x="342" y="428" type="line" smooth="yes"/>
      <point x="342" y="432"/>
      <point x="339" y="434"/>
      <point x="334" y="434" type="curve" smooth="yes"/>
      <point x="217" y="434" type="line"/>
      <point x="218" y="468" type="line" smooth="yes"/>
      <point x="220" y="535"/>
      <point x="222" y="564"/>
      <point x="225" y="581" type="curve"/>
      <point x="225" y="587"/>
      <point x="222" y="590"/>
      <point x="217" y="590" type="curve" smooth="yes"/>
      <point x="205" y="590"/>
      <point x="108" y="558"/>
      <point x="102" y="550" type="curve" smooth="yes"/>
      <point x="95" y="541"/>
      <point x="91" y="514"/>
      <point x="91" y="434" type="curve"/>
    </contour>
    <contour>
      <point x="35" y="221.062" type="curve" smooth="yes"/>
      <point x="177.36" y="220.948" type="line"/>
      <point x="177.493" y="269.483" type="line"/>
      <point x="50" y="269" type="line" smooth="yes"/>
      <point x="41.0156" y="268.966"/>
      <point x="25" y="258.691"/>
      <point x="25" y="237.989" type="curve" smooth="yes"/>
      <point x="25" y="229.682"/>
      <point x="28.246" y="221.067"/>
    </contour>
    <contour>
      <point x="176.145" y="220.987" type="line"/>
      <point x="310.877" y="221.062" type="line" smooth="yes"/>
      <point x="321.865" y="221.068"/>
      <point x="336" y="232.458"/>
      <point x="336" y="249.913" type="curve" smooth="yes"/>
      <point x="336" y="259.268"/>
      <point x="332.567" y="269.001"/>
      <point x="325.877" y="269" type="curve" smooth="yes"/>
      <point x="175.561" y="268.987" type="line"/>
    </contour>
  </outline>
</glyph>
<glyph name="uni0181" format="2">
  <advance width="769"/>
  <unicode hex="0181"/>
  <anchor x="393" y="740" name="t.uni0302"/>
  <anchor x="409" y="-60" name="b.minus-60"/>
  <outline>
    <contour>
      <point x="290" y="645.072" type="line"/>
      <point x="238.414" y="644.328"/>
      <point x="218.426" y="647"/>
      <point x="166.792" y="647" type="curve" smooth="yes"/>
      <point x="85.7013" y="647"/>
      <point x="11.6288" y="586.623"/>
      <point x="11.6288" y="521" type="curve" smooth="yes"/>
      <point x="11.6288" y="493.283"/>
      <point x="27.6199" y="468"/>
      <point x="56" y="468" type="curve" smooth="yes"/>
      <point x="82.2528" y="468"/>
      <point x="109" y="486.128"/>
      <point x="109" y="514" type="curve" smooth="yes"/>
      <point x="109" y="531"/>
      <point x="92" y="542"/>
      <point x="92" y="555" type="curve" smooth="yes"/>
      <point x="92" y="585"/>
      <point x="118.666" y="611"/>
      <point x="150.666" y="611" type="curve" smooth="yes"/>
      <point x="198.854" y="611"/>
      <point x="222" y="590.963"/>
      <point x="222" y="523" type="curve"/>
      <point x="290" y="523" type="line"/>
    </contour>
    <contour>
      <point x="290" y="645" type="curve"/>
      <point x="290" y="0" type="line"/>
      <point x="330" y="0"/>
      <point x="394" y="-2"/>
      <point x="454" y="-2" type="curve" smooth="yes"/>
      <point x="659" y="-2"/>
      <point x="725" y="84"/>
      <point x="725" y="186" type="curve" smooth="yes"/>
      <point x="725" y="274"/>
      <point x="681" y="331"/>
      <point x="575" y="359" type="curve"/>
      <point x="575" y="361" type="line"/>
      <point x="629" y="385"/>
      <point x="671" y="440"/>
      <point x="671" y="491" type="curve" smooth="yes"/>
      <point x="671" y="560"/>
      <point x="634" y="647"/>
      <point x="432" y="647" type="curve" smooth="yes"/>
      <point x="382" y="647"/>
      <point x="322" y="645"/>
    </contour>
    <contour>
      <point x="359" y="334" type="line"/>
      <point x="430" y="334" type="line" smooth="yes"/>
      <point x="533" y="334"/>
      <point x="578" y="273"/>
      <point x="578" y="187" type="curve" smooth="yes"/>
      <point x="578" y="127"/>
      <point x="557" y="40"/>
      <point x="425" y="40" type="curve" smooth="yes"/>
      <point x="365" y="40"/>
      <point x="359" y="55"/>
      <point x="359" y="84" type="curve" smooth="yes"/>
    </contour>
    <contour>
      <point x="359" y="562" type="line" smooth="yes"/>
      <point x="359" y="591"/>
      <point x="364" y="605"/>
      <point x="429" y="605" type="curve" smooth="yes"/>
      <point x="475" y="605"/>
      <point x="531" y="587"/>
      <point x="531" y="489" type="curve" smooth="yes"/>
      <point x="531" y="409"/>
      <point x="486" y="376"/>
      <point x="415" y="376" type="curve" smooth="yes"/>
      <point x="359" y="376" type="line"/>
    </contour>
    <contour>
      <point x="135" y="-2" type="curve"/>
      <point x="184" y="-1"/>
      <point x="280" y="0"/>
      <point x="290" y="0" type="curve"/>
      <point x="290" y="645" type="line"/>
      <point x="222" y="645.45" type="line"/>
      <point x="222" y="123" type="line" smooth="yes"/>
      <point x="222" y="39"/>
      <point x="205" y="35"/>
      <point x="135" y="32" type="curve"/>
      <point x="129" y="26"/>
      <point x="129" y="4"/>
    </contour>
  </outline>
  <guideline angle="90" x="166" y="0"/>
</glyph>
<glyph name="uni0184" format="2">
  <advance width="654"/>
  <unicode hex="0184"/>
  <anchor x="337" y="735" name="m.uni0302"/>
  <anchor x="268" y="-108" name="m.uni0316_2"/>
  <outline>
    <contour>
      <point x="229" y="658" type="curve"/>
      <point x="183.519" y="643.261"/>
      <point x="52.576" y="612.525"/>
      <point x="19" y="607" type="curve"/>
      <point x="9" y="601"/>
      <point x="9" y="579"/>
      <point x="19" y="573" type="curve"/>
      <point x="90.47" y="568.533"/>
      <point x="102" y="511.87"/>
      <point x="102" y="453" type="curve" smooth="yes"/>
      <point x="102" y="122" type="line" smooth="yes"/>
      <point x="102" y="63.582"/>
      <point x="83.868" y="43.921"/>
      <point x="19" y="32" type="curve"/>
      <point x="9" y="26"/>
      <point x="9" y="4"/>
      <point x="19" y="-2" type="curve"/>
      <point x="27.7" y="-1.8"/>
      <point x="106" y="0"/>
      <point x="155" y="0" type="curve" smooth="yes"/>
      <point x="173" y="0" type="line" smooth="yes"/>
      <point x="227.68" y="0"/>
      <point x="282.307" y="-2"/>
      <point x="337" y="-2" type="curve" smooth="yes"/>
      <point x="465.505" y="-2"/>
      <point x="608" y="40.303"/>
      <point x="608" y="196" type="curve" smooth="yes"/>
      <point x="608" y="322"/>
      <point x="497" y="390"/>
      <point x="328" y="390" type="curve" smooth="yes"/>
      <point x="242" y="390" type="line"/>
      <point x="242" y="543" type="line" smooth="yes"/>
      <point x="242" y="581.935"/>
      <point x="244.7" y="641.3"/>
      <point x="245" y="645" type="curve"/>
      <point x="245" y="654"/>
      <point x="238" y="658"/>
    </contour>
    <contour>
      <point x="242" y="344" type="line"/>
      <point x="313" y="344" type="line" smooth="yes"/>
      <point x="405.283" y="344"/>
      <point x="461" y="292.91"/>
      <point x="461" y="197" type="curve" smooth="yes"/>
      <point x="461" y="137"/>
      <point x="440" y="40"/>
      <point x="308" y="40" type="curve" smooth="yes"/>
      <point x="248" y="40"/>
      <point x="242" y="55"/>
      <point x="242" y="84" type="curve" smooth="yes"/>
    </contour>
  </outline>
</glyph>
<glyph name="uni0185" format="2">
  <advance width="572"/>
  <unicode hex="0185"/>
  <anchor x="268" y="-108" name="m.uni0316_2"/>
  <outline>
    <contour>
      <point x="104" y="463" type="curve" smooth="yes"/>
      <point x="104" y="127" type="line" smooth="yes"/>
      <point x="104" y="82.279"/>
      <point x="103.553" y="38.42"/>
      <point x="98" y="-6" type="curve"/>
      <point x="110" y="-10"/>
      <point x="121" y="-13"/>
      <point x="132" y="-13" type="curve"/>
      <point x="145" y="-2"/>
      <point x="155" y="12"/>
      <point x="164" y="30" type="curve"/>
      <point x="203.173" y="-0.033"/>
      <point x="261.175" y="-10"/>
      <point x="310" y="-10" type="curve" smooth="yes"/>
      <point x="421" y="-10"/>
      <point x="538" y="100"/>
      <point x="538" y="248.338" type="curve" smooth="yes"/>
      <point x="538" y="362.893"/>
      <point x="468.225" y="444"/>
      <point x="369.95" y="444" type="curve" smooth="yes"/>
      <point x="317.896" y="444"/>
      <point x="271.78" y="421.146"/>
      <point x="234" y="388" type="curve"/>
      <point x="234" y="583" type="line" smooth="yes"/>
      <point x="234" y="635.96"/>
      <point x="234.978" y="673.376"/>
      <point x="237" y="685" type="curve"/>
      <point x="237" y="694"/>
      <point x="230" y="698"/>
      <point x="221" y="698" type="curve"/>
      <point x="181.946" y="680.98"/>
      <point x="47.459" y="642.329"/>
      <point x="21" y="637" type="curve"/>
      <point x="14.23" y="622.894"/>
      <point x="14.23" y="603.853"/>
      <point x="21" y="593" type="curve"/>
      <point x="76" y="590"/>
      <point x="104" y="546"/>
    </contour>
    <contour>
      <point x="234" y="348" type="line"/>
      <point x="267" y="370"/>
      <point x="289" y="373"/>
      <point x="303.775" y="373" type="curve" smooth="yes"/>
      <point x="361" y="373"/>
      <point x="398" y="328"/>
      <point x="398" y="230" type="curve" smooth="yes"/>
      <point x="398" y="169.284"/>
      <point x="391.278" y="32"/>
      <point x="302.742" y="32" type="curve" smooth="yes"/>
      <point x="276.041" y="32"/>
      <point x="252.54" y="44.487"/>
      <point x="234" y="67" type="curve"/>
    </contour>
  </outline>
</glyph>
<glyph name="uni0188" format="2">
  <advance width="493"/>
  <unicode hex="0188"/>
  <outline>
    <component base="c"/>
    <contour>
      <point x="456" y="428" type="curve" smooth="yes"/>
      <point x="476" y="428"/>
      <point x="490" y="443"/>
      <point x="490" y="463" type="curve" smooth="yes"/>
      <point x="490" y="477"/>
      <point x="482" y="499"/>
      <point x="448" y="499" type="curve" smooth="yes"/>
      <point x="411.338" y="499"/>
      <point x="354.927" y="475.549"/>
      <point x="328.133" y="414.935" type="curve"/>
      <point x="358.159" y="406.321" type="line"/>
      <point x="366.393" y="424.342"/>
      <point x="382.484" y="437"/>
      <point x="404" y="437" type="curve" smooth="yes"/>
      <point x="421" y="437"/>
      <point x="440" y="428"/>
    </contour>
  </outline>
</glyph>
<glyph name="uni018A" format="2">
  <advance width="845"/>
  <unicode hex="018A"/>
  <anchor x="306" y="805" name="m.uni0302"/>
  <anchor x="369" y="-107" name="m.uni0316_2"/>
  <outline>
    <contour>
      <point x="144" y="-2" type="curve"/>
      <point x="193" y="-1"/>
      <point x="289" y="0"/>
      <point x="299" y="0" type="curve"/>
      <point x="299" y="580" type="line"/>
      <point x="231" y="580" type="line"/>
      <point x="231" y="123" type="line" smooth="yes"/>
      <point x="231" y="39"/>
      <point x="214" y="35"/>
      <point x="144" y="32" type="curve"/>
      <point x="138" y="26"/>
      <point x="138" y="4"/>
    </contour>
    <contour>
      <point x="299" y="0" type="line"/>
      <point x="339" y="0"/>
      <point x="423" y="-2"/>
      <point x="463" y="-2" type="curve" smooth="yes"/>
      <point x="669" y="-2"/>
      <point x="802" y="95.243"/>
      <point x="802" y="309.455" type="curve" smooth="yes"/>
      <point x="802" y="494"/>
      <point x="682" y="646"/>
      <point x="436" y="646" type="curve" smooth="yes"/>
      <point x="383" y="646"/>
      <point x="339" y="645"/>
      <point x="299" y="645" type="curve"/>
    </contour>
    <contour>
      <point x="368" y="119.349" type="curve" smooth="yes"/>
      <point x="368" y="529" type="line" smooth="yes"/>
      <point x="368" y="584"/>
      <point x="394" y="604"/>
      <point x="430" y="604" type="curve" smooth="yes"/>
      <point x="627" y="604"/>
      <point x="649" y="435"/>
      <point x="649" y="284.997" type="curve" smooth="yes"/>
      <point x="649" y="102.274"/>
      <point x="540" y="40"/>
      <point x="464" y="40" type="curve" smooth="yes"/>
      <point x="394" y="40"/>
      <point x="368" y="52.053"/>
    </contour>
    <contour>
      <point x="310.236" y="644.983" type="line"/>
      <point x="244" y="645" type="line" smooth="yes"/>
      <point x="214" y="645.008"/>
      <point x="181" y="647"/>
      <point x="164.009" y="647" type="curve" smooth="yes"/>
      <point x="55" y="647"/>
      <point x="4" y="565"/>
      <point x="4" y="518.361" type="curve" smooth="yes"/>
      <point x="4" y="482"/>
      <point x="35" y="468"/>
      <point x="55.842" y="468" type="curve" smooth="yes"/>
      <point x="79.492" y="468"/>
      <point x="106" y="486.027"/>
      <point x="106" y="511" type="curve" smooth="yes"/>
      <point x="106" y="531"/>
      <point x="89" y="542"/>
      <point x="89" y="558.639" type="curve" smooth="yes"/>
      <point x="89" y="583.927"/>
      <point x="128.264" y="611"/>
      <point x="168.886" y="611" type="curve" smooth="yes"/>
      <point x="203.367" y="611"/>
      <point x="231" y="591.494"/>
      <point x="231" y="570.379" type="curve"/>
      <point x="310.236" y="570.379" type="line"/>
    </contour>
  </outline>
</glyph>
<glyph name="uni018F" format="2">
  <advance width="704"/>
  <unicode hex="018F"/>
  <outline>
    <contour>
      <point x="105" y="494" type="line"/>
      <point x="166" y="552"/>
      <point x="252" y="577"/>
      <point x="332" y="577" type="curve" smooth="yes"/>
      <point x="448.004" y="577"/>
      <point x="516" y="484.614"/>
      <point x="516" y="327" type="curve" smooth="yes"/>
      <point x="516" y="317"/>
      <point x="516" y="314"/>
      <point x="515" y="305" type="curve"/>
      <point x="39" y="305" type="line"/>
      <point x="51.642" y="115.373"/>
      <point x="175.215" y="-11"/>
      <point x="348" y="-11" type="curve" smooth="yes"/>
      <point x="539.201" y="-11"/>
      <point x="666" y="123.774"/>
      <point x="666" y="327" type="curve" smooth="yes"/>
      <point x="666" y="524.859"/>
      <point x="533.261" y="658"/>
      <point x="336" y="658" type="curve" smooth="yes"/>
      <point x="227" y="658"/>
      <point x="151" y="620"/>
      <point x="75" y="522" type="curve"/>
    </contour>
    <contour>
      <point x="512" y="250" type="line"/>
      <point x="488.717" y="107.126"/>
      <point x="434.612" y="32"/>
      <point x="355" y="32" type="curve" smooth="yes"/>
      <point x="277.537" y="32"/>
      <point x="227.89" y="98.808"/>
      <point x="193" y="250" type="curve"/>
    </contour>
  </outline>
</glyph>
<glyph name="uni0191" format="2">
	<unicode hex="0191"/>
	<advance width="560"/>
	<outline>
		<contour>
			<point x="117" y="81" type="line" smooth="yes"/>
			<point x="117" y="-99"/>
			<point x="111" y="-128"/>
			<point x="68" y="-128" type="curve" smooth="yes"/>
			<point x="45.7099" y="-128"/>
			<point x="24.6704" y="-113.341"/>
			<point x="15" y="-94" type="curve"/>
			<point x="6" y="-78"/>
			<point x="-4" y="-60"/>
			<point x="-36" y="-60" type="curve" smooth="yes"/>
			<point x="-54" y="-60"/>
			<point x="-94" y="-87"/>
			<point x="-94" y="-116" type="curve" smooth="yes"/>
			<point x="-94" y="-158.752"/>
			<point x="-33.9414" y="-187"/>
			<point x="4" y="-187" type="curve" smooth="yes"/>
			<point x="160.802" y="-187"/>
			<point x="257" y="-42.5609"/>
			<point x="257" y="103" type="curve" smooth="yes"/>
			<point x="257" y="297" type="line"/>
			<point x="338" y="297" type="line" smooth="yes"/>
			<point x="382.516" y="297"/>
			<point x="429" y="290.42"/>
			<point x="429" y="235" type="curve"/>
			<point x="433.518" y="232.608"/>
			<point x="444.457" y="230.639"/>
			<point x="449.816" y="230.639" type="curve" smooth="yes"/>
			<point x="459.469" y="230.639"/>
			<point x="468.18" y="232.877"/>
			<point x="472" y="235" type="curve"/>
			<point x="471" y="270"/>
			<point x="470" y="289"/>
			<point x="470" y="323" type="curve" smooth="yes"/>
			<point x="470" y="357"/>
			<point x="471" y="379"/>
			<point x="472" y="409" type="curve"/>
			<point x="464.821" y="412.044"/>
			<point x="459.469" y="413.361"/>
			<point x="449.816" y="413.361" type="curve" smooth="yes"/>
			<point x="444.457" y="413.361"/>
			<point x="434.854" y="411.565"/>
			<point x="429" y="409" type="curve"/>
			<point x="429" y="354.269"/>
			<point x="384.768" y="347"/>
			<point x="338" y="347" type="curve" smooth="yes"/>
			<point x="257" y="347" type="line"/>
			<point x="257" y="554" type="line" smooth="yes"/>
			<point x="257" y="586.054"/>
			<point x="273.643" y="603"/>
			<point x="298" y="603" type="curve" smooth="yes"/>
			<point x="388" y="603" type="line" smooth="yes"/>
			<point x="463" y="603"/>
			<point x="484" y="560"/>
			<point x="506" y="491" type="curve"/>
			<point x="518" y="489"/>
			<point x="539" y="491"/>
			<point x="549" y="496" type="curve"/>
			<point x="544" y="537"/>
			<point x="539" y="638"/>
			<point x="537" y="646" type="curve"/>
			<point x="537" y="648"/>
			<point x="536" y="649"/>
			<point x="533" y="649" type="curve"/>
			<point x="509.03" y="644.77"/>
			<point x="491.308" y="645"/>
			<point x="467" y="645" type="curve" smooth="yes"/>
			<point x="184" y="645" type="line" smooth="yes"/>
			<point x="173.6" y="645"/>
			<point x="80" y="646"/>
			<point x="30" y="647" type="curve"/>
			<point x="27.4209" y="644.421"/>
			<point x="25.751" y="637.945"/>
			<point x="26" y="629.901" type="curve" smooth="yes"/>
			<point x="26.1276" y="625.78"/>
			<point x="26.8312" y="619.823"/>
			<point x="30" y="613" type="curve"/>
			<point x="98.4881" y="613"/>
			<point x="117" y="599.285"/>
			<point x="117" y="522" type="curve" smooth="yes"/>
		</contour>
	</outline>
</glyph>
<glyph name="florin" format="2">
  <advance width="485"/>
  <unicode hex="0192"/>
  <outline>
    <contour>
      <point x="133" y="118" type="line"/>
      <point x="116.34" y="-85.7045"/>
      <point x="103.264" y="-145"/>
      <point x="75" y="-145" type="curve" smooth="yes"/>
      <point x="45.2383" y="-145"/>
      <point x="70.2151" y="-84"/>
      <point x="0" y="-84" type="curve" smooth="yes"/>
      <point x="-32" y="-84"/>
      <point x="-51" y="-102"/>
      <point x="-51" y="-131" type="curve" smooth="yes"/>
      <point x="-51" y="-160"/>
      <point x="-19" y="-190"/>
      <point x="53" y="-190" type="curve" smooth="yes"/>
      <point x="187.123" y="-190"/>
      <point x="249.881" y="-46.3839"/>
      <point x="269.372" y="175.21" type="curve" smooth="yes"/>
      <point x="297.719" y="497.134" type="line" smooth="yes"/>
      <point x="309.647" y="632.59"/>
      <point x="318.617" y="662"/>
      <point x="348" y="662" type="curve" smooth="yes"/>
      <point x="365" y="662"/>
      <point x="372" y="639"/>
      <point x="377" y="610" type="curve" smooth="yes"/>
      <point x="380.597" y="589.319"/>
      <point x="407.639" y="570.256"/>
      <point x="435.592" y="570.256" type="curve" smooth="yes"/>
      <point x="468.219" y="570.256"/>
      <point x="485" y="596.444"/>
      <point x="485" y="627" type="curve" smooth="yes"/>
      <point x="485" y="657"/>
      <point x="453" y="698"/>
      <point x="356" y="698" type="curve" smooth="yes"/>
      <point x="243.82" y="698"/>
      <point x="182.453" y="608.108"/>
      <point x="166.636" y="480.716" type="curve"/>
    </contour>
    <contour>
      <point x="273" y="387" type="line"/>
      <point x="392" y="387" type="line"/>
      <point x="400.533" y="397.361"/>
      <point x="406.837" y="408.837"/>
      <point x="406.837" y="418.483" type="curve" smooth="yes"/>
      <point x="406.837" y="424.664"/>
      <point x="404.248" y="430.095"/>
      <point x="398" y="434" type="curve"/>
      <point x="279" y="434" type="line"/>
    </contour>
    <contour>
      <point x="82" y="392" type="line"/>
      <point x="169.965" y="385.975" type="line"/>
      <point x="178.968" y="434.985" type="line"/>
      <point x="88" y="429" type="line"/>
    </contour>
  </outline>
</glyph>
<glyph name="uni0193" format="2">
  <advance width="737"/>
  <unicode hex="0193"/>
  <outline>
    <contour>
      <point x="741" y="753" type="curve" smooth="yes"/>
      <point x="702" y="753"/>
      <point x="628" y="713"/>
      <point x="617" y="624" type="curve"/>
      <point x="572" y="629"/>
      <point x="522" y="654"/>
      <point x="425" y="658" type="curve"/>
      <point x="417" y="658"/>
      <point x="409" y="658"/>
      <point x="400" y="658" type="curve" smooth="yes"/>
      <point x="302" y="658"/>
      <point x="213" y="627"/>
      <point x="144" y="565" type="curve" smooth="yes"/>
      <point x="77" y="505"/>
      <point x="38" y="415"/>
      <point x="38" y="307" type="curve" smooth="yes"/>
      <point x="38" y="217"/>
      <point x="74" y="124"/>
      <point x="143" y="66" type="curve" smooth="yes"/>
      <point x="206" y="12"/>
      <point x="285" y="-10"/>
      <point x="390" y="-10" type="curve" smooth="yes"/>
      <point x="502" y="-10"/>
      <point x="610" y="24"/>
      <point x="674" y="78" type="curve"/>
      <point x="664" y="87"/>
      <point x="659" y="95"/>
      <point x="659" y="106" type="curve" smooth="yes"/>
      <point x="659" y="223" type="line" smooth="yes"/>
      <point x="659" y="258"/>
      <point x="674" y="268"/>
      <point x="702" y="271" type="curve"/>
      <point x="708" y="277"/>
      <point x="708" y="302"/>
      <point x="702" y="308" type="curve"/>
      <point x="686" y="307"/>
      <point x="664" y="307"/>
      <point x="641" y="306" type="curve"/>
      <point x="623" y="306"/>
      <point x="605" y="306"/>
      <point x="589" y="306" type="curve" smooth="yes"/>
      <point x="552" y="306"/>
      <point x="486" y="307"/>
      <point x="441" y="308" type="curve"/>
      <point x="435" y="302"/>
      <point x="435" y="277"/>
      <point x="441" y="271" type="curve"/>
      <point x="493" y="267"/>
      <point x="519" y="263"/>
      <point x="519" y="223" type="curve" smooth="yes"/>
      <point x="519" y="74" type="line"/>
      <point x="487" y="42"/>
      <point x="463" y="32"/>
      <point x="412" y="32" type="curve" smooth="yes"/>
      <point x="243" y="32"/>
      <point x="189" y="195"/>
      <point x="189" y="327" type="curve" smooth="yes"/>
      <point x="189" y="333"/>
      <point x="189" y="339"/>
      <point x="189" y="345" type="curve"/>
      <point x="191" y="424"/>
      <point x="205" y="495"/>
      <point x="239" y="542" type="curve" smooth="yes"/>
      <point x="278" y="595"/>
      <point x="333" y="616"/>
      <point x="386" y="616" type="curve" smooth="yes"/>
      <point x="393" y="616"/>
      <point x="400" y="616"/>
      <point x="407" y="615" type="curve"/>
      <point x="523" y="607"/>
      <point x="583" y="534"/>
      <point x="607" y="453" type="curve"/>
      <point x="623" y="451"/>
      <point x="639" y="453"/>
      <point x="651" y="459" type="curve"/>
      <point x="645" y="488"/>
      <point x="641" y="520"/>
      <point x="636" y="561" type="curve"/>
      <point x="643" y="562"/>
      <point x="649" y="563"/>
      <point x="656" y="564" type="curve"/>
      <point x="660" y="565"/>
      <point x="665" y="569"/>
      <point x="664" y="575" type="curve" smooth="yes"/>
      <point x="663" y="581"/>
      <point x="662" y="588"/>
      <point x="662" y="595" type="curve" smooth="yes"/>
      <point x="662" y="629"/>
      <point x="677" y="663"/>
      <point x="707" y="663" type="curve"/>
      <point x="707" y="663"/>
      <point x="707" y="663"/>
      <point x="707" y="663" type="curve"/>
      <point x="710" y="663"/>
      <point x="717" y="662"/>
      <point x="727" y="662" type="curve" smooth="yes"/>
      <point x="747" y="662"/>
      <point x="787" y="665"/>
      <point x="787" y="706" type="curve" smooth="yes"/>
      <point x="787" y="719"/>
      <point x="780" y="753"/>
    </contour>
  </outline>
</glyph>
<glyph name="uni019F" format="2">
	<unicode hex="019F"/>
	<advance width="730"/>
	<outline>
		<component base="O"/>
		<contour>
			<point x="173" y="309" type="line"/>
			<point x="557.5" y="309" type="line"/>
			<point x="557.5" y="353" type="line"/>
			<point x="173" y="353" type="line"/>
		</contour>
	</outline>
	<anchor name="m.uni0316_2" x="350" y="-110"/>
</glyph>
<glyph name="Ohorn" format="2">
  <advance width="730"/>
  <unicode hex="01A0"/>
  <anchor x="350" y="-110" name="m.uni0316_2"/>
  <anchor x="335" y="740" name="t.uni0302"/>
  <outline>
    <contour>
      <point x="694" y="322.684" type="curve" smooth="yes"/>
      <point x="694" y="528"/>
      <point x="546" y="658"/>
      <point x="365.082" y="658" type="curve" smooth="yes"/>
      <point x="165" y="658"/>
      <point x="37" y="499"/>
      <point x="37" y="314.896" type="curve" smooth="yes"/>
      <point x="37" y="111"/>
      <point x="194" y="-10"/>
      <point x="372.41" y="-10" type="curve" smooth="yes"/>
      <point x="565" y="-10"/>
      <point x="694" y="131"/>
    </contour>
    <contour>
      <point x="354.246" y="618" type="curve" smooth="yes"/>
      <point x="458" y="618"/>
      <point x="543" y="512.64"/>
      <point x="543" y="308.945" type="curve" smooth="yes"/>
      <point x="543" y="142.377"/>
      <point x="485" y="32"/>
      <point x="379.259" y="32" type="curve" smooth="yes"/>
      <point x="274" y="32"/>
      <point x="188" y="141.373"/>
      <point x="188" y="330.017" type="curve" smooth="yes"/>
      <point x="188" y="534.716"/>
      <point x="262" y="618"/>
    </contour>
    <contour>
      <point x="530.02" y="567.901" type="line"/>
      <point x="580.657" y="567.901" type="line" smooth="yes"/>
      <point x="652.883" y="567.901"/>
      <point x="701" y="606.27"/>
      <point x="701" y="669.336" type="curve" smooth="yes"/>
      <point x="701" y="711"/>
      <point x="680" y="754"/>
      <point x="628.451" y="754" type="curve" smooth="yes"/>
      <point x="591.749" y="754"/>
      <point x="575.615" y="732.203"/>
      <point x="575.615" y="708.658" type="curve" smooth="yes"/>
      <point x="575.615" y="684.074"/>
      <point x="593.202" y="664.577"/>
      <point x="617.343" y="663.797" type="curve" smooth="yes"/>
      <point x="632.911" y="663.294"/>
      <point x="644.184" y="655.059"/>
      <point x="644.2" y="639.113" type="curve" smooth="yes"/>
      <point x="644.221" y="618.135"/>
      <point x="624.747" y="600"/>
      <point x="591.516" y="600" type="curve" smooth="yes"/>
      <point x="574.571" y="600"/>
      <point x="551.157" y="604.716"/>
      <point x="529.536" y="616.184" type="curve"/>
    </contour>
  </outline>
</glyph>
<glyph name="ohorn" format="2">
  <advance width="581"/>
  <unicode hex="01A1"/>
  <anchor x="260" y="500" name="t.uni0302"/>
  <anchor x="269" y="-60" name="b.minus-60"/>
  <outline>
    <contour>
      <point x="37" y="203.8" type="curve" smooth="yes"/>
      <point x="37" y="72.814"/>
      <point x="121.646" y="-10"/>
      <point x="260.662" y="-10" type="curve" smooth="yes"/>
      <point x="407.849" y="-10"/>
      <point x="514" y="82.834"/>
      <point x="514" y="213.183" type="curve" smooth="yes"/>
      <point x="514" y="357.212"/>
      <point x="429.445" y="444"/>
      <point x="288.111" y="444" type="curve" smooth="yes"/>
      <point x="139.322" y="444"/>
      <point x="37" y="347.815"/>
    </contour>
    <contour>
      <point x="177" y="229" type="curve" smooth="yes"/>
      <point x="177" y="344.825"/>
      <point x="211.478" y="402"/>
      <point x="268.073" y="402" type="curve" smooth="yes"/>
      <point x="336.868" y="402"/>
      <point x="374" y="317.518"/>
      <point x="374" y="184" type="curve" smooth="yes"/>
      <point x="374" y="91.036"/>
      <point x="336.367" y="32"/>
      <point x="285.604" y="32" type="curve" smooth="yes"/>
      <point x="223.193" y="32"/>
      <point x="177" y="121.149"/>
    </contour>
    <contour>
      <point x="440.665" y="368.975" type="line"/>
      <point x="511.619" y="368.62"/>
      <point x="541" y="407.465"/>
      <point x="541" y="465" type="curve" smooth="yes"/>
      <point x="541" y="521.514"/>
      <point x="513.116" y="556"/>
      <point x="467.423" y="556" type="curve" smooth="yes"/>
      <point x="433.361" y="556"/>
      <point x="416" y="537.952"/>
      <point x="416" y="512.862" type="curve" smooth="yes"/>
      <point x="416" y="492.862"/>
      <point x="428.78" y="470.943"/>
      <point x="456.494" y="470.401" type="curve" smooth="yes"/>
      <point x="477" y="470"/>
      <point x="484" y="458"/>
      <point x="484" y="441.518" type="curve" smooth="yes"/>
      <point x="484" y="411"/>
      <point x="460" y="402"/>
      <point x="445.14" y="402" type="curve" smooth="yes"/>
      <point x="428.287" y="402"/>
      <point x="403.404" y="411.37"/>
      <point x="386.66" y="421.236" type="curve"/>
    </contour>
  </outline>
</glyph>
<glyph name="uni01A2" format="2">
  <advance width="1014"/>
  <unicode hex="01A2"/>
  <anchor x="378" y="804" name="m.uni0302"/>
  <anchor x="373" y="-113" name="m.uni0316_2"/>
  <outline>
    <contour>
      <point x="752" y="-12" type="line" smooth="yes"/>
      <point x="752" y="-95"/>
      <point x="736" y="-104"/>
      <point x="675" y="-107" type="curve"/>
      <point x="669" y="-113"/>
      <point x="669" y="-135"/>
      <point x="675" y="-141" type="curve"/>
      <point x="717" y="-140"/>
      <point x="765" y="-139"/>
      <point x="822" y="-139" type="curve" smooth="yes"/>
      <point x="879" y="-139"/>
      <point x="926" y="-140"/>
      <point x="969" y="-141" type="curve"/>
      <point x="975" y="-135"/>
      <point x="975" y="-113"/>
      <point x="969" y="-107" type="curve"/>
      <point x="908" y="-104"/>
      <point x="892" y="-95"/>
      <point x="892" y="-12" type="curve" smooth="yes"/>
      <point x="892" y="547" type="line"/>
      <point x="892" y="547" type="line"/>
      <point x="892" y="612"/>
      <point x="895" y="649"/>
      <point x="895" y="649" type="curve"/>
      <point x="895" y="658"/>
      <point x="888" y="662"/>
      <point x="879" y="662" type="curve"/>
      <point x="850" y="653"/>
      <point x="789" y="644"/>
      <point x="730" y="639" type="curve"/>
      <point x="722" y="639" type="line"/>
      <point x="719" y="640"/>
      <point x="716" y="640"/>
      <point x="709" y="640" type="curve" smooth="yes"/>
      <point x="668" y="640"/>
      <point x="638" y="640"/>
      <point x="604" y="644" type="curve"/>
      <point x="593" y="645"/>
      <point x="583" y="646"/>
      <point x="572" y="647" type="curve"/>
      <point x="559" y="640"/>
      <point x="549" y="634"/>
      <point x="541" y="629" type="curve"/>
      <point x="500" y="648"/>
      <point x="428" y="658"/>
      <point x="377" y="658" type="curve" smooth="yes"/>
      <point x="196" y="658"/>
      <point x="51" y="519"/>
      <point x="39" y="335" type="curve"/>
      <point x="38" y="327"/>
      <point x="38" y="319"/>
      <point x="38" y="311" type="curve" smooth="yes"/>
      <point x="38" y="113"/>
      <point x="196" y="-10"/>
      <point x="378" y="-10" type="curve" smooth="yes"/>
      <point x="472" y="-10"/>
      <point x="572" y="18"/>
      <point x="623" y="69" type="curve"/>
      <point x="623" y="555" type="line" smooth="yes"/>
      <point x="623" y="570"/>
      <point x="623" y="584"/>
      <point x="623" y="599" type="curve"/>
      <point x="623" y="599"/>
      <point x="647" y="603"/>
      <point x="676" y="602" type="curve"/>
      <point x="679" y="601"/>
      <point x="684" y="602"/>
      <point x="688" y="602" type="curve"/>
      <point x="747" y="597"/>
      <point x="752" y="595"/>
      <point x="752" y="527" type="curve" smooth="yes"/>
    </contour>
    <contour>
      <point x="364" y="616" type="curve" smooth="yes"/>
      <point x="408" y="616"/>
      <point x="445" y="605"/>
      <point x="483" y="570" type="curve"/>
      <point x="483" y="66" type="line"/>
      <point x="453" y="42"/>
      <point x="429" y="32"/>
      <point x="397" y="32" type="curve" smooth="yes"/>
      <point x="280" y="32"/>
      <point x="189" y="140"/>
      <point x="189" y="328" type="curve" smooth="yes"/>
      <point x="189" y="532"/>
      <point x="280" y="616"/>
    </contour>
  </outline>
</glyph>
<glyph name="uni01AC" format="2">
  <advance width="682"/>
  <unicode hex="01AC"/>
  <outline>
    <contour>
      <point x="198" y="-2" type="curve"/>
      <point x="247" y="-1"/>
      <point x="299" y="0"/>
      <point x="363" y="0" type="curve" smooth="yes"/>
      <point x="429" y="0"/>
      <point x="482" y="-1"/>
      <point x="532" y="-2" type="curve"/>
      <point x="538" y="4"/>
      <point x="538" y="26"/>
      <point x="532" y="32" type="curve"/>
      <point x="452" y="35"/>
      <point x="435" y="40"/>
      <point x="435" y="123" type="curve" smooth="yes"/>
      <point x="435" y="503" type="line" smooth="yes"/>
      <point x="435" y="567"/>
      <point x="445" y="605"/>
      <point x="481" y="605" type="curve" smooth="yes"/>
      <point x="503" y="605" type="line" smooth="yes"/>
      <point x="578" y="605"/>
      <point x="620" y="579"/>
      <point x="637" y="502" type="curve"/>
      <point x="648" y="502"/>
      <point x="667" y="503"/>
      <point x="676" y="507" type="curve"/>
      <point x="669" y="553"/>
      <point x="664" y="605"/>
      <point x="663" y="650" type="curve"/>
      <point x="663" y="651"/>
      <point x="661" y="653"/>
      <point x="660" y="653" type="curve"/>
      <point x="626" y="650"/>
      <point x="515" y="645"/>
      <point x="436" y="645" type="curve" smooth="yes"/>
      <point x="193.707" y="645" type="line" smooth="yes"/>
      <point x="68.958" y="645"/>
      <point x="7" y="593.414"/>
      <point x="7" y="521" type="curve" smooth="yes"/>
      <point x="7" y="482"/>
      <point x="38" y="468"/>
      <point x="56" y="468" type="curve" smooth="yes"/>
      <point x="83" y="468"/>
      <point x="109" y="487"/>
      <point x="109" y="514" type="curve" smooth="yes"/>
      <point x="109" y="531"/>
      <point x="92" y="542"/>
      <point x="92" y="555" type="curve" smooth="yes"/>
      <point x="92" y="586"/>
      <point x="136" y="605"/>
      <point x="169" y="605" type="curve" smooth="yes"/>
      <point x="248" y="605" type="line" smooth="yes"/>
      <point x="285" y="605"/>
      <point x="295" y="567"/>
      <point x="295" y="506" type="curve" smooth="yes"/>
      <point x="295" y="123" type="line" smooth="yes"/>
      <point x="295" y="40"/>
      <point x="278" y="35"/>
      <point x="198" y="32" type="curve"/>
      <point x="192" y="26"/>
      <point x="192" y="4"/>
    </contour>
  </outline>
</glyph>
<glyph name="uhorn" format="2">
  <advance width="531"/>
  <unicode hex="01B0"/>
  <anchor x="277" y="500" name="t.uni0302"/>
  <anchor x="281" y="-60" name="b.minus-60"/>
  <outline>
    <component base="u"/>
    <contour>
      <point x="482.734" y="401.547" type="line" smooth="yes"/>
      <point x="533.094" y="406.707"/>
      <point x="573.584" y="445.17"/>
      <point x="573.584" y="486.608" type="curve" smooth="yes"/>
      <point x="573.584" y="533.632"/>
      <point x="543.922" y="556"/>
      <point x="500.007" y="556" type="curve" smooth="yes"/>
      <point x="465.945" y="556"/>
      <point x="448.584" y="537.953"/>
      <point x="448.584" y="512.862" type="curve" smooth="yes"/>
      <point x="448.584" y="492.862"/>
      <point x="461.364" y="470.943"/>
      <point x="489.078" y="470.401" type="curve" smooth="yes"/>
      <point x="509.584" y="470"/>
      <point x="516.584" y="460"/>
      <point x="516.584" y="448.3" type="curve" smooth="yes"/>
      <point x="516.584" y="434.518"/>
      <point x="485.317" y="432.563"/>
      <point x="467.634" y="432.594" type="curve"/>
      <point x="467.634" y="400" type="line"/>
    </contour>
  </outline>
</glyph>
<glyph name="uni01B6" format="2">
  <advance width="452"/>
  <unicode hex="01B6"/>
  <outline>
    <component base="z"/>
    <contour>
      <point x="199" y="192" type="line"/>
      <point x="199" y="240" type="line"/>
      <point x="72" y="240" type="line" smooth="yes"/>
      <point x="63" y="240"/>
      <point x="47" y="230"/>
      <point x="47" y="209" type="curve" smooth="yes"/>
      <point x="47" y="201"/>
      <point x="50" y="192"/>
      <point x="57" y="192" type="curve" smooth="yes"/>
    </contour>
    <contour>
      <point x="228" y="192" type="line"/>
      <point x="363" y="192" type="line" smooth="yes"/>
      <point x="374" y="192"/>
      <point x="388" y="204"/>
      <point x="388" y="221" type="curve" smooth="yes"/>
      <point x="388" y="230"/>
      <point x="385" y="240"/>
      <point x="378" y="240" type="curve" smooth="yes"/>
      <point x="228" y="240" type="line"/>
    </contour>
  </outline>
</glyph>
<glyph name="uni01BE" format="2">
  <advance width="453"/>
  <unicode hex="01BE"/>
  <outline>
    <contour>
      <point x="41.95" y="-5" type="curve"/>
      <point x="50.65" y="-1.65"/>
      <point x="62.4" y="-0.388"/>
      <point x="75.65" y="-0.4" type="curve" smooth="yes"/>
      <point x="115.4" y="-0.438"/>
      <point x="168.75" y="-12"/>
      <point x="195" y="-12" type="curve" smooth="yes"/>
      <point x="313.9" y="-12"/>
      <point x="407" y="25.78"/>
      <point x="407" y="142.63" type="curve" smooth="yes"/>
      <point x="407" y="305.796"/>
      <point x="162" y="277.899"/>
      <point x="162" y="411.491" type="curve" smooth="yes"/>
      <point x="162" y="663.4" type="line"/>
      <point x="77.121" y="627.85" type="line"/>
      <point x="77.121" y="549.947" type="line" smooth="yes"/>
      <point x="77.121" y="505.581"/>
      <point x="50.473" y="484"/>
      <point x="9.1" y="484" type="curve" smooth="yes"/>
      <point x="5.5" y="484"/>
      <point x="2" y="479.3"/>
      <point x="2" y="475.65" type="curve" smooth="yes"/>
      <point x="2" y="447.4" type="line" smooth="yes"/>
      <point x="2" y="440"/>
      <point x="4.1" y="438"/>
      <point x="11.9" y="438" type="curve" smooth="yes"/>
      <point x="67" y="438" type="line"/>
      <point x="67" y="392.082" type="line" smooth="yes"/>
      <point x="67" y="217.537"/>
      <point x="294" y="232.485"/>
      <point x="294" y="126.63" type="curve" smooth="yes"/>
      <point x="294" y="64.98"/>
      <point x="268.55" y="29"/>
      <point x="192" y="29" type="curve" smooth="yes"/>
      <point x="121.05" y="29"/>
      <point x="101.25" y="46.3"/>
      <point x="64.3" y="141.1" type="curve"/>
      <point x="28.95" y="141.3" type="line"/>
      <point x="36.525" y="93.549"/>
      <point x="41.891" y="45.257"/>
    </contour>
    <contour>
      <point x="147" y="438" type="line"/>
      <point x="240.4" y="438" type="line" smooth="yes"/>
      <point x="245.4" y="438"/>
      <point x="250" y="444.05"/>
      <point x="250" y="449.05" type="curve" smooth="yes"/>
      <point x="250" y="474.15" type="line" smooth="yes"/>
      <point x="250" y="481.05"/>
      <point x="247.8" y="484"/>
      <point x="237.8" y="484" type="curve" smooth="yes"/>
      <point x="147" y="484" type="line"/>
    </contour>
  </outline>
</glyph>
<glyph name="uni01C2" format="2">
  <advance width="348"/>
  <unicode hex="01C2"/>
  <outline>
    <contour>
      <point x="179" y="387" type="line"/>
      <point x="179" y="435" type="line"/>
      <point x="52" y="435" type="line" smooth="yes"/>
      <point x="43" y="435"/>
      <point x="27" y="425"/>
      <point x="27" y="404" type="curve" smooth="yes"/>
      <point x="27" y="396"/>
      <point x="30" y="387"/>
      <point x="37" y="387" type="curve" smooth="yes"/>
    </contour>
    <contour>
      <point x="179" y="285" type="line"/>
      <point x="179" y="333" type="line"/>
      <point x="52" y="333" type="line" smooth="yes"/>
      <point x="43" y="333"/>
      <point x="27" y="323"/>
      <point x="27" y="302" type="curve" smooth="yes"/>
      <point x="27" y="294"/>
      <point x="30" y="285"/>
      <point x="37" y="285" type="curve" smooth="yes"/>
    </contour>
    <contour>
      <point x="204" y="0" type="curve"/>
      <point x="204" y="698" type="line"/>
      <point x="184" y="704"/>
      <point x="164" y="704"/>
      <point x="144" y="698" type="curve"/>
      <point x="144" y="0" type="line"/>
      <point x="164" y="-6"/>
      <point x="184" y="-6"/>
    </contour>
    <contour>
      <point x="168" y="387" type="line"/>
      <point x="303" y="387" type="line" smooth="yes"/>
      <point x="314" y="387"/>
      <point x="328" y="399"/>
      <point x="328" y="416" type="curve" smooth="yes"/>
      <point x="328" y="425"/>
      <point x="325" y="435"/>
      <point x="318" y="435" type="curve" smooth="yes"/>
      <point x="168" y="435" type="line"/>
    </contour>
    <contour>
      <point x="168" y="285" type="line"/>
      <point x="303" y="285" type="line" smooth="yes"/>
      <point x="314" y="285"/>
      <point x="328" y="297"/>
      <point x="328" y="314" type="curve" smooth="yes"/>
      <point x="328" y="323"/>
      <point x="325" y="333"/>
      <point x="318" y="333" type="curve" smooth="yes"/>
      <point x="168" y="333" type="line"/>
    </contour>
  </outline>
</glyph>
<glyph name="uni01D5" format="2">
  <advance width="732"/>
  <unicode hex="01D5"/>
  <outline>
    <component base="U"/>
    <contour>
      <point x="533" y="793" type="line" smooth="yes"/>
      <point x="547" y="793"/>
      <point x="559" y="813"/>
      <point x="559" y="826" type="curve" smooth="yes"/>
      <point x="559" y="834"/>
      <point x="555" y="843"/>
      <point x="545" y="843" type="curve" smooth="yes"/>
      <point x="269" y="843" type="line" smooth="yes"/>
      <point x="256" y="843"/>
      <point x="244" y="823"/>
      <point x="244" y="811" type="curve" smooth="yes"/>
      <point x="244" y="802"/>
      <point x="248" y="793"/>
      <point x="259" y="793" type="curve" smooth="yes"/>
    </contour>
    <contour>
      <point x="430" y="707" type="curve" smooth="yes"/>
      <point x="430" y="675"/>
      <point x="455" y="651"/>
      <point x="487" y="651" type="curve" smooth="yes"/>
      <point x="519" y="651"/>
      <point x="542" y="675"/>
      <point x="542" y="707" type="curve" smooth="yes"/>
      <point x="542" y="739"/>
      <point x="519" y="764"/>
      <point x="487" y="764" type="curve" smooth="yes"/>
      <point x="455" y="764"/>
      <point x="430" y="739"/>
    </contour>
    <contour>
      <point x="263" y="707" type="curve" smooth="yes"/>
      <point x="263" y="675"/>
      <point x="287" y="651"/>
      <point x="319" y="651" type="curve" smooth="yes"/>
      <point x="351" y="651"/>
      <point x="375" y="675"/>
      <point x="375" y="707" type="curve" smooth="yes"/>
      <point x="375" y="739"/>
      <point x="351" y="764"/>
      <point x="319" y="764" type="curve" smooth="yes"/>
      <point x="287" y="764"/>
      <point x="263" y="739"/>
    </contour>
  </outline>
</glyph>
